<?xml version="1.0" encoding="utf-8"?>
<svg viewBox="0 0 1920 1080" xmlns="http://www.w3.org/2000/svg" xmlns:xlink="http://www.w3.org/1999/xlink">
  <defs>
    <mask id="mask-0">
      <ellipse style="stroke: rgb(0, 0, 0); fill: url('#gradient-2');" cx="956.914" cy="868.974" rx="419.058" ry="1365.971" transform="matrix(0.763344, 0.645992, -1.082893, 0.39361, 761.265051, -186.685891)"/>
    </mask>
    <radialGradient gradientUnits="userSpaceOnUse" cx="952.305" cy="543.357" r="952.417" id="gradient-2" gradientTransform="matrix(0.439994, 0, -0.000001, 2.566218, 537.905464, -525.399344)">
      <stop offset="0" style="stop-color: rgba(216, 216, 216, 0);"/>
      <stop offset="1" style=""/>
    </radialGradient>
    <linearGradient id="gradient-9-11" gradientUnits="userSpaceOnUse" x1="180" y1="120" x2="180" y2="240" gradientTransform="matrix(1.155105, 0, 0.000002, 1.052001, 0, 0)" xlink:href="#gradient-9"/>
    <linearGradient id="gradient-9">
      <stop offset="0" style="stop-color: rgb(255, 98, 96);"/>
      <stop offset="1" style="stop-color: rgb(80, 36, 0);"/>
    </linearGradient>
    <linearGradient id="gradient-10-11" gradientUnits="userSpaceOnUse" x1="420" y1="240" x2="420" y2="360" gradientTransform="matrix(1.155105, 0, 0.000002, 1.052001, 0, 0)" xlink:href="#gradient-10"/>
    <linearGradient id="gradient-10">
      <stop offset="0" style="stop-color: rgb(246, 121, 0);"/>
      <stop offset="1" style="stop-color: rgb(57, 48, 0);"/>
    </linearGradient>
    <linearGradient id="gradient-11-11" gradientUnits="userSpaceOnUse" x1="780" y1="120" x2="780" y2="240" gradientTransform="matrix(1.155105, 0, 0.000002, 1.052001, 0, 0)" xlink:href="#gradient-11"/>
    <linearGradient id="gradient-11">
      <stop offset="0" style="stop-color: rgb(228, 196, 0);"/>
      <stop offset="1" style="stop-color: rgb(30, 55, 0);"/>
    </linearGradient>
    <linearGradient id="gradient-12-11" gradientUnits="userSpaceOnUse" x1="1020" y1="240" x2="1020" y2="360" gradientTransform="matrix(1.155105, 0, 0.000002, 1.052001, 0, 0)" xlink:href="#gradient-12"/>
    <linearGradient id="gradient-12">
      <stop offset="0" style="stop-color: rgb(104, 176, 0);"/>
      <stop offset="1" style="stop-color: rgb(0, 58, 21);"/>
    </linearGradient>
    <linearGradient id="gradient-13-11" gradientUnits="userSpaceOnUse" x1="1260" y1="120" x2="1260" y2="240" gradientTransform="matrix(1.155105, 0, 0.000002, 1.052001, 138.61267, 0.000105)" xlink:href="#gradient-13"/>
    <linearGradient id="gradient-13">
      <stop offset="0" style="stop-color: rgb(65, 162, 255);"/>
      <stop offset="1" style="stop-color: rgb(0, 54, 78);"/>
    </linearGradient>
    <linearGradient id="gradient-14-11" gradientUnits="userSpaceOnUse" x1="1620" y1="240" x2="1620" y2="360" gradientTransform="matrix(1.155105, 0, 0.000002, 1.052001, 0, 0)" xlink:href="#gradient-14"/>
    <linearGradient id="gradient-14">
      <stop offset="0" style="stop-color: rgb(172, 137, 255);"/>
      <stop offset="1" style="stop-color: rgb(0, 50, 102);"/>
    </linearGradient>
    <linearGradient id="gradient-9-1" gradientUnits="userSpaceOnUse" x1="180" y1="120" x2="180" y2="240" gradientTransform="matrix(1.155105, 0, 0.000002, 1.052001, 0, 0)" xlink:href="#gradient-9"/>
    <linearGradient id="gradient-10-1" gradientUnits="userSpaceOnUse" x1="420" y1="240" x2="420" y2="360" gradientTransform="matrix(1.155105, 0, 0.000002, 1.052001, 0, 0)" xlink:href="#gradient-10"/>
    <linearGradient id="gradient-11-1" gradientUnits="userSpaceOnUse" x1="780" y1="120" x2="780" y2="240" gradientTransform="matrix(1.155105, 0, 0.000002, 1.052001, 0, 0)" xlink:href="#gradient-11"/>
    <linearGradient id="gradient-12-1" gradientUnits="userSpaceOnUse" x1="1020" y1="240" x2="1020" y2="360" gradientTransform="matrix(1.155105, 0, 0.000002, 1.052001, 0, 0)" xlink:href="#gradient-12"/>
    <linearGradient id="gradient-13-1" gradientUnits="userSpaceOnUse" x1="1260" y1="120" x2="1260" y2="240" gradientTransform="matrix(1.155105, 0, 0.000002, 1.052001, 138.61267, 0.000105)" xlink:href="#gradient-13"/>
    <linearGradient id="gradient-14-1" gradientUnits="userSpaceOnUse" x1="1620" y1="240" x2="1620" y2="360" gradientTransform="matrix(1.155105, 0, 0.000002, 1.052001, 0, 0)" xlink:href="#gradient-14"/>
    <linearGradient id="gradient-9-2" gradientUnits="userSpaceOnUse" x1="180" y1="120" x2="180" y2="240" gradientTransform="matrix(1.155105, 0, 0.000002, 1.052001, 0, 0)" xlink:href="#gradient-9"/>
    <linearGradient id="gradient-10-2" gradientUnits="userSpaceOnUse" x1="420" y1="240" x2="420" y2="360" gradientTransform="matrix(1.155105, 0, 0.000002, 1.052001, 0, 0)" xlink:href="#gradient-10"/>
    <linearGradient id="gradient-11-2" gradientUnits="userSpaceOnUse" x1="780" y1="120" x2="780" y2="240" gradientTransform="matrix(1.155105, 0, 0.000002, 1.052001, 0, 0)" xlink:href="#gradient-11"/>
    <linearGradient id="gradient-12-2" gradientUnits="userSpaceOnUse" x1="1020" y1="240" x2="1020" y2="360" gradientTransform="matrix(1.155105, 0, 0.000002, 1.052001, 0, 0)" xlink:href="#gradient-12"/>
    <linearGradient id="gradient-13-2" gradientUnits="userSpaceOnUse" x1="1260" y1="120" x2="1260" y2="240" gradientTransform="matrix(1.155105, 0, 0.000002, 1.052001, 138.61267, 0.000105)" xlink:href="#gradient-13"/>
    <linearGradient id="gradient-14-2" gradientUnits="userSpaceOnUse" x1="1620" y1="240" x2="1620" y2="360" gradientTransform="matrix(1.155105, 0, 0.000002, 1.052001, 0, 0)" xlink:href="#gradient-14"/>
    <linearGradient id="gradient-9-3" gradientUnits="userSpaceOnUse" x1="180" y1="120" x2="180" y2="240" gradientTransform="matrix(1.155105, 0, 0.000002, 1.052001, 0, 0)" xlink:href="#gradient-9"/>
    <linearGradient id="gradient-10-3" gradientUnits="userSpaceOnUse" x1="420" y1="240" x2="420" y2="360" gradientTransform="matrix(1.155105, 0, 0.000002, 1.052001, 0, 0)" xlink:href="#gradient-10"/>
    <linearGradient id="gradient-11-3" gradientUnits="userSpaceOnUse" x1="780" y1="120" x2="780" y2="240" gradientTransform="matrix(1.155105, 0, 0.000002, 1.052001, 0, 0)" xlink:href="#gradient-11"/>
    <linearGradient id="gradient-12-3" gradientUnits="userSpaceOnUse" x1="1020" y1="240" x2="1020" y2="360" gradientTransform="matrix(1.155105, 0, 0.000002, 1.052001, 0, 0)" xlink:href="#gradient-12"/>
    <linearGradient id="gradient-13-3" gradientUnits="userSpaceOnUse" x1="1260" y1="120" x2="1260" y2="240" gradientTransform="matrix(1.155105, 0, 0.000002, 1.052001, 138.61267, 0.000105)" xlink:href="#gradient-13"/>
    <linearGradient id="gradient-14-3" gradientUnits="userSpaceOnUse" x1="1620" y1="240" x2="1620" y2="360" gradientTransform="matrix(1.155105, 0, 0.000002, 1.052001, 0, 0)" xlink:href="#gradient-14"/>
    <linearGradient id="gradient-9-4" gradientUnits="userSpaceOnUse" x1="180" y1="120" x2="180" y2="240" gradientTransform="matrix(1.155105, 0, 0.000002, 1.052001, 0, 0)" xlink:href="#gradient-9"/>
    <linearGradient id="gradient-10-4" gradientUnits="userSpaceOnUse" x1="420" y1="240" x2="420" y2="360" gradientTransform="matrix(1.155105, 0, 0.000002, 1.052001, 0, 0)" xlink:href="#gradient-10"/>
    <linearGradient id="gradient-11-4" gradientUnits="userSpaceOnUse" x1="780" y1="120" x2="780" y2="240" gradientTransform="matrix(1.155105, 0, 0.000002, 1.052001, 0, 0)" xlink:href="#gradient-11"/>
    <linearGradient id="gradient-12-4" gradientUnits="userSpaceOnUse" x1="1020" y1="240" x2="1020" y2="360" gradientTransform="matrix(1.155105, 0, 0.000002, 1.052001, 0, 0)" xlink:href="#gradient-12"/>
    <linearGradient id="gradient-13-4" gradientUnits="userSpaceOnUse" x1="1260" y1="120" x2="1260" y2="240" gradientTransform="matrix(1.155105, 0, 0.000002, 1.052001, 138.61267, 0.000105)" xlink:href="#gradient-13"/>
    <linearGradient id="gradient-14-4" gradientUnits="userSpaceOnUse" x1="1620" y1="240" x2="1620" y2="360" gradientTransform="matrix(1.155105, 0, 0.000002, 1.052001, 0, 0)" xlink:href="#gradient-14"/>
    <linearGradient id="gradient-9-5" gradientUnits="userSpaceOnUse" x1="180" y1="120" x2="180" y2="240" gradientTransform="matrix(1.155105, 0, 0.000002, 1.052001, 0, 0)" xlink:href="#gradient-9"/>
    <linearGradient id="gradient-10-5" gradientUnits="userSpaceOnUse" x1="420" y1="240" x2="420" y2="360" gradientTransform="matrix(1.155105, 0, 0.000002, 1.052001, 0, 0)" xlink:href="#gradient-10"/>
    <linearGradient id="gradient-11-5" gradientUnits="userSpaceOnUse" x1="780" y1="120" x2="780" y2="240" gradientTransform="matrix(1.155105, 0, 0.000002, 1.052001, 0, 0)" xlink:href="#gradient-11"/>
    <linearGradient id="gradient-12-5" gradientUnits="userSpaceOnUse" x1="1020" y1="240" x2="1020" y2="360" gradientTransform="matrix(1.155105, 0, 0.000002, 1.052001, 0, 0)" xlink:href="#gradient-12"/>
    <linearGradient id="gradient-13-5" gradientUnits="userSpaceOnUse" x1="1260" y1="120" x2="1260" y2="240" gradientTransform="matrix(1.155105, 0, 0.000002, 1.052001, 138.61267, 0.000105)" xlink:href="#gradient-13"/>
    <linearGradient id="gradient-14-5" gradientUnits="userSpaceOnUse" x1="1620" y1="240" x2="1620" y2="360" gradientTransform="matrix(1.155105, 0, 0.000002, 1.052001, 0, 0)" xlink:href="#gradient-14"/>
    <linearGradient id="gradient-9-6" gradientUnits="userSpaceOnUse" x1="180" y1="120" x2="180" y2="240" gradientTransform="matrix(1.155105, 0, 0.000002, 1.052001, 0, 0)" xlink:href="#gradient-9"/>
    <linearGradient id="gradient-10-6" gradientUnits="userSpaceOnUse" x1="420" y1="240" x2="420" y2="360" gradientTransform="matrix(1.155105, 0, 0.000002, 1.052001, 0, 0)" xlink:href="#gradient-10"/>
    <linearGradient id="gradient-11-6" gradientUnits="userSpaceOnUse" x1="780" y1="120" x2="780" y2="240" gradientTransform="matrix(1.155105, 0, 0.000002, 1.052001, 0, 0)" xlink:href="#gradient-11"/>
    <linearGradient id="gradient-12-6" gradientUnits="userSpaceOnUse" x1="1020" y1="240" x2="1020" y2="360" gradientTransform="matrix(1.155105, 0, 0.000002, 1.052001, 0, 0)" xlink:href="#gradient-12"/>
    <linearGradient id="gradient-13-6" gradientUnits="userSpaceOnUse" x1="1260" y1="120" x2="1260" y2="240" gradientTransform="matrix(1.155105, 0, 0.000002, 1.052001, 138.61267, 0.000105)" xlink:href="#gradient-13"/>
    <linearGradient id="gradient-14-6" gradientUnits="userSpaceOnUse" x1="1620" y1="240" x2="1620" y2="360" gradientTransform="matrix(1.155105, 0, 0.000002, 1.052001, 0, 0)" xlink:href="#gradient-14"/>
    <linearGradient id="gradient-9-7" gradientUnits="userSpaceOnUse" x1="180" y1="120" x2="180" y2="240" gradientTransform="matrix(1.155105, 0, 0.000002, 1.052001, 0, 0)" xlink:href="#gradient-9"/>
    <linearGradient id="gradient-10-7" gradientUnits="userSpaceOnUse" x1="420" y1="240" x2="420" y2="360" gradientTransform="matrix(1.155105, 0, 0.000002, 1.052001, 0, 0)" xlink:href="#gradient-10"/>
    <linearGradient id="gradient-11-7" gradientUnits="userSpaceOnUse" x1="780" y1="120" x2="780" y2="240" gradientTransform="matrix(1.155105, 0, 0.000002, 1.052001, 0, 0)" xlink:href="#gradient-11"/>
    <linearGradient id="gradient-12-7" gradientUnits="userSpaceOnUse" x1="1020" y1="240" x2="1020" y2="360" gradientTransform="matrix(1.155105, 0, 0.000002, 1.052001, 0, 0)" xlink:href="#gradient-12"/>
    <linearGradient id="gradient-13-7" gradientUnits="userSpaceOnUse" x1="1260" y1="120" x2="1260" y2="240" gradientTransform="matrix(1.155105, 0, 0.000002, 1.052001, 138.61267, 0.000105)" xlink:href="#gradient-13"/>
    <linearGradient id="gradient-14-7" gradientUnits="userSpaceOnUse" x1="1620" y1="240" x2="1620" y2="360" gradientTransform="matrix(1.155105, 0, 0.000002, 1.052001, 0, 0)" xlink:href="#gradient-14"/>
    <linearGradient id="gradient-9-8" gradientUnits="userSpaceOnUse" x1="180" y1="120" x2="180" y2="240" gradientTransform="matrix(1.155105, 0, 0.000002, 1.052001, 0, 0)" xlink:href="#gradient-9"/>
    <linearGradient id="gradient-10-8" gradientUnits="userSpaceOnUse" x1="420" y1="240" x2="420" y2="360" gradientTransform="matrix(1.155105, 0, 0.000002, 1.052001, 0, 0)" xlink:href="#gradient-10"/>
    <linearGradient id="gradient-11-8" gradientUnits="userSpaceOnUse" x1="780" y1="120" x2="780" y2="240" gradientTransform="matrix(1.155105, 0, 0.000002, 1.052001, 0, 0)" xlink:href="#gradient-11"/>
    <linearGradient id="gradient-12-8" gradientUnits="userSpaceOnUse" x1="1020" y1="240" x2="1020" y2="360" gradientTransform="matrix(1.155105, 0, 0.000002, 1.052001, 0, 0)" xlink:href="#gradient-12"/>
    <linearGradient id="gradient-13-8" gradientUnits="userSpaceOnUse" x1="1260" y1="120" x2="1260" y2="240" gradientTransform="matrix(1.155105, 0, 0.000002, 1.052001, 138.61267, 0.000105)" xlink:href="#gradient-13"/>
    <linearGradient id="gradient-14-8" gradientUnits="userSpaceOnUse" x1="1620" y1="240" x2="1620" y2="360" gradientTransform="matrix(1.155105, 0, 0.000002, 1.052001, 0, 0)" xlink:href="#gradient-14"/>
    <linearGradient id="gradient-9-9" gradientUnits="userSpaceOnUse" x1="180" y1="120" x2="180" y2="240" gradientTransform="matrix(1.155105, 0, 0.000002, 1.052001, 0, 0)" xlink:href="#gradient-9"/>
    <linearGradient id="gradient-10-9" gradientUnits="userSpaceOnUse" x1="420" y1="240" x2="420" y2="360" gradientTransform="matrix(1.155105, 0, 0.000002, 1.052001, 0, 0)" xlink:href="#gradient-10"/>
    <linearGradient id="gradient-11-9" gradientUnits="userSpaceOnUse" x1="780" y1="120" x2="780" y2="240" gradientTransform="matrix(1.155105, 0, 0.000002, 1.052001, 0, 0)" xlink:href="#gradient-11"/>
    <linearGradient id="gradient-12-9" gradientUnits="userSpaceOnUse" x1="1020" y1="240" x2="1020" y2="360" gradientTransform="matrix(1.155105, 0, 0.000002, 1.052001, 0, 0)" xlink:href="#gradient-12"/>
    <linearGradient id="gradient-13-9" gradientUnits="userSpaceOnUse" x1="1260" y1="120" x2="1260" y2="240" gradientTransform="matrix(1.155105, 0, 0.000002, 1.052001, 138.61267, 0.000105)" xlink:href="#gradient-13"/>
    <linearGradient id="gradient-14-9" gradientUnits="userSpaceOnUse" x1="1620" y1="240" x2="1620" y2="360" gradientTransform="matrix(1.155105, 0, 0.000002, 1.052001, 0, 0)" xlink:href="#gradient-14"/>
    <linearGradient id="gradient-9-10" gradientUnits="userSpaceOnUse" x1="180" y1="120" x2="180" y2="240" gradientTransform="matrix(1.155105, 0, 0.000002, 1.052001, 0, 0)" xlink:href="#gradient-9"/>
    <linearGradient id="gradient-10-10" gradientUnits="userSpaceOnUse" x1="420" y1="240" x2="420" y2="360" gradientTransform="matrix(1.155105, 0, 0.000002, 1.052001, 0, 0)" xlink:href="#gradient-10"/>
    <linearGradient id="gradient-11-10" gradientUnits="userSpaceOnUse" x1="780" y1="120" x2="780" y2="240" gradientTransform="matrix(1.155105, 0, 0.000002, 1.052001, 0, 0)" xlink:href="#gradient-11"/>
    <linearGradient id="gradient-12-10" gradientUnits="userSpaceOnUse" x1="1020" y1="240" x2="1020" y2="360" gradientTransform="matrix(1.155105, 0, 0.000002, 1.052001, 0, 0)" xlink:href="#gradient-12"/>
    <linearGradient id="gradient-13-10" gradientUnits="userSpaceOnUse" x1="1260" y1="120" x2="1260" y2="240" gradientTransform="matrix(1.155105, 0, 0.000002, 1.052001, 138.61267, 0.000105)" xlink:href="#gradient-13"/>
    <linearGradient id="gradient-14-10" gradientUnits="userSpaceOnUse" x1="1620" y1="240" x2="1620" y2="360" gradientTransform="matrix(1.155105, 0, 0.000002, 1.052001, 0, 0)" xlink:href="#gradient-14"/>
    <linearGradient id="gradient-9-12" gradientUnits="userSpaceOnUse" x1="180" y1="120" x2="180" y2="240" gradientTransform="matrix(1.155105, 0, 0.000002, 1.052001, 0, 0)" xlink:href="#gradient-9"/>
    <linearGradient id="gradient-10-12" gradientUnits="userSpaceOnUse" x1="420" y1="240" x2="420" y2="360" gradientTransform="matrix(1.155105, 0, 0.000002, 1.052001, 0, 0)" xlink:href="#gradient-10"/>
    <linearGradient id="gradient-11-12" gradientUnits="userSpaceOnUse" x1="780" y1="120" x2="780" y2="240" gradientTransform="matrix(1.155105, 0, 0.000002, 1.052001, 0, 0)" xlink:href="#gradient-11"/>
    <linearGradient id="gradient-12-12" gradientUnits="userSpaceOnUse" x1="1020" y1="240" x2="1020" y2="360" gradientTransform="matrix(1.155105, 0, 0.000002, 1.052001, 0, 0)" xlink:href="#gradient-12"/>
    <linearGradient id="gradient-13-12" gradientUnits="userSpaceOnUse" x1="1260" y1="120" x2="1260" y2="240" gradientTransform="matrix(1.155105, 0, 0.000002, 1.052001, 138.61267, 0.000105)" xlink:href="#gradient-13"/>
    <linearGradient id="gradient-14-12" gradientUnits="userSpaceOnUse" x1="1620" y1="240" x2="1620" y2="360" gradientTransform="matrix(1.155105, 0, 0.000002, 1.052001, 0, 0)" xlink:href="#gradient-14"/>
    <linearGradient id="gradient-9-13" gradientUnits="userSpaceOnUse" x1="180" y1="120" x2="180" y2="240" gradientTransform="matrix(1.155105, 0, 0.000002, 1.052001, 0, 0)" xlink:href="#gradient-9"/>
    <linearGradient id="gradient-10-13" gradientUnits="userSpaceOnUse" x1="420" y1="240" x2="420" y2="360" gradientTransform="matrix(1.155105, 0, 0.000002, 1.052001, 0, 0)" xlink:href="#gradient-10"/>
    <linearGradient id="gradient-11-13" gradientUnits="userSpaceOnUse" x1="780" y1="120" x2="780" y2="240" gradientTransform="matrix(1.155105, 0, 0.000002, 1.052001, 0, 0)" xlink:href="#gradient-11"/>
    <linearGradient id="gradient-12-13" gradientUnits="userSpaceOnUse" x1="1020" y1="240" x2="1020" y2="360" gradientTransform="matrix(1.155105, 0, 0.000002, 1.052001, 0, 0)" xlink:href="#gradient-12"/>
    <linearGradient id="gradient-13-13" gradientUnits="userSpaceOnUse" x1="1260" y1="120" x2="1260" y2="240" gradientTransform="matrix(1.155105, 0, 0.000002, 1.052001, 138.61267, 0.000105)" xlink:href="#gradient-13"/>
    <linearGradient id="gradient-14-13" gradientUnits="userSpaceOnUse" x1="1620" y1="240" x2="1620" y2="360" gradientTransform="matrix(1.155105, 0, 0.000002, 1.052001, 0, 0)" xlink:href="#gradient-14"/>
    <linearGradient id="gradient-9-14" gradientUnits="userSpaceOnUse" x1="180" y1="120" x2="180" y2="240" gradientTransform="matrix(1.155105, 0, 0.000002, 1.052001, 0, 0)" xlink:href="#gradient-9"/>
    <linearGradient id="gradient-10-14" gradientUnits="userSpaceOnUse" x1="420" y1="240" x2="420" y2="360" gradientTransform="matrix(1.155105, 0, 0.000002, 1.052001, 0, 0)" xlink:href="#gradient-10"/>
    <linearGradient id="gradient-11-14" gradientUnits="userSpaceOnUse" x1="780" y1="120" x2="780" y2="240" gradientTransform="matrix(1.155105, 0, 0.000002, 1.052001, 0, 0)" xlink:href="#gradient-11"/>
    <linearGradient id="gradient-12-14" gradientUnits="userSpaceOnUse" x1="1020" y1="240" x2="1020" y2="360" gradientTransform="matrix(1.155105, 0, 0.000002, 1.052001, 0, 0)" xlink:href="#gradient-12"/>
    <linearGradient id="gradient-13-14" gradientUnits="userSpaceOnUse" x1="1260" y1="120" x2="1260" y2="240" gradientTransform="matrix(1.155105, 0, 0.000002, 1.052001, 138.61267, 0.000105)" xlink:href="#gradient-13"/>
    <linearGradient id="gradient-14-14" gradientUnits="userSpaceOnUse" x1="1620" y1="240" x2="1620" y2="360" gradientTransform="matrix(1.155105, 0, 0.000002, 1.052001, 0, 0)" xlink:href="#gradient-14"/>
    <linearGradient id="gradient-9-15" gradientUnits="userSpaceOnUse" x1="180" y1="120" x2="180" y2="240" gradientTransform="matrix(1.155105, 0, 0.000002, 1.052001, 0, 0)" xlink:href="#gradient-9"/>
    <linearGradient id="gradient-10-15" gradientUnits="userSpaceOnUse" x1="420" y1="240" x2="420" y2="360" gradientTransform="matrix(1.155105, 0, 0.000002, 1.052001, 0, 0)" xlink:href="#gradient-10"/>
    <linearGradient id="gradient-11-15" gradientUnits="userSpaceOnUse" x1="780" y1="120" x2="780" y2="240" gradientTransform="matrix(1.155105, 0, 0.000002, 1.052001, 0, 0)" xlink:href="#gradient-11"/>
    <linearGradient id="gradient-12-15" gradientUnits="userSpaceOnUse" x1="1020" y1="240" x2="1020" y2="360" gradientTransform="matrix(1.155105, 0, 0.000002, 1.052001, 0, 0)" xlink:href="#gradient-12"/>
    <linearGradient id="gradient-13-15" gradientUnits="userSpaceOnUse" x1="1260" y1="120" x2="1260" y2="240" gradientTransform="matrix(1.155105, 0, 0.000002, 1.052001, 138.61267, 0.000105)" xlink:href="#gradient-13"/>
    <linearGradient id="gradient-14-15" gradientUnits="userSpaceOnUse" x1="1620" y1="240" x2="1620" y2="360" gradientTransform="matrix(1.155105, 0, 0.000002, 1.052001, 0, 0)" xlink:href="#gradient-14"/>
    <linearGradient id="gradient-9-16" gradientUnits="userSpaceOnUse" x1="180" y1="120" x2="180" y2="240" gradientTransform="matrix(1.155105, 0, 0.000002, 1.052001, 0, 0)" xlink:href="#gradient-9"/>
    <linearGradient id="gradient-10-16" gradientUnits="userSpaceOnUse" x1="420" y1="240" x2="420" y2="360" gradientTransform="matrix(1.155105, 0, 0.000002, 1.052001, 0, 0)" xlink:href="#gradient-10"/>
    <linearGradient id="gradient-11-16" gradientUnits="userSpaceOnUse" x1="780" y1="120" x2="780" y2="240" gradientTransform="matrix(1.155105, 0, 0.000002, 1.052001, 0, 0)" xlink:href="#gradient-11"/>
    <linearGradient id="gradient-12-16" gradientUnits="userSpaceOnUse" x1="1020" y1="240" x2="1020" y2="360" gradientTransform="matrix(1.155105, 0, 0.000002, 1.052001, 0, 0)" xlink:href="#gradient-12"/>
    <linearGradient id="gradient-13-16" gradientUnits="userSpaceOnUse" x1="1260" y1="120" x2="1260" y2="240" gradientTransform="matrix(1.155105, 0, 0.000002, 1.052001, 138.61267, 0.000105)" xlink:href="#gradient-13"/>
    <linearGradient id="gradient-14-16" gradientUnits="userSpaceOnUse" x1="1620" y1="240" x2="1620" y2="360" gradientTransform="matrix(1.155105, 0, 0.000002, 1.052001, 0, 0)" xlink:href="#gradient-14"/>
    <linearGradient id="gradient-9-17" gradientUnits="userSpaceOnUse" x1="180" y1="120" x2="180" y2="240" gradientTransform="matrix(1.155105, 0, 0.000002, 1.052001, 0, 0)" xlink:href="#gradient-9"/>
    <linearGradient id="gradient-10-17" gradientUnits="userSpaceOnUse" x1="420" y1="240" x2="420" y2="360" gradientTransform="matrix(1.155105, 0, 0.000002, 1.052001, 0, 0)" xlink:href="#gradient-10"/>
    <linearGradient id="gradient-11-17" gradientUnits="userSpaceOnUse" x1="780" y1="120" x2="780" y2="240" gradientTransform="matrix(1.155105, 0, 0.000002, 1.052001, 0, 0)" xlink:href="#gradient-11"/>
    <linearGradient id="gradient-12-17" gradientUnits="userSpaceOnUse" x1="1020" y1="240" x2="1020" y2="360" gradientTransform="matrix(1.155105, 0, 0.000002, 1.052001, 0, 0)" xlink:href="#gradient-12"/>
    <linearGradient id="gradient-13-17" gradientUnits="userSpaceOnUse" x1="1260" y1="120" x2="1260" y2="240" gradientTransform="matrix(1.155105, 0, 0.000002, 1.052001, 138.61267, 0.000105)" xlink:href="#gradient-13"/>
    <linearGradient id="gradient-14-17" gradientUnits="userSpaceOnUse" x1="1620" y1="240" x2="1620" y2="360" gradientTransform="matrix(1.155105, 0, 0.000002, 1.052001, 0, 0)" xlink:href="#gradient-14"/>
    <linearGradient id="gradient-9-18" gradientUnits="userSpaceOnUse" x1="180" y1="120" x2="180" y2="240" gradientTransform="matrix(1.155105, 0, 0.000002, 1.052001, 0, 0)" xlink:href="#gradient-9"/>
    <linearGradient id="gradient-10-18" gradientUnits="userSpaceOnUse" x1="420" y1="240" x2="420" y2="360" gradientTransform="matrix(1.155105, 0, 0.000002, 1.052001, 0, 0)" xlink:href="#gradient-10"/>
    <linearGradient id="gradient-11-18" gradientUnits="userSpaceOnUse" x1="780" y1="120" x2="780" y2="240" gradientTransform="matrix(1.155105, 0, 0.000002, 1.052001, 0, 0)" xlink:href="#gradient-11"/>
    <linearGradient id="gradient-12-18" gradientUnits="userSpaceOnUse" x1="1020" y1="240" x2="1020" y2="360" gradientTransform="matrix(1.155105, 0, 0.000002, 1.052001, 0, 0)" xlink:href="#gradient-12"/>
    <linearGradient id="gradient-13-18" gradientUnits="userSpaceOnUse" x1="1260" y1="120" x2="1260" y2="240" gradientTransform="matrix(1.155105, 0, 0.000002, 1.052001, 138.61267, 0.000105)" xlink:href="#gradient-13"/>
    <linearGradient id="gradient-14-18" gradientUnits="userSpaceOnUse" x1="1620" y1="240" x2="1620" y2="360" gradientTransform="matrix(1.155105, 0, 0.000002, 1.052001, 0, 0)" xlink:href="#gradient-14"/>
    <linearGradient id="gradient-9-19" gradientUnits="userSpaceOnUse" x1="180" y1="120" x2="180" y2="240" gradientTransform="matrix(1.155105, 0, 0.000002, 1.052001, 0, 0)" xlink:href="#gradient-9"/>
    <linearGradient id="gradient-10-19" gradientUnits="userSpaceOnUse" x1="420" y1="240" x2="420" y2="360" gradientTransform="matrix(1.155105, 0, 0.000002, 1.052001, 0, 0)" xlink:href="#gradient-10"/>
    <linearGradient id="gradient-11-19" gradientUnits="userSpaceOnUse" x1="780" y1="120" x2="780" y2="240" gradientTransform="matrix(1.155105, 0, 0.000002, 1.052001, 0, 0)" xlink:href="#gradient-11"/>
    <linearGradient id="gradient-12-19" gradientUnits="userSpaceOnUse" x1="1020" y1="240" x2="1020" y2="360" gradientTransform="matrix(1.155105, 0, 0.000002, 1.052001, 0, 0)" xlink:href="#gradient-12"/>
    <linearGradient id="gradient-13-19" gradientUnits="userSpaceOnUse" x1="1260" y1="120" x2="1260" y2="240" gradientTransform="matrix(1.155105, 0, 0.000002, 1.052001, 138.61267, 0.000105)" xlink:href="#gradient-13"/>
    <linearGradient id="gradient-14-19" gradientUnits="userSpaceOnUse" x1="1620" y1="240" x2="1620" y2="360" gradientTransform="matrix(1.155105, 0, 0.000002, 1.052001, 0, 0)" xlink:href="#gradient-14"/>
    <linearGradient id="gradient-10-0" gradientUnits="userSpaceOnUse" x1="286.412" y1="239.999" x2="286.412" y2="855.852" xlink:href="#gradient-10"/>
    <linearGradient id="gradient-11-0" gradientUnits="userSpaceOnUse" x1="569.617" y1="287.312" x2="569.617" y2="903.164" gradientTransform="matrix(1, 0, 0, 1, -4.671209, 37.369671)" xlink:href="#gradient-11"/>
    <linearGradient id="gradient-9-0" gradientUnits="userSpaceOnUse" x1="839.273" y1="240.001" x2="839.273" y2="855.853" gradientTransform="matrix(1, 0, 0, 1, 0, 125.081757)" xlink:href="#gradient-9"/>
    <linearGradient id="gradient-14-0" gradientUnits="userSpaceOnUse" x1="1166.383" y1="239.999" x2="1166.383" y2="855.852" gradientTransform="matrix(1, 0, 0, 1, -28.027252, -69.725716)" xlink:href="#gradient-14"/>
    <linearGradient id="gradient-12-0" gradientUnits="userSpaceOnUse" x1="1409.617" y1="224.148" x2="1409.617" y2="840" gradientTransform="matrix(1, 0, 0, 1, -14.013626, -74.739338)" xlink:href="#gradient-12"/>
    <linearGradient id="gradient-13-0" gradientUnits="userSpaceOnUse" x1="1646.393" y1="224.148" x2="1646.393" y2="840" gradientTransform="matrix(1, 0, 0, 1, -9.342418, -42.040878)" xlink:href="#gradient-13"/>
  </defs>
  <line style="fill: rgb(216, 216, 216); stroke: rgb(30, 144, 255); stroke-width: 5px;" x1="-2.415" y1="348.838" x2="1926.296" y2="348.838" transform="matrix(1, 0, 0, 1, 5.684341886080802e-14, 1.1368683772161603e-13)"/>
  <line style="fill: rgb(216, 216, 216); stroke: rgb(30, 144, 255); stroke-width: 5px;" x1="-4.797" y1="731.081" x2="1923.914" y2="731.081" transform="matrix(1, 0, 0, 1, 5.684341886080802e-14, 1.1368683772161603e-13)"/>
  <path d="M 302.78 535.3 L 400.06 535.3 Q 422.08 535.3 430.27 549.89 Q 438.46 564.48 438.46 603.4 L 438.46 611.59 L 410.82 611.59 L 410.82 614.66 Q 419.52 620.29 424.13 631.04 Q 428.74 641.8 428.74 655.11 Q 428.74 670.47 422.59 682.5 Q 416.45 694.53 405.7 704.77 Q 389.82 719.11 362.18 728.32 Q 334.53 737.54 299.71 737.54 Q 217.79 737.54 176.58 694.53 Q 135.36 651.52 135.36 578.82 L 135.36 573.19 Q 135.36 519.43 149.18 479.24 Q 163.01 439.04 186.56 412.16 Q 210.11 385.28 240.83 371.97 Q 271.55 358.66 305.34 358.66 Q 360.64 358.66 393.92 390.92 Q 409.79 406.28 417.98 426.5 Q 426.18 446.72 426.18 472.32 L 426.18 501 Q 414.91 503.56 403.14 505.09 Q 391.36 506.63 378.05 506.63 Q 351.94 507.14 337.86 499.2 Q 323.78 491.27 323.78 475.4 Q 323.78 469.25 324.54 463.36 Q 325.31 457.48 326.85 449.28 Q 320.7 447.24 311.49 447.24 Q 280.26 447.24 260.8 474.88 Q 241.34 502.53 241.34 565.51 L 241.34 571.65 Q 241.34 583.94 242.11 596.48 Q 242.88 609.03 243.9 619.27 Q 251.07 634.12 265.41 640.52 Q 279.74 646.92 304.32 646.92 Q 331.46 646.92 345.79 636.68 Q 360.13 626.44 360.13 611.08 Q 327.36 608 313.79 595.2 Q 300.22 582.4 300.22 556.8 Q 300.22 551.17 300.74 545.54 Q 301.25 539.91 302.78 535.3 Z" style="fill: url('#gradient-10-0');"/>
  <path d="M 524.48 752.08 L 524.48 631.76 L 521.41 631.76 Q 517.83 636.37 511.17 636.37 Q 501.44 636.37 494.53 619.47 Q 487.62 602.57 487.62 573.9 Q 487.62 547.28 492.74 529.87 Q 501.44 528.33 512.45 527.57 Q 523.46 526.8 532.16 526.8 Q 569.54 526.8 589.76 532.17 Q 609.99 537.55 617.92 547.28 Q 625.86 557.01 625.86 570.32 L 625.86 728.53 Q 625.86 752.59 627.65 772.81 Q 629.44 793.04 635.07 811.98 Q 623.81 814.03 613.57 815.31 Q 603.33 816.59 590.02 816.59 Q 554.18 816.59 539.33 801.23 Q 524.48 785.87 524.48 752.08 Z M 504 416.72 Q 532.16 410.06 561.35 410.06 Q 591.55 410.06 611.78 418.51 Q 632 426.96 632 449.49 L 632 488.4 Q 619.2 493.01 604.61 495.31 Q 590.02 497.61 576.71 497.61 Q 545.47 497.61 524.74 487.63 Q 504 477.65 504 455.63 Z" style="fill: url('#gradient-11-0');"/>
  <path d="M 744.03 810.91 Q 744.03 794.53 754.01 783.52 Q 764 772.51 782.94 768.93 L 782.94 765.85 Q 741.98 757.66 720.73 733.85 Q 699.48 710.05 699.48 671.65 L 699.48 668.06 Q 699.48 619.42 737.88 591.52 Q 776.28 563.61 846.94 563.61 Q 883.8 563.61 916.06 565.66 Q 948.32 567.71 973.92 571.81 Q 977.5 585.63 977.5 605.09 Q 977.5 651.17 951.9 651.17 Q 944.73 651.17 934.75 649.63 Q 924.76 648.09 910.43 646.56 L 910.43 650.14 Q 926.81 656.8 935.77 668.06 Q 944.73 679.33 944.73 693.66 L 944.73 697.76 Q 944.73 732.06 914.52 751.26 Q 884.32 770.46 833.12 770.46 Q 830.56 770.46 828.51 770.46 Q 825.95 776.09 825.95 782.75 Q 825.95 792.48 846.43 794.01 L 897.63 797.6 Q 938.59 800.16 959.58 815.77 Q 980.57 831.39 980.57 861.6 L 980.57 867.23 Q 980.57 913.31 935.26 938.4 Q 889.95 963.49 810.59 963.49 L 804.96 963.49 Q 752.22 963.49 721.76 947.1 Q 691.29 930.72 691.29 902.56 L 691.29 895.9 Q 691.29 849.31 756.83 845.21 L 756.83 842.14 Q 744.03 828.83 744.03 810.91 Z M 795.23 695.71 Q 801.88 697.76 808.03 698.78 Q 814.17 699.81 823.9 699.81 Q 862.3 699.81 862.3 671.13 L 862.3 667.04 Q 862.3 660.38 860.76 653.98 Q 859.23 647.58 856.16 642.46 Q 846.94 641.95 837.21 641.95 Q 812.64 641.95 801.88 649.37 Q 791.13 656.8 791.13 674.72 L 791.13 678.3 Q 791.13 687.01 795.23 695.71 Z M 820.83 904.61 L 827.48 904.61 Q 842.33 904.61 855.13 903.58 Q 867.93 902.56 878.17 900.51 Q 883.29 895.39 883.29 886.69 L 883.29 881.57 Q 883.29 872.35 870.49 871.33 L 817.76 867.23 Q 804.44 866.21 792.67 863.13 Q 788.57 868.77 788.57 877.98 L 788.57 883.61 Q 788.57 894.88 796.25 899.74 Q 803.93 904.61 820.83 904.61 Z" style="fill: url('#gradient-9-0');"/>
  <path d="M 1043.11 616.1 Q 1043.11 599.72 1053.09 588.71 Q 1063.08 577.7 1082.02 574.12 L 1082.02 571.05 Q 1041.06 562.85 1019.81 539.05 Q 998.57 515.24 998.57 476.84 L 998.57 473.25 Q 998.57 424.61 1036.97 396.71 Q 1075.37 368.81 1146.02 368.81 Q 1182.89 368.81 1215.14 370.85 Q 1247.4 372.9 1273 377 Q 1276.58 390.82 1276.58 410.28 Q 1276.58 456.36 1250.98 456.36 Q 1243.81 456.36 1233.83 454.82 Q 1223.85 453.29 1209.51 451.75 L 1209.51 455.33 Q 1225.89 461.99 1234.85 473.25 Q 1243.81 484.52 1243.81 498.85 L 1243.81 502.95 Q 1243.81 537.25 1213.61 556.45 Q 1183.4 575.65 1132.2 575.65 Q 1129.64 575.65 1127.59 575.65 Q 1125.03 581.29 1125.03 587.94 Q 1125.03 597.67 1145.51 599.21 L 1196.71 602.79 Q 1237.67 605.35 1258.66 620.97 Q 1279.65 636.58 1279.65 666.79 L 1279.65 672.42 Q 1279.65 718.5 1234.34 743.59 Q 1189.03 768.68 1109.67 768.68 L 1104.04 768.68 Q 1051.3 768.68 1020.84 752.29 Q 990.37 735.91 990.37 707.75 L 990.37 701.09 Q 990.37 654.5 1055.91 650.41 L 1055.91 647.33 Q 1043.11 634.02 1043.11 616.1 Z M 1094.31 500.9 Q 1100.97 502.95 1107.11 503.97 Q 1113.25 505 1122.98 505 Q 1161.38 505 1161.38 476.33 L 1161.38 472.23 Q 1161.38 465.57 1159.85 459.17 Q 1158.31 452.77 1155.24 447.65 Q 1146.02 447.14 1136.29 447.14 Q 1111.72 447.14 1100.97 454.57 Q 1090.21 461.99 1090.21 479.91 L 1090.21 483.49 Q 1090.21 492.2 1094.31 500.9 Z M 1119.91 709.8 L 1126.57 709.8 Q 1141.41 709.8 1154.21 708.77 Q 1167.01 707.75 1177.25 705.7 Q 1182.37 700.58 1182.37 691.88 L 1182.37 686.76 Q 1182.37 677.54 1169.57 676.52 L 1116.84 672.42 Q 1103.53 671.4 1091.75 668.33 Q 1087.65 673.96 1087.65 683.17 L 1087.65 688.81 Q 1087.65 700.07 1095.33 704.93 Q 1103.01 709.8 1119.91 709.8 Z" style="fill: url('#gradient-14-0');"/>
  <path d="M 1325.45 317.22 Q 1325.45 298.28 1323.91 281.89 Q 1322.37 265.51 1318.79 252.71 Q 1338.76 248.1 1362.31 248.1 Q 1396.61 248.1 1412.23 262.95 Q 1427.85 277.8 1427.85 309.54 L 1427.85 502.56 Q 1427.85 512.8 1428.1 522.28 Q 1428.36 531.75 1428.87 540.45 Q 1431.94 541.99 1435.53 542.5 Q 1439.11 543.01 1442.69 543.01 Q 1449.86 543.01 1454.98 541.48 Q 1460.1 539.94 1465.73 536.36 L 1468.81 536.36 Q 1470.85 545.06 1471.37 551.97 Q 1471.88 558.88 1471.88 572.2 Q 1471.88 589.6 1468.81 604.71 Q 1465.73 619.81 1457.03 628.52 Q 1449.35 636.2 1438.34 639.27 Q 1427.33 642.34 1407.37 642.34 Q 1386.89 642.34 1367.94 630.31 Q 1349 618.28 1337.22 598.82 Q 1325.45 579.36 1325.45 557.35 Z" style="fill: url('#gradient-12-0');"/>
  <path d="M 1654.96 382.17 Q 1688.75 382.17 1715.38 397.02 Q 1742 411.87 1757.1 437.98 Q 1772.21 464.09 1772.21 498.4 L 1772.21 499.93 Q 1772.21 524 1769.14 535.26 Q 1766.06 546.53 1761.46 549.6 Q 1756.85 552.67 1751.73 552.67 L 1653.42 552.67 Q 1635.5 552.67 1622.45 548.06 Q 1609.39 543.45 1602.22 536.8 L 1600.18 537.82 L 1600.18 546.53 Q 1600.18 557.79 1601.46 568.03 Q 1602.74 578.27 1605.81 587.49 Q 1625.78 594.14 1653.94 594.14 Q 1684.66 594.14 1708.46 589.79 Q 1732.27 585.44 1757.36 573.15 L 1760.43 573.15 Q 1762.48 581.34 1763.5 588.51 Q 1764.53 595.68 1764.53 603.36 Q 1764.53 621.28 1758.9 634.08 Q 1753.26 646.88 1742.51 656.09 Q 1729.71 666.85 1708.21 671.97 Q 1686.7 677.09 1652.91 677.09 Q 1605.3 677.09 1571.76 659.93 Q 1538.22 642.78 1520.3 611.55 Q 1502.38 580.32 1502.38 538.85 L 1502.38 534.75 Q 1502.38 490.72 1521.84 456.41 Q 1541.3 422.11 1575.86 402.14 Q 1610.42 382.17 1654.96 382.17 Z M 1651.89 464.61 Q 1611.44 464.61 1602.22 508.13 L 1678.51 508.13 Q 1680.05 503.52 1680.05 495.84 Q 1680.05 488.16 1678.51 480.48 Q 1676.98 472.8 1672.88 467.17 Q 1664.69 464.61 1651.89 464.61 Z" style="fill: url('#gradient-13-0');"/>
</svg>