<?xml version="1.0" encoding="utf-8"?>
<svg viewBox="0 0 1920 1080" xmlns="http://www.w3.org/2000/svg">
  <ellipse style="fill: rgb(216, 216, 216);" cx="960.696" cy="900" rx="60" ry="60" id="slot-6" class="slot"/>
  <ellipse style="fill: rgb(216, 216, 216);" cx="1080.697" cy="780" rx="60" ry="60" id="slot-5" class="slot"/>
  <ellipse style="fill: rgb(216, 216, 216);" cx="1200.697" cy="660" rx="60" ry="60" id="slot-4" class="slot"/>
  <ellipse style="fill: rgb(216, 216, 216);" cx="1320.697" cy="540" rx="60" ry="60" id="slot-3" class="slot"/>
  <ellipse style="fill: rgb(216, 216, 216);" cx="-840.481" cy="-779.785" rx="60.215" ry="60.215" transform="matrix(-1, 0, 0, -1, 0, 0)" id="slot-7" class="slot"/>
  <ellipse style="fill: rgb(216, 216, 216);" cx="-720.051" cy="-659.356" rx="60.215" ry="60.215" transform="matrix(-1, 0, 0, -1, 0, 0)" id="slot-8" class="slot"/>
  <ellipse style="fill: rgb(216, 216, 216);" cx="-599.622" cy="-538.927" rx="60.215" ry="60.215" transform="matrix(-1, 0, 0, -1, 0, 0)" id="slot-9" class="slot"/>
  <ellipse style="fill: rgb(216, 216, 216);" cx="899.998" cy="541.288" rx="60" ry="60" id="ellipse-1" class="slot"/>
  <ellipse style="fill: rgb(216, 216, 216);" cx="1020" cy="421.288" rx="60" ry="60" id="ellipse-2" class="slot"/>
  <ellipse style="fill: rgb(216, 216, 216);" cx="1140" cy="301.288" rx="60" ry="60" id="ellipse-3" class="slot"/>
  <ellipse style="fill: rgb(216, 216, 216);" cx="1260" cy="181.288" rx="60" ry="60" id="ellipse-4" class="slot"/>
  <ellipse style="fill: rgb(216, 216, 216);" cx="-779.784" cy="-421.073" rx="60.215" ry="60.215" transform="matrix(-1, 0, 0, -1, 0, 0)" id="ellipse-5" class="slot"/>
  <ellipse style="fill: rgb(216, 216, 216);" cx="-659.354" cy="-300.644" rx="60.215" ry="60.215" transform="matrix(-1, 0, 0, -1, 0, 0)" id="ellipse-6" class="slot"/>
  <ellipse style="fill: rgb(216, 216, 216);" cx="-538.924" cy="-180.215" rx="60.215" ry="60.215" transform="matrix(-1, 0, 0, -1, 0, 0)" id="ellipse-7" class="slot"/>
  <ellipse style="fill: rgb(216, 216, 216);" cx="1021.288" cy="540" rx="60" ry="60" id="ellipse-8" class="slot"/>
  <ellipse style="fill: rgb(216, 216, 216);" cx="1141.29" cy="420" rx="60" ry="60" id="ellipse-9" class="slot"/>
  <ellipse style="fill: rgb(216, 216, 216);" cx="1261.29" cy="300" rx="60" ry="60" id="ellipse-10" class="slot"/>
  <ellipse style="fill: rgb(216, 216, 216);" cx="1381.29" cy="180" rx="60" ry="60" id="ellipse-11" class="slot"/>
  <ellipse style="fill: rgb(216, 216, 216);" cx="-901.074" cy="-419.785" rx="60.215" ry="60.215" transform="matrix(-1, 0, 0, -1, 0, 0)" id="ellipse-12" class="slot"/>
  <ellipse style="fill: rgb(216, 216, 216);" cx="-780.644" cy="-299.356" rx="60.215" ry="60.215" transform="matrix(-1, 0, 0, -1, 0, 0)" id="ellipse-13" class="slot"/>
  <ellipse style="fill: rgb(216, 216, 216);" cx="-660.215" cy="-178.927" rx="60.215" ry="60.215" transform="matrix(-1, 0, 0, -1, 0, 0)" id="ellipse-14" class="slot"/>
</svg>