<?xml version="1.0" encoding="utf-8"?>
<svg viewBox="0 0 1920 1080" xmlns="http://www.w3.org/2000/svg">
  <ellipse style="fill: rgb(216, 216, 216);" cx="960.696" cy="180" rx="60" ry="60" class="slot" id="slot-0" transform="matrix(1, 0, 0, 1, 0, 1.4210854715202004e-14)"/>
  <ellipse style="fill: rgb(216, 216, 216);" cx="960.696" cy="900" rx="60" ry="60" id="slot-6" class="slot" transform="matrix(1, 0, 0, 1, 0, 1.4210854715202004e-14)"/>
  <ellipse style="fill: rgb(216, 216, 216);" cx="1080.697" cy="780" rx="60" ry="60" id="slot-5" class="slot" transform="matrix(1, 0, 0, 1, 0, 1.4210854715202004e-14)"/>
  <ellipse style="fill: rgb(216, 216, 216);" cx="1200.697" cy="660" rx="60" ry="60" id="slot-4" class="slot" transform="matrix(1, 0, 0, 1, 0, 1.4210854715202004e-14)"/>
  <ellipse style="fill: rgb(216, 216, 216);" cx="1080.697" cy="300" rx="60" ry="60" class="slot" id="slot-1" transform="matrix(1, 0, 0, 1, 0, 1.4210854715202004e-14)"/>
  <ellipse style="fill: rgb(216, 216, 216);" cx="1200.697" cy="420" rx="60" ry="60" class="slot" id="slot-2" transform="matrix(1, 0, 0, 1, 0, 1.4210854715202004e-14)"/>
  <ellipse style="fill: rgb(216, 216, 216);" cx="1320.697" cy="540" rx="60" ry="60" id="slot-3" class="slot" transform="matrix(1, 0, 0, 1, 0, 1.4210854715202004e-14)"/>
</svg>