<?xml version="1.0" encoding="utf-8"?>
<svg viewBox="0 0 1920 1080" xmlns="http://www.w3.org/2000/svg">
  <ellipse style="fill: rgb(216, 216, 216);" cx="960.696" cy="180" rx="60" ry="60" class="slot" id="slot-0"/>
  <ellipse style="fill: rgb(216, 216, 216);" cx="960.696" cy="900" rx="60" ry="60" id="slot-6" class="slot"/>
  <ellipse style="fill: rgb(216, 216, 216);" cx="1080.697" cy="780" rx="60" ry="60" id="slot-5" class="slot"/>
  <ellipse style="fill: rgb(216, 216, 216);" cx="1200.697" cy="660" rx="60" ry="60" id="slot-4" class="slot"/>
  <ellipse style="fill: rgb(216, 216, 216);" cx="1080.697" cy="300" rx="60" ry="60" class="slot" id="slot-1"/>
  <ellipse style="fill: rgb(216, 216, 216);" cx="1200.697" cy="420" rx="60" ry="60" class="slot" id="slot-2"/>
  <ellipse style="fill: rgb(216, 216, 216);" cx="1320.697" cy="540" rx="60" ry="60" id="slot-3" class="slot"/>
  <ellipse style="fill: rgb(216, 216, 216);" cx="540" cy="119.963" rx="60" ry="60" class="slot" id="ellipse-1"/>
  <ellipse style="fill: rgb(216, 216, 216);" cx="540" cy="839.963" rx="60" ry="60" id="ellipse-2" class="slot"/>
  <ellipse style="fill: rgb(216, 216, 216);" cx="660.001" cy="719.963" rx="60" ry="60" id="ellipse-3" class="slot"/>
  <ellipse style="fill: rgb(216, 216, 216);" cx="780.001" cy="599.963" rx="60" ry="60" id="ellipse-4" class="slot"/>
  <ellipse style="fill: rgb(216, 216, 216);" cx="660.001" cy="239.963" rx="60" ry="60" class="slot" id="ellipse-5"/>
  <ellipse style="fill: rgb(216, 216, 216);" cx="780.001" cy="359.963" rx="60" ry="60" class="slot" id="ellipse-6"/>
  <ellipse style="fill: rgb(216, 216, 216);" cx="900.001" cy="479.963" rx="60" ry="60" id="ellipse-7" class="slot"/>
  <ellipse style="fill: rgb(216, 216, 216);" cx="540" cy="240.037" rx="60" ry="60" class="slot" id="ellipse-8"/>
  <ellipse style="fill: rgb(216, 216, 216);" cx="540" cy="960.037" rx="60" ry="60" id="ellipse-9" class="slot"/>
  <ellipse style="fill: rgb(216, 216, 216);" cx="660.001" cy="840.037" rx="60" ry="60" id="ellipse-10" class="slot"/>
  <ellipse style="fill: rgb(216, 216, 216);" cx="780.001" cy="720.037" rx="60" ry="60" id="ellipse-11" class="slot"/>
  <ellipse style="fill: rgb(216, 216, 216);" cx="660.001" cy="360.037" rx="60" ry="60" class="slot" id="ellipse-12"/>
  <ellipse style="fill: rgb(216, 216, 216);" cx="780.001" cy="480.037" rx="60" ry="60" class="slot" id="ellipse-13"/>
  <ellipse style="fill: rgb(216, 216, 216);" cx="900.001" cy="600.037" rx="60" ry="60" id="ellipse-14" class="slot"/>
</svg>