<?xml version="1.0" encoding="utf-8"?>
<svg viewBox="0 0 1920 1080" xmlns="http://www.w3.org/2000/svg" xmlns:xlink="http://www.w3.org/1999/xlink">
  <defs>
    <clipPath id="clip-0">
      <ellipse style="fill: rgb(255, 255, 255);" cx="965.953" cy="575.501" rx="282.433" ry="872.733" transform="matrix(0.763344, 0.645993, -1.082892, 0.39361, 856.974879, -258.203046)"/>
    </clipPath>
    <mask id="mask-0">
      <ellipse style="stroke: rgb(0, 0, 0); fill: url('#gradient-2');" cx="956.914" cy="868.974" rx="419.058" ry="1365.971" transform="matrix(0.763344, 0.645992, -1.082893, 0.39361, 761.265051, -186.685891)"/>
    </mask>
    <radialGradient gradientUnits="userSpaceOnUse" cx="952.305" cy="543.357" r="952.417" id="gradient-2" gradientTransform="matrix(0.439994, 0, -0.000001, 2.566218, 537.905464, -525.399344)">
      <stop offset="0" style="stop-color: rgba(216, 216, 216, 0);"/>
      <stop offset="1" style=""/>
    </radialGradient>
    <linearGradient id="gradient-9-11" gradientUnits="userSpaceOnUse" x1="180" y1="120" x2="180" y2="240" gradientTransform="matrix(1.155105, 0, 0.000002, 1.052001, 0, 0)" xlink:href="#gradient-9"/>
    <linearGradient id="gradient-9">
      <stop offset="0" style="stop-color: rgb(255, 98, 96);"/>
      <stop offset="1" style="stop-color: rgb(80, 36, 0);"/>
    </linearGradient>
    <linearGradient id="gradient-10-11" gradientUnits="userSpaceOnUse" x1="420" y1="240" x2="420" y2="360" gradientTransform="matrix(1.155105, 0, 0.000002, 1.052001, 0, 0)" xlink:href="#gradient-10"/>
    <linearGradient id="gradient-10">
      <stop offset="0" style="stop-color: rgb(246, 121, 0);"/>
      <stop offset="1" style="stop-color: rgb(57, 48, 0);"/>
    </linearGradient>
    <linearGradient id="gradient-11-11" gradientUnits="userSpaceOnUse" x1="780" y1="120" x2="780" y2="240" gradientTransform="matrix(1.155105, 0, 0.000002, 1.052001, 0, 0)" xlink:href="#gradient-11"/>
    <linearGradient id="gradient-11">
      <stop offset="0" style="stop-color: rgb(228, 196, 0);"/>
      <stop offset="1" style="stop-color: rgb(30, 55, 0);"/>
    </linearGradient>
    <linearGradient id="gradient-12-11" gradientUnits="userSpaceOnUse" x1="1020" y1="240" x2="1020" y2="360" gradientTransform="matrix(1.155105, 0, 0.000002, 1.052001, 0, 0)" xlink:href="#gradient-12"/>
    <linearGradient id="gradient-12">
      <stop offset="0" style="stop-color: rgb(104, 176, 0);"/>
      <stop offset="1" style="stop-color: rgb(0, 58, 21);"/>
    </linearGradient>
    <linearGradient id="gradient-13-11" gradientUnits="userSpaceOnUse" x1="1260" y1="120" x2="1260" y2="240" gradientTransform="matrix(1.155105, 0, 0.000002, 1.052001, 138.61267, 0.000105)" xlink:href="#gradient-13"/>
    <linearGradient id="gradient-13">
      <stop offset="0" style="stop-color: rgb(65, 162, 255);"/>
      <stop offset="1" style="stop-color: rgb(0, 54, 78);"/>
    </linearGradient>
    <linearGradient id="gradient-14-11" gradientUnits="userSpaceOnUse" x1="1620" y1="240" x2="1620" y2="360" gradientTransform="matrix(1.155105, 0, 0.000002, 1.052001, 0, 0)" xlink:href="#gradient-14"/>
    <linearGradient id="gradient-14">
      <stop offset="0" style="stop-color: rgb(172, 137, 255);"/>
      <stop offset="1" style="stop-color: rgb(0, 50, 102);"/>
    </linearGradient>
    <linearGradient id="gradient-9-1" gradientUnits="userSpaceOnUse" x1="180" y1="120" x2="180" y2="240" gradientTransform="matrix(1.155105, 0, 0.000002, 1.052001, 0, 0)" xlink:href="#gradient-9"/>
    <linearGradient id="gradient-10-1" gradientUnits="userSpaceOnUse" x1="420" y1="240" x2="420" y2="360" gradientTransform="matrix(1.155105, 0, 0.000002, 1.052001, 0, 0)" xlink:href="#gradient-10"/>
    <linearGradient id="gradient-11-1" gradientUnits="userSpaceOnUse" x1="780" y1="120" x2="780" y2="240" gradientTransform="matrix(1.155105, 0, 0.000002, 1.052001, 0, 0)" xlink:href="#gradient-11"/>
    <linearGradient id="gradient-12-1" gradientUnits="userSpaceOnUse" x1="1020" y1="240" x2="1020" y2="360" gradientTransform="matrix(1.155105, 0, 0.000002, 1.052001, 0, 0)" xlink:href="#gradient-12"/>
    <linearGradient id="gradient-13-1" gradientUnits="userSpaceOnUse" x1="1260" y1="120" x2="1260" y2="240" gradientTransform="matrix(1.155105, 0, 0.000002, 1.052001, 138.61267, 0.000105)" xlink:href="#gradient-13"/>
    <linearGradient id="gradient-14-1" gradientUnits="userSpaceOnUse" x1="1620" y1="240" x2="1620" y2="360" gradientTransform="matrix(1.155105, 0, 0.000002, 1.052001, 0, 0)" xlink:href="#gradient-14"/>
    <linearGradient id="gradient-9-2" gradientUnits="userSpaceOnUse" x1="180" y1="120" x2="180" y2="240" gradientTransform="matrix(1.155105, 0, 0.000002, 1.052001, 0, 0)" xlink:href="#gradient-9"/>
    <linearGradient id="gradient-10-2" gradientUnits="userSpaceOnUse" x1="420" y1="240" x2="420" y2="360" gradientTransform="matrix(1.155105, 0, 0.000002, 1.052001, 0, 0)" xlink:href="#gradient-10"/>
    <linearGradient id="gradient-11-2" gradientUnits="userSpaceOnUse" x1="780" y1="120" x2="780" y2="240" gradientTransform="matrix(1.155105, 0, 0.000002, 1.052001, 0, 0)" xlink:href="#gradient-11"/>
    <linearGradient id="gradient-12-2" gradientUnits="userSpaceOnUse" x1="1020" y1="240" x2="1020" y2="360" gradientTransform="matrix(1.155105, 0, 0.000002, 1.052001, 0, 0)" xlink:href="#gradient-12"/>
    <linearGradient id="gradient-13-2" gradientUnits="userSpaceOnUse" x1="1260" y1="120" x2="1260" y2="240" gradientTransform="matrix(1.155105, 0, 0.000002, 1.052001, 138.61267, 0.000105)" xlink:href="#gradient-13"/>
    <linearGradient id="gradient-14-2" gradientUnits="userSpaceOnUse" x1="1620" y1="240" x2="1620" y2="360" gradientTransform="matrix(1.155105, 0, 0.000002, 1.052001, 0, 0)" xlink:href="#gradient-14"/>
    <linearGradient id="gradient-9-3" gradientUnits="userSpaceOnUse" x1="180" y1="120" x2="180" y2="240" gradientTransform="matrix(1.155105, 0, 0.000002, 1.052001, 0, 0)" xlink:href="#gradient-9"/>
    <linearGradient id="gradient-10-3" gradientUnits="userSpaceOnUse" x1="420" y1="240" x2="420" y2="360" gradientTransform="matrix(1.155105, 0, 0.000002, 1.052001, 0, 0)" xlink:href="#gradient-10"/>
    <linearGradient id="gradient-11-3" gradientUnits="userSpaceOnUse" x1="780" y1="120" x2="780" y2="240" gradientTransform="matrix(1.155105, 0, 0.000002, 1.052001, 0, 0)" xlink:href="#gradient-11"/>
    <linearGradient id="gradient-12-3" gradientUnits="userSpaceOnUse" x1="1020" y1="240" x2="1020" y2="360" gradientTransform="matrix(1.155105, 0, 0.000002, 1.052001, 0, 0)" xlink:href="#gradient-12"/>
    <linearGradient id="gradient-13-3" gradientUnits="userSpaceOnUse" x1="1260" y1="120" x2="1260" y2="240" gradientTransform="matrix(1.155105, 0, 0.000002, 1.052001, 138.61267, 0.000105)" xlink:href="#gradient-13"/>
    <linearGradient id="gradient-14-3" gradientUnits="userSpaceOnUse" x1="1620" y1="240" x2="1620" y2="360" gradientTransform="matrix(1.155105, 0, 0.000002, 1.052001, 0, 0)" xlink:href="#gradient-14"/>
    <linearGradient id="gradient-9-4" gradientUnits="userSpaceOnUse" x1="180" y1="120" x2="180" y2="240" gradientTransform="matrix(1.155105, 0, 0.000002, 1.052001, 0, 0)" xlink:href="#gradient-9"/>
    <linearGradient id="gradient-10-4" gradientUnits="userSpaceOnUse" x1="420" y1="240" x2="420" y2="360" gradientTransform="matrix(1.155105, 0, 0.000002, 1.052001, 0, 0)" xlink:href="#gradient-10"/>
    <linearGradient id="gradient-11-4" gradientUnits="userSpaceOnUse" x1="780" y1="120" x2="780" y2="240" gradientTransform="matrix(1.155105, 0, 0.000002, 1.052001, 0, 0)" xlink:href="#gradient-11"/>
    <linearGradient id="gradient-12-4" gradientUnits="userSpaceOnUse" x1="1020" y1="240" x2="1020" y2="360" gradientTransform="matrix(1.155105, 0, 0.000002, 1.052001, 0, 0)" xlink:href="#gradient-12"/>
    <linearGradient id="gradient-13-4" gradientUnits="userSpaceOnUse" x1="1260" y1="120" x2="1260" y2="240" gradientTransform="matrix(1.155105, 0, 0.000002, 1.052001, 138.61267, 0.000105)" xlink:href="#gradient-13"/>
    <linearGradient id="gradient-14-4" gradientUnits="userSpaceOnUse" x1="1620" y1="240" x2="1620" y2="360" gradientTransform="matrix(1.155105, 0, 0.000002, 1.052001, 0, 0)" xlink:href="#gradient-14"/>
    <linearGradient id="gradient-9-5" gradientUnits="userSpaceOnUse" x1="180" y1="120" x2="180" y2="240" gradientTransform="matrix(1.155105, 0, 0.000002, 1.052001, 0, 0)" xlink:href="#gradient-9"/>
    <linearGradient id="gradient-10-5" gradientUnits="userSpaceOnUse" x1="420" y1="240" x2="420" y2="360" gradientTransform="matrix(1.155105, 0, 0.000002, 1.052001, 0, 0)" xlink:href="#gradient-10"/>
    <linearGradient id="gradient-11-5" gradientUnits="userSpaceOnUse" x1="780" y1="120" x2="780" y2="240" gradientTransform="matrix(1.155105, 0, 0.000002, 1.052001, 0, 0)" xlink:href="#gradient-11"/>
    <linearGradient id="gradient-12-5" gradientUnits="userSpaceOnUse" x1="1020" y1="240" x2="1020" y2="360" gradientTransform="matrix(1.155105, 0, 0.000002, 1.052001, 0, 0)" xlink:href="#gradient-12"/>
    <linearGradient id="gradient-13-5" gradientUnits="userSpaceOnUse" x1="1260" y1="120" x2="1260" y2="240" gradientTransform="matrix(1.155105, 0, 0.000002, 1.052001, 138.61267, 0.000105)" xlink:href="#gradient-13"/>
    <linearGradient id="gradient-14-5" gradientUnits="userSpaceOnUse" x1="1620" y1="240" x2="1620" y2="360" gradientTransform="matrix(1.155105, 0, 0.000002, 1.052001, 0, 0)" xlink:href="#gradient-14"/>
    <linearGradient id="gradient-9-6" gradientUnits="userSpaceOnUse" x1="180" y1="120" x2="180" y2="240" gradientTransform="matrix(1.155105, 0, 0.000002, 1.052001, 0, 0)" xlink:href="#gradient-9"/>
    <linearGradient id="gradient-10-6" gradientUnits="userSpaceOnUse" x1="420" y1="240" x2="420" y2="360" gradientTransform="matrix(1.155105, 0, 0.000002, 1.052001, 0, 0)" xlink:href="#gradient-10"/>
    <linearGradient id="gradient-11-6" gradientUnits="userSpaceOnUse" x1="780" y1="120" x2="780" y2="240" gradientTransform="matrix(1.155105, 0, 0.000002, 1.052001, 0, 0)" xlink:href="#gradient-11"/>
    <linearGradient id="gradient-12-6" gradientUnits="userSpaceOnUse" x1="1020" y1="240" x2="1020" y2="360" gradientTransform="matrix(1.155105, 0, 0.000002, 1.052001, 0, 0)" xlink:href="#gradient-12"/>
    <linearGradient id="gradient-13-6" gradientUnits="userSpaceOnUse" x1="1260" y1="120" x2="1260" y2="240" gradientTransform="matrix(1.155105, 0, 0.000002, 1.052001, 138.61267, 0.000105)" xlink:href="#gradient-13"/>
    <linearGradient id="gradient-14-6" gradientUnits="userSpaceOnUse" x1="1620" y1="240" x2="1620" y2="360" gradientTransform="matrix(1.155105, 0, 0.000002, 1.052001, 0, 0)" xlink:href="#gradient-14"/>
    <linearGradient id="gradient-9-7" gradientUnits="userSpaceOnUse" x1="180" y1="120" x2="180" y2="240" gradientTransform="matrix(1.155105, 0, 0.000002, 1.052001, 0, 0)" xlink:href="#gradient-9"/>
    <linearGradient id="gradient-10-7" gradientUnits="userSpaceOnUse" x1="420" y1="240" x2="420" y2="360" gradientTransform="matrix(1.155105, 0, 0.000002, 1.052001, 0, 0)" xlink:href="#gradient-10"/>
    <linearGradient id="gradient-11-7" gradientUnits="userSpaceOnUse" x1="780" y1="120" x2="780" y2="240" gradientTransform="matrix(1.155105, 0, 0.000002, 1.052001, 0, 0)" xlink:href="#gradient-11"/>
    <linearGradient id="gradient-12-7" gradientUnits="userSpaceOnUse" x1="1020" y1="240" x2="1020" y2="360" gradientTransform="matrix(1.155105, 0, 0.000002, 1.052001, 0, 0)" xlink:href="#gradient-12"/>
    <linearGradient id="gradient-13-7" gradientUnits="userSpaceOnUse" x1="1260" y1="120" x2="1260" y2="240" gradientTransform="matrix(1.155105, 0, 0.000002, 1.052001, 138.61267, 0.000105)" xlink:href="#gradient-13"/>
    <linearGradient id="gradient-14-7" gradientUnits="userSpaceOnUse" x1="1620" y1="240" x2="1620" y2="360" gradientTransform="matrix(1.155105, 0, 0.000002, 1.052001, 0, 0)" xlink:href="#gradient-14"/>
    <linearGradient id="gradient-9-8" gradientUnits="userSpaceOnUse" x1="180" y1="120" x2="180" y2="240" gradientTransform="matrix(1.155105, 0, 0.000002, 1.052001, 0, 0)" xlink:href="#gradient-9"/>
    <linearGradient id="gradient-10-8" gradientUnits="userSpaceOnUse" x1="420" y1="240" x2="420" y2="360" gradientTransform="matrix(1.155105, 0, 0.000002, 1.052001, 0, 0)" xlink:href="#gradient-10"/>
    <linearGradient id="gradient-11-8" gradientUnits="userSpaceOnUse" x1="780" y1="120" x2="780" y2="240" gradientTransform="matrix(1.155105, 0, 0.000002, 1.052001, 0, 0)" xlink:href="#gradient-11"/>
    <linearGradient id="gradient-12-8" gradientUnits="userSpaceOnUse" x1="1020" y1="240" x2="1020" y2="360" gradientTransform="matrix(1.155105, 0, 0.000002, 1.052001, 0, 0)" xlink:href="#gradient-12"/>
    <linearGradient id="gradient-13-8" gradientUnits="userSpaceOnUse" x1="1260" y1="120" x2="1260" y2="240" gradientTransform="matrix(1.155105, 0, 0.000002, 1.052001, 138.61267, 0.000105)" xlink:href="#gradient-13"/>
    <linearGradient id="gradient-14-8" gradientUnits="userSpaceOnUse" x1="1620" y1="240" x2="1620" y2="360" gradientTransform="matrix(1.155105, 0, 0.000002, 1.052001, 0, 0)" xlink:href="#gradient-14"/>
    <linearGradient id="gradient-9-9" gradientUnits="userSpaceOnUse" x1="180" y1="120" x2="180" y2="240" gradientTransform="matrix(1.155105, 0, 0.000002, 1.052001, 0, 0)" xlink:href="#gradient-9"/>
    <linearGradient id="gradient-10-9" gradientUnits="userSpaceOnUse" x1="420" y1="240" x2="420" y2="360" gradientTransform="matrix(1.155105, 0, 0.000002, 1.052001, 0, 0)" xlink:href="#gradient-10"/>
    <linearGradient id="gradient-11-9" gradientUnits="userSpaceOnUse" x1="780" y1="120" x2="780" y2="240" gradientTransform="matrix(1.155105, 0, 0.000002, 1.052001, 0, 0)" xlink:href="#gradient-11"/>
    <linearGradient id="gradient-12-9" gradientUnits="userSpaceOnUse" x1="1020" y1="240" x2="1020" y2="360" gradientTransform="matrix(1.155105, 0, 0.000002, 1.052001, 0, 0)" xlink:href="#gradient-12"/>
    <linearGradient id="gradient-13-9" gradientUnits="userSpaceOnUse" x1="1260" y1="120" x2="1260" y2="240" gradientTransform="matrix(1.155105, 0, 0.000002, 1.052001, 138.61267, 0.000105)" xlink:href="#gradient-13"/>
    <linearGradient id="gradient-14-9" gradientUnits="userSpaceOnUse" x1="1620" y1="240" x2="1620" y2="360" gradientTransform="matrix(1.155105, 0, 0.000002, 1.052001, 0, 0)" xlink:href="#gradient-14"/>
    <linearGradient id="gradient-9-10" gradientUnits="userSpaceOnUse" x1="180" y1="120" x2="180" y2="240" gradientTransform="matrix(1.155105, 0, 0.000002, 1.052001, 0, 0)" xlink:href="#gradient-9"/>
    <linearGradient id="gradient-10-10" gradientUnits="userSpaceOnUse" x1="420" y1="240" x2="420" y2="360" gradientTransform="matrix(1.155105, 0, 0.000002, 1.052001, 0, 0)" xlink:href="#gradient-10"/>
    <linearGradient id="gradient-11-10" gradientUnits="userSpaceOnUse" x1="780" y1="120" x2="780" y2="240" gradientTransform="matrix(1.155105, 0, 0.000002, 1.052001, 0, 0)" xlink:href="#gradient-11"/>
    <linearGradient id="gradient-12-10" gradientUnits="userSpaceOnUse" x1="1020" y1="240" x2="1020" y2="360" gradientTransform="matrix(1.155105, 0, 0.000002, 1.052001, 0, 0)" xlink:href="#gradient-12"/>
    <linearGradient id="gradient-13-10" gradientUnits="userSpaceOnUse" x1="1260" y1="120" x2="1260" y2="240" gradientTransform="matrix(1.155105, 0, 0.000002, 1.052001, 138.61267, 0.000105)" xlink:href="#gradient-13"/>
    <linearGradient id="gradient-14-10" gradientUnits="userSpaceOnUse" x1="1620" y1="240" x2="1620" y2="360" gradientTransform="matrix(1.155105, 0, 0.000002, 1.052001, 0, 0)" xlink:href="#gradient-14"/>
    <linearGradient id="gradient-9-12" gradientUnits="userSpaceOnUse" x1="180" y1="120" x2="180" y2="240" gradientTransform="matrix(1.155105, 0, 0.000002, 1.052001, 0, 0)" xlink:href="#gradient-9"/>
    <linearGradient id="gradient-10-12" gradientUnits="userSpaceOnUse" x1="420" y1="240" x2="420" y2="360" gradientTransform="matrix(1.155105, 0, 0.000002, 1.052001, 0, 0)" xlink:href="#gradient-10"/>
    <linearGradient id="gradient-11-12" gradientUnits="userSpaceOnUse" x1="780" y1="120" x2="780" y2="240" gradientTransform="matrix(1.155105, 0, 0.000002, 1.052001, 0, 0)" xlink:href="#gradient-11"/>
    <linearGradient id="gradient-12-12" gradientUnits="userSpaceOnUse" x1="1020" y1="240" x2="1020" y2="360" gradientTransform="matrix(1.155105, 0, 0.000002, 1.052001, 0, 0)" xlink:href="#gradient-12"/>
    <linearGradient id="gradient-13-12" gradientUnits="userSpaceOnUse" x1="1260" y1="120" x2="1260" y2="240" gradientTransform="matrix(1.155105, 0, 0.000002, 1.052001, 138.61267, 0.000105)" xlink:href="#gradient-13"/>
    <linearGradient id="gradient-14-12" gradientUnits="userSpaceOnUse" x1="1620" y1="240" x2="1620" y2="360" gradientTransform="matrix(1.155105, 0, 0.000002, 1.052001, 0, 0)" xlink:href="#gradient-14"/>
    <linearGradient id="gradient-9-13" gradientUnits="userSpaceOnUse" x1="180" y1="120" x2="180" y2="240" gradientTransform="matrix(1.155105, 0, 0.000002, 1.052001, 0, 0)" xlink:href="#gradient-9"/>
    <linearGradient id="gradient-10-13" gradientUnits="userSpaceOnUse" x1="420" y1="240" x2="420" y2="360" gradientTransform="matrix(1.155105, 0, 0.000002, 1.052001, 0, 0)" xlink:href="#gradient-10"/>
    <linearGradient id="gradient-11-13" gradientUnits="userSpaceOnUse" x1="780" y1="120" x2="780" y2="240" gradientTransform="matrix(1.155105, 0, 0.000002, 1.052001, 0, 0)" xlink:href="#gradient-11"/>
    <linearGradient id="gradient-12-13" gradientUnits="userSpaceOnUse" x1="1020" y1="240" x2="1020" y2="360" gradientTransform="matrix(1.155105, 0, 0.000002, 1.052001, 0, 0)" xlink:href="#gradient-12"/>
    <linearGradient id="gradient-13-13" gradientUnits="userSpaceOnUse" x1="1260" y1="120" x2="1260" y2="240" gradientTransform="matrix(1.155105, 0, 0.000002, 1.052001, 138.61267, 0.000105)" xlink:href="#gradient-13"/>
    <linearGradient id="gradient-14-13" gradientUnits="userSpaceOnUse" x1="1620" y1="240" x2="1620" y2="360" gradientTransform="matrix(1.155105, 0, 0.000002, 1.052001, 0, 0)" xlink:href="#gradient-14"/>
    <linearGradient id="gradient-9-14" gradientUnits="userSpaceOnUse" x1="180" y1="120" x2="180" y2="240" gradientTransform="matrix(1.155105, 0, 0.000002, 1.052001, 0, 0)" xlink:href="#gradient-9"/>
    <linearGradient id="gradient-10-14" gradientUnits="userSpaceOnUse" x1="420" y1="240" x2="420" y2="360" gradientTransform="matrix(1.155105, 0, 0.000002, 1.052001, 0, 0)" xlink:href="#gradient-10"/>
    <linearGradient id="gradient-11-14" gradientUnits="userSpaceOnUse" x1="780" y1="120" x2="780" y2="240" gradientTransform="matrix(1.155105, 0, 0.000002, 1.052001, 0, 0)" xlink:href="#gradient-11"/>
    <linearGradient id="gradient-12-14" gradientUnits="userSpaceOnUse" x1="1020" y1="240" x2="1020" y2="360" gradientTransform="matrix(1.155105, 0, 0.000002, 1.052001, 0, 0)" xlink:href="#gradient-12"/>
    <linearGradient id="gradient-13-14" gradientUnits="userSpaceOnUse" x1="1260" y1="120" x2="1260" y2="240" gradientTransform="matrix(1.155105, 0, 0.000002, 1.052001, 138.61267, 0.000105)" xlink:href="#gradient-13"/>
    <linearGradient id="gradient-14-14" gradientUnits="userSpaceOnUse" x1="1620" y1="240" x2="1620" y2="360" gradientTransform="matrix(1.155105, 0, 0.000002, 1.052001, 0, 0)" xlink:href="#gradient-14"/>
    <linearGradient id="gradient-9-15" gradientUnits="userSpaceOnUse" x1="180" y1="120" x2="180" y2="240" gradientTransform="matrix(1.155105, 0, 0.000002, 1.052001, 0, 0)" xlink:href="#gradient-9"/>
    <linearGradient id="gradient-10-15" gradientUnits="userSpaceOnUse" x1="420" y1="240" x2="420" y2="360" gradientTransform="matrix(1.155105, 0, 0.000002, 1.052001, 0, 0)" xlink:href="#gradient-10"/>
    <linearGradient id="gradient-11-15" gradientUnits="userSpaceOnUse" x1="780" y1="120" x2="780" y2="240" gradientTransform="matrix(1.155105, 0, 0.000002, 1.052001, 0, 0)" xlink:href="#gradient-11"/>
    <linearGradient id="gradient-12-15" gradientUnits="userSpaceOnUse" x1="1020" y1="240" x2="1020" y2="360" gradientTransform="matrix(1.155105, 0, 0.000002, 1.052001, 0, 0)" xlink:href="#gradient-12"/>
    <linearGradient id="gradient-13-15" gradientUnits="userSpaceOnUse" x1="1260" y1="120" x2="1260" y2="240" gradientTransform="matrix(1.155105, 0, 0.000002, 1.052001, 138.61267, 0.000105)" xlink:href="#gradient-13"/>
    <linearGradient id="gradient-14-15" gradientUnits="userSpaceOnUse" x1="1620" y1="240" x2="1620" y2="360" gradientTransform="matrix(1.155105, 0, 0.000002, 1.052001, 0, 0)" xlink:href="#gradient-14"/>
    <linearGradient id="gradient-9-16" gradientUnits="userSpaceOnUse" x1="180" y1="120" x2="180" y2="240" gradientTransform="matrix(1.155105, 0, 0.000002, 1.052001, 0, 0)" xlink:href="#gradient-9"/>
    <linearGradient id="gradient-10-16" gradientUnits="userSpaceOnUse" x1="420" y1="240" x2="420" y2="360" gradientTransform="matrix(1.155105, 0, 0.000002, 1.052001, 0, 0)" xlink:href="#gradient-10"/>
    <linearGradient id="gradient-11-16" gradientUnits="userSpaceOnUse" x1="780" y1="120" x2="780" y2="240" gradientTransform="matrix(1.155105, 0, 0.000002, 1.052001, 0, 0)" xlink:href="#gradient-11"/>
    <linearGradient id="gradient-12-16" gradientUnits="userSpaceOnUse" x1="1020" y1="240" x2="1020" y2="360" gradientTransform="matrix(1.155105, 0, 0.000002, 1.052001, 0, 0)" xlink:href="#gradient-12"/>
    <linearGradient id="gradient-13-16" gradientUnits="userSpaceOnUse" x1="1260" y1="120" x2="1260" y2="240" gradientTransform="matrix(1.155105, 0, 0.000002, 1.052001, 138.61267, 0.000105)" xlink:href="#gradient-13"/>
    <linearGradient id="gradient-14-16" gradientUnits="userSpaceOnUse" x1="1620" y1="240" x2="1620" y2="360" gradientTransform="matrix(1.155105, 0, 0.000002, 1.052001, 0, 0)" xlink:href="#gradient-14"/>
    <linearGradient id="gradient-9-17" gradientUnits="userSpaceOnUse" x1="180" y1="120" x2="180" y2="240" gradientTransform="matrix(1.155105, 0, 0.000002, 1.052001, 0, 0)" xlink:href="#gradient-9"/>
    <linearGradient id="gradient-10-17" gradientUnits="userSpaceOnUse" x1="420" y1="240" x2="420" y2="360" gradientTransform="matrix(1.155105, 0, 0.000002, 1.052001, 0, 0)" xlink:href="#gradient-10"/>
    <linearGradient id="gradient-11-17" gradientUnits="userSpaceOnUse" x1="780" y1="120" x2="780" y2="240" gradientTransform="matrix(1.155105, 0, 0.000002, 1.052001, 0, 0)" xlink:href="#gradient-11"/>
    <linearGradient id="gradient-12-17" gradientUnits="userSpaceOnUse" x1="1020" y1="240" x2="1020" y2="360" gradientTransform="matrix(1.155105, 0, 0.000002, 1.052001, 0, 0)" xlink:href="#gradient-12"/>
    <linearGradient id="gradient-13-17" gradientUnits="userSpaceOnUse" x1="1260" y1="120" x2="1260" y2="240" gradientTransform="matrix(1.155105, 0, 0.000002, 1.052001, 138.61267, 0.000105)" xlink:href="#gradient-13"/>
    <linearGradient id="gradient-14-17" gradientUnits="userSpaceOnUse" x1="1620" y1="240" x2="1620" y2="360" gradientTransform="matrix(1.155105, 0, 0.000002, 1.052001, 0, 0)" xlink:href="#gradient-14"/>
    <linearGradient id="gradient-9-18" gradientUnits="userSpaceOnUse" x1="180" y1="120" x2="180" y2="240" gradientTransform="matrix(1.155105, 0, 0.000002, 1.052001, 0, 0)" xlink:href="#gradient-9"/>
    <linearGradient id="gradient-10-18" gradientUnits="userSpaceOnUse" x1="420" y1="240" x2="420" y2="360" gradientTransform="matrix(1.155105, 0, 0.000002, 1.052001, 0, 0)" xlink:href="#gradient-10"/>
    <linearGradient id="gradient-11-18" gradientUnits="userSpaceOnUse" x1="780" y1="120" x2="780" y2="240" gradientTransform="matrix(1.155105, 0, 0.000002, 1.052001, 0, 0)" xlink:href="#gradient-11"/>
    <linearGradient id="gradient-12-18" gradientUnits="userSpaceOnUse" x1="1020" y1="240" x2="1020" y2="360" gradientTransform="matrix(1.155105, 0, 0.000002, 1.052001, 0, 0)" xlink:href="#gradient-12"/>
    <linearGradient id="gradient-13-18" gradientUnits="userSpaceOnUse" x1="1260" y1="120" x2="1260" y2="240" gradientTransform="matrix(1.155105, 0, 0.000002, 1.052001, 138.61267, 0.000105)" xlink:href="#gradient-13"/>
    <linearGradient id="gradient-14-18" gradientUnits="userSpaceOnUse" x1="1620" y1="240" x2="1620" y2="360" gradientTransform="matrix(1.155105, 0, 0.000002, 1.052001, 0, 0)" xlink:href="#gradient-14"/>
    <linearGradient id="gradient-9-19" gradientUnits="userSpaceOnUse" x1="180" y1="120" x2="180" y2="240" gradientTransform="matrix(1.155105, 0, 0.000002, 1.052001, 0, 0)" xlink:href="#gradient-9"/>
    <linearGradient id="gradient-10-19" gradientUnits="userSpaceOnUse" x1="420" y1="240" x2="420" y2="360" gradientTransform="matrix(1.155105, 0, 0.000002, 1.052001, 0, 0)" xlink:href="#gradient-10"/>
    <linearGradient id="gradient-11-19" gradientUnits="userSpaceOnUse" x1="780" y1="120" x2="780" y2="240" gradientTransform="matrix(1.155105, 0, 0.000002, 1.052001, 0, 0)" xlink:href="#gradient-11"/>
    <linearGradient id="gradient-12-19" gradientUnits="userSpaceOnUse" x1="1020" y1="240" x2="1020" y2="360" gradientTransform="matrix(1.155105, 0, 0.000002, 1.052001, 0, 0)" xlink:href="#gradient-12"/>
    <linearGradient id="gradient-13-19" gradientUnits="userSpaceOnUse" x1="1260" y1="120" x2="1260" y2="240" gradientTransform="matrix(1.155105, 0, 0.000002, 1.052001, 138.61267, 0.000105)" xlink:href="#gradient-13"/>
    <linearGradient id="gradient-14-19" gradientUnits="userSpaceOnUse" x1="1620" y1="240" x2="1620" y2="360" gradientTransform="matrix(1.155105, 0, 0.000002, 1.052001, 0, 0)" xlink:href="#gradient-14"/>
    <linearGradient id="gradient-15-0" gradientUnits="userSpaceOnUse" x1="959.948" y1="537.538" x2="959.948" y2="773.665" xlink:href="#gradient-15"/>
    <linearGradient id="gradient-15">
      <stop offset="0" style="stop-color: rgb(255, 83, 241);"/>
      <stop offset="1" style="stop-color: rgb(53, 37, 107);"/>
    </linearGradient>
    <linearGradient id="gradient-15-2" gradientUnits="userSpaceOnUse" x1="959.948" y1="537.538" x2="959.948" y2="773.665" xlink:href="#gradient-15"/>
    <linearGradient id="gradient-15-3" gradientUnits="userSpaceOnUse" x1="959.948" y1="537.538" x2="959.948" y2="773.665" xlink:href="#gradient-15"/>
    <linearGradient id="gradient-15-4" gradientUnits="userSpaceOnUse" x1="959.948" y1="537.538" x2="959.948" y2="773.665" xlink:href="#gradient-15"/>
    <linearGradient id="gradient-15-5" gradientUnits="userSpaceOnUse" x1="959.948" y1="537.538" x2="959.948" y2="773.665" xlink:href="#gradient-15"/>
  </defs>
  <g transform="matrix(1.275989055634, -0.359056055546, 3.510480880737, 0.42428201437, 2.194853323716, -25.617607719872)" style="mask: url('#mask-0'); clip-path: url('#clip-0'); transform-origin: 995.319px 592.514px;">
    <rect x="138.612" y="126.24" width="138.612" height="126.24" style="fill: url('#gradient-9-11');" transform="matrix(0.998219, 0.059652, 0.635123, 1.039738, -258.080811, -235.872986)"/>
    <rect x="415.837" y="252.481" width="138.612" height="126.24" style="fill: url('#gradient-10-11');" transform="matrix(0.998219, 0.059652, 0.635123, 1.039738, -258.080811, -235.872986)"/>
    <rect x="831.676" y="126.24" width="138.612" height="126.24" style="fill: url('#gradient-11-11');" transform="matrix(0.998219, 0.059652, 0.635123, 1.039738, -258.080811, -235.872986)"/>
    <rect x="1108.9" y="252.481" width="138.612" height="126.24" style="fill: url('#gradient-12-11');" transform="matrix(0.998219, 0.059652, 0.635123, 1.039738, -258.080811, -235.872986)"/>
    <rect x="1524.737" y="126.24" width="138.612" height="126.24" style="fill: url('#gradient-13-11');" transform="matrix(0.998219, 0.059652, 0.635123, 1.039738, -258.080811, -235.872986)"/>
    <rect x="1801.962" y="252.481" width="138.612" height="126.24" style="fill: url('#gradient-14-11');" transform="matrix(0.998219, 0.059652, 0.635123, 1.039738, -258.080811, -235.872986)"/>
    <rect x="138.612" y="126.24" width="138.612" height="126.24" style="fill: url('#gradient-9-1');" transform="matrix(0.998219, 0.059652, 0.635123, 1.039738, -310.310211, -155.992767)"/>
    <rect x="415.837" y="252.481" width="138.612" height="126.24" style="fill: url('#gradient-10-1');" transform="matrix(0.998219, 0.059652, 0.635123, 1.039738, -310.310211, -155.992767)"/>
    <rect x="831.676" y="126.24" width="138.612" height="126.24" style="fill: url('#gradient-11-1');" transform="matrix(0.998219, 0.059652, 0.635123, 1.039738, -310.310211, -155.992767)"/>
    <rect x="1108.9" y="252.481" width="138.612" height="126.24" style="fill: url('#gradient-12-1');" transform="matrix(0.998219, 0.059652, 0.635123, 1.039738, -310.310211, -155.992767)"/>
    <rect x="1524.737" y="126.24" width="138.612" height="126.24" style="fill: url('#gradient-13-1');" transform="matrix(0.998219, 0.059652, 0.635123, 1.039738, -310.310211, -155.992767)"/>
    <rect x="1801.962" y="252.481" width="138.612" height="126.24" style="fill: url('#gradient-14-1');" transform="matrix(0.998219, 0.059652, 0.635123, 1.039738, -310.310211, -155.992767)"/>
    <rect x="138.612" y="126.24" width="138.612" height="126.24" style="fill: url('#gradient-9-2');" transform="matrix(0.998219, 0.059652, 0.635123, 1.039738, -116.754303, -140.631195)"/>
    <rect x="415.837" y="252.481" width="138.612" height="126.24" style="fill: url('#gradient-10-2');" transform="matrix(0.998219, 0.059652, 0.635123, 1.039738, -116.754303, -140.631195)"/>
    <rect x="831.676" y="126.24" width="138.612" height="126.24" style="fill: url('#gradient-11-2');" transform="matrix(0.998219, 0.059652, 0.635123, 1.039738, -116.754303, -140.631195)"/>
    <rect x="1108.9" y="252.481" width="138.612" height="126.24" style="fill: url('#gradient-12-2');" transform="matrix(0.998219, 0.059652, 0.635123, 1.039738, -116.754303, -140.631195)"/>
    <rect x="1524.737" y="126.24" width="138.612" height="126.24" style="fill: url('#gradient-13-2');" transform="matrix(0.998219, 0.059652, 0.635123, 1.039738, -116.754303, -140.631195)"/>
    <rect x="1801.962" y="252.481" width="138.612" height="126.24" style="fill: url('#gradient-14-2');" transform="matrix(0.998219, 0.059652, 0.635123, 1.039738, -116.754303, -140.631195)"/>
    <rect x="138.612" y="126.24" width="138.612" height="126.24" style="fill: url('#gradient-9-3');" transform="matrix(0.998219, 0.059652, 0.635123, 1.039738, -313.382507, -69.967934)"/>
    <rect x="415.837" y="252.481" width="138.612" height="126.24" style="fill: url('#gradient-10-3');" transform="matrix(0.998219, 0.059652, 0.635123, 1.039738, -313.382507, -69.967934)"/>
    <rect x="831.676" y="126.24" width="138.612" height="126.24" style="fill: url('#gradient-11-3');" transform="matrix(0.998219, 0.059652, 0.635123, 1.039738, -313.382507, -69.967934)"/>
    <rect x="1108.9" y="252.481" width="138.612" height="126.24" style="fill: url('#gradient-12-3');" transform="matrix(0.998219, 0.059652, 0.635123, 1.039738, -313.382507, -69.967934)"/>
    <rect x="1524.737" y="126.24" width="138.612" height="126.24" style="fill: url('#gradient-13-3');" transform="matrix(0.998219, 0.059652, 0.635123, 1.039738, -313.382507, -69.967934)"/>
    <rect x="1801.962" y="252.481" width="138.612" height="126.24" style="fill: url('#gradient-14-3');" transform="matrix(0.998219, 0.059652, 0.635123, 1.039738, -313.382507, -69.967934)"/>
    <rect x="138.612" y="126.24" width="138.612" height="126.24" style="fill: url('#gradient-9-4');" transform="matrix(0.998219, 0.059652, 0.635123, 1.039738, -156.694412, -54.60635)"/>
    <rect x="415.837" y="252.481" width="138.612" height="126.24" style="fill: url('#gradient-10-4');" transform="matrix(0.998219, 0.059652, 0.635123, 1.039738, -156.694412, -54.60635)"/>
    <rect x="831.676" y="126.24" width="138.612" height="126.24" style="fill: url('#gradient-11-4');" transform="matrix(0.998219, 0.059652, 0.635123, 1.039738, -156.694412, -54.60635)"/>
    <rect x="1108.9" y="252.481" width="138.612" height="126.24" style="fill: url('#gradient-12-4');" transform="matrix(0.998219, 0.059652, 0.635123, 1.039738, -156.694412, -54.60635)"/>
    <rect x="1524.737" y="126.24" width="138.612" height="126.24" style="fill: url('#gradient-13-4');" transform="matrix(0.998219, 0.059652, 0.635123, 1.039738, -156.694412, -54.60635)"/>
    <rect x="1801.962" y="252.481" width="138.612" height="126.24" style="fill: url('#gradient-14-4');" transform="matrix(0.998219, 0.059652, 0.635123, 1.039738, -156.694412, -54.60635)"/>
    <rect x="138.612" y="126.24" width="138.612" height="126.24" style="fill: url('#gradient-9-5');" transform="matrix(0.998219, 0.059652, 0.635123, 1.039738, -190.489868, 34.490807)"/>
    <rect x="415.837" y="252.481" width="138.612" height="126.24" style="fill: url('#gradient-10-5');" transform="matrix(0.998219, 0.059652, 0.635123, 1.039738, -190.489868, 34.490807)"/>
    <rect x="831.676" y="126.24" width="138.612" height="126.24" style="fill: url('#gradient-11-5');" transform="matrix(0.998219, 0.059652, 0.635123, 1.039738, -190.489868, 34.490807)"/>
    <rect x="1108.9" y="252.481" width="138.612" height="126.24" style="fill: url('#gradient-12-5');" transform="matrix(0.998219, 0.059652, 0.635123, 1.039738, -190.489868, 34.490807)"/>
    <rect x="1524.737" y="126.24" width="138.612" height="126.24" style="fill: url('#gradient-13-5');" transform="matrix(0.998219, 0.059652, 0.635123, 1.039738, -190.489868, 34.490807)"/>
    <rect x="1801.962" y="252.481" width="138.612" height="126.24" style="fill: url('#gradient-14-5');" transform="matrix(0.998219, 0.059652, 0.635123, 1.039738, -190.489868, 34.490807)"/>
    <rect x="138.612" y="126.24" width="138.612" height="126.24" style="fill: url('#gradient-9-6');" transform="matrix(0.998219, 0.059652, 0.635123, 1.039738, -221.213028, 126.660271)"/>
    <rect x="415.837" y="252.481" width="138.612" height="126.24" style="fill: url('#gradient-10-6');" transform="matrix(0.998219, 0.059652, 0.635123, 1.039738, -221.213028, 126.660271)"/>
    <rect x="831.676" y="126.24" width="138.612" height="126.24" style="fill: url('#gradient-11-6');" transform="matrix(0.998219, 0.059652, 0.635123, 1.039738, -221.213028, 126.660271)"/>
    <rect x="1108.9" y="252.481" width="138.612" height="126.24" style="fill: url('#gradient-12-6');" transform="matrix(0.998219, 0.059652, 0.635123, 1.039738, -221.213028, 126.660271)"/>
    <rect x="1524.737" y="126.24" width="138.612" height="126.24" style="fill: url('#gradient-13-6');" transform="matrix(0.998219, 0.059652, 0.635123, 1.039738, -221.213028, 126.660271)"/>
    <rect x="1801.962" y="252.481" width="138.612" height="126.24" style="fill: url('#gradient-14-6');" transform="matrix(0.998219, 0.059652, 0.635123, 1.039738, -221.213028, 126.660271)"/>
    <rect x="138.612" y="126.24" width="138.612" height="126.24" style="fill: url('#gradient-9-7');" transform="matrix(0.998219, 0.059652, 0.635123, 1.039738, -76.814186, 218.829742)"/>
    <rect x="415.837" y="252.481" width="138.612" height="126.24" style="fill: url('#gradient-10-7');" transform="matrix(0.998219, 0.059652, 0.635123, 1.039738, -76.814186, 218.829742)"/>
    <rect x="831.676" y="126.24" width="138.612" height="126.24" style="fill: url('#gradient-11-7');" transform="matrix(0.998219, 0.059652, 0.635123, 1.039738, -76.814186, 218.829742)"/>
    <rect x="1108.9" y="252.481" width="138.612" height="126.24" style="fill: url('#gradient-12-7');" transform="matrix(0.998219, 0.059652, 0.635123, 1.039738, -76.814186, 218.829742)"/>
    <rect x="1524.737" y="126.24" width="138.612" height="126.24" style="fill: url('#gradient-13-7');" transform="matrix(0.998219, 0.059652, 0.635123, 1.039738, -76.814186, 218.829742)"/>
    <rect x="1801.962" y="252.481" width="138.612" height="126.24" style="fill: url('#gradient-14-7');" transform="matrix(0.998219, 0.059652, 0.635123, 1.039738, -76.814186, 218.829742)"/>
    <rect x="138.612" y="126.24" width="138.612" height="126.24" style="fill: url('#gradient-9-8');" transform="matrix(0.998219, 0.059652, 0.635123, 1.039738, -132.115875, 310.999237)"/>
    <rect x="415.837" y="252.481" width="138.612" height="126.24" style="fill: url('#gradient-10-8');" transform="matrix(0.998219, 0.059652, 0.635123, 1.039738, -132.115875, 310.999237)"/>
    <rect x="831.676" y="126.24" width="138.612" height="126.24" style="fill: url('#gradient-11-8');" transform="matrix(0.998219, 0.059652, 0.635123, 1.039738, -132.115875, 310.999237)"/>
    <rect x="1108.9" y="252.481" width="138.612" height="126.24" style="fill: url('#gradient-12-8');" transform="matrix(0.998219, 0.059652, 0.635123, 1.039738, -132.115875, 310.999237)"/>
    <rect x="1524.737" y="126.24" width="138.612" height="126.24" style="fill: url('#gradient-13-8');" transform="matrix(0.998219, 0.059652, 0.635123, 1.039738, -132.115875, 310.999237)"/>
    <rect x="1801.962" y="252.481" width="138.612" height="126.24" style="fill: url('#gradient-14-8');" transform="matrix(0.998219, 0.059652, 0.635123, 1.039738, -132.115875, 310.999237)"/>
    <rect x="138.612" y="126.24" width="138.612" height="126.24" style="fill: url('#gradient-9-9');" transform="matrix(0.998219, 0.059652, 0.635123, 1.039738, -298.020935, 166.600403)"/>
    <rect x="415.837" y="252.481" width="138.612" height="126.24" style="fill: url('#gradient-10-9');" transform="matrix(0.998219, 0.059652, 0.635123, 1.039738, -298.020935, 166.600403)"/>
    <rect x="831.676" y="126.24" width="138.612" height="126.24" style="fill: url('#gradient-11-9');" transform="matrix(0.998219, 0.059652, 0.635123, 1.039738, -298.020935, 166.600403)"/>
    <rect x="1108.9" y="252.481" width="138.612" height="126.24" style="fill: url('#gradient-12-9');" transform="matrix(0.998219, 0.059652, 0.635123, 1.039738, -298.020935, 166.600403)"/>
    <rect x="1524.737" y="126.24" width="138.612" height="126.24" style="fill: url('#gradient-13-9');" transform="matrix(0.998219, 0.059652, 0.635123, 1.039738, -298.020935, 166.600403)"/>
    <rect x="1801.962" y="252.481" width="138.612" height="126.24" style="fill: url('#gradient-14-9');" transform="matrix(0.998219, 0.059652, 0.635123, 1.039738, -298.020935, 166.600403)"/>
    <rect x="138.612" y="126.24" width="138.612" height="126.24" style="fill: url('#gradient-9-10');" transform="matrix(0.998219, 0.059652, 0.635123, 1.039738, -319.52713, 237.263641)"/>
    <rect x="415.837" y="252.481" width="138.612" height="126.24" style="fill: url('#gradient-10-10');" transform="matrix(0.998219, 0.059652, 0.635123, 1.039738, -319.52713, 237.263641)"/>
    <rect x="831.676" y="126.24" width="138.612" height="126.24" style="fill: url('#gradient-11-10');" transform="matrix(0.998219, 0.059652, 0.635123, 1.039738, -319.52713, 237.263641)"/>
    <rect x="1108.9" y="252.481" width="138.612" height="126.24" style="fill: url('#gradient-12-10');" transform="matrix(0.998219, 0.059652, 0.635123, 1.039738, -319.52713, 237.263641)"/>
    <rect x="1524.737" y="126.24" width="138.612" height="126.24" style="fill: url('#gradient-13-10');" transform="matrix(0.998219, 0.059652, 0.635123, 1.039738, -319.52713, 237.263641)"/>
    <rect x="1801.962" y="252.481" width="138.612" height="126.24" style="fill: url('#gradient-14-10');" transform="matrix(0.998219, 0.059652, 0.635123, 1.039738, -319.52713, 237.263641)"/>
    <rect x="138.612" y="126.24" width="138.612" height="126.24" style="fill: url('#gradient-9-12');" transform="matrix(0.998219, 0.059652, 0.635123, 1.039738, -168.983688, 378.590179)"/>
    <rect x="415.837" y="252.481" width="138.612" height="126.24" style="fill: url('#gradient-10-12');" transform="matrix(0.998219, 0.059652, 0.635123, 1.039738, -168.983688, 378.590179)"/>
    <rect x="831.676" y="126.24" width="138.612" height="126.24" style="fill: url('#gradient-11-12');" transform="matrix(0.998219, 0.059652, 0.635123, 1.039738, -168.983688, 378.590179)"/>
    <rect x="1108.9" y="252.481" width="138.612" height="126.24" style="fill: url('#gradient-12-12');" transform="matrix(0.998219, 0.059652, 0.635123, 1.039738, -168.983688, 378.590179)"/>
    <rect x="1524.737" y="126.24" width="138.612" height="126.24" style="fill: url('#gradient-13-12');" transform="matrix(0.998219, 0.059652, 0.635123, 1.039738, -168.983688, 378.590179)"/>
    <rect x="1801.962" y="252.481" width="138.612" height="126.24" style="fill: url('#gradient-14-12');" transform="matrix(0.998219, 0.059652, 0.635123, 1.039738, -168.983688, 378.590179)"/>
    <rect x="138.612" y="126.24" width="138.612" height="126.24" style="fill: url('#gradient-9-13');" transform="matrix(0.998219, 0.059652, 0.635123, 1.039738, -328.74408, 350.939331)"/>
    <rect x="415.837" y="252.481" width="138.612" height="126.24" style="fill: url('#gradient-10-13');" transform="matrix(0.998219, 0.059652, 0.635123, 1.039738, -328.74408, 350.939331)"/>
    <rect x="831.676" y="126.24" width="138.612" height="126.24" style="fill: url('#gradient-11-13');" transform="matrix(0.998219, 0.059652, 0.635123, 1.039738, -328.74408, 350.939331)"/>
    <rect x="1108.9" y="252.481" width="138.612" height="126.24" style="fill: url('#gradient-12-13');" transform="matrix(0.998219, 0.059652, 0.635123, 1.039738, -328.74408, 350.939331)"/>
    <rect x="1524.737" y="126.24" width="138.612" height="126.24" style="fill: url('#gradient-13-13');" transform="matrix(0.998219, 0.059652, 0.635123, 1.039738, -328.74408, 350.939331)"/>
    <rect x="1801.962" y="252.481" width="138.612" height="126.24" style="fill: url('#gradient-14-13');" transform="matrix(0.998219, 0.059652, 0.635123, 1.039738, -328.74408, 350.939331)"/>
    <rect x="138.612" y="126.24" width="138.612" height="126.24" style="fill: url('#gradient-9-14');" transform="matrix(0.998219, 0.059652, 0.635123, 1.039738, -236.574615, 443.108826)"/>
    <rect x="415.837" y="252.481" width="138.612" height="126.24" style="fill: url('#gradient-10-14');" transform="matrix(0.998219, 0.059652, 0.635123, 1.039738, -236.574615, 443.108826)"/>
    <rect x="831.676" y="126.24" width="138.612" height="126.24" style="fill: url('#gradient-11-14');" transform="matrix(0.998219, 0.059652, 0.635123, 1.039738, -236.574615, 443.108826)"/>
    <rect x="1108.9" y="252.481" width="138.612" height="126.24" style="fill: url('#gradient-12-14');" transform="matrix(0.998219, 0.059652, 0.635123, 1.039738, -236.574615, 443.108826)"/>
    <rect x="1524.737" y="126.24" width="138.612" height="126.24" style="fill: url('#gradient-13-14');" transform="matrix(0.998219, 0.059652, 0.635123, 1.039738, -236.574615, 443.108826)"/>
    <rect x="1801.962" y="252.481" width="138.612" height="126.24" style="fill: url('#gradient-14-14');" transform="matrix(0.998219, 0.059652, 0.635123, 1.039738, -236.574615, 443.108826)"/>
    <rect x="138.612" y="126.24" width="138.612" height="126.24" style="fill: url('#gradient-9-15');" transform="matrix(0.998219, 0.059652, 0.635123, 1.039738, -325.671753, 479.976624)"/>
    <rect x="415.837" y="252.481" width="138.612" height="126.24" style="fill: url('#gradient-10-15');" transform="matrix(0.998219, 0.059652, 0.635123, 1.039738, -325.671753, 479.976624)"/>
    <rect x="831.676" y="126.24" width="138.612" height="126.24" style="fill: url('#gradient-11-15');" transform="matrix(0.998219, 0.059652, 0.635123, 1.039738, -325.671753, 479.976624)"/>
    <rect x="1108.9" y="252.481" width="138.612" height="126.24" style="fill: url('#gradient-12-15');" transform="matrix(0.998219, 0.059652, 0.635123, 1.039738, -325.671753, 479.976624)"/>
    <rect x="1524.737" y="126.24" width="138.612" height="126.24" style="fill: url('#gradient-13-15');" transform="matrix(0.998219, 0.059652, 0.635123, 1.039738, -325.671753, 479.976624)"/>
    <rect x="1801.962" y="252.481" width="138.612" height="126.24" style="fill: url('#gradient-14-15');" transform="matrix(0.998219, 0.059652, 0.635123, 1.039738, -325.671753, 479.976624)"/>
    <rect x="138.612" y="126.24" width="138.612" height="126.24" style="fill: url('#gradient-9-16');" transform="matrix(0.998219, 0.059652, 0.635123, 1.039738, -248.863876, 569.073792)"/>
    <rect x="415.837" y="252.481" width="138.612" height="126.24" style="fill: url('#gradient-10-16');" transform="matrix(0.998219, 0.059652, 0.635123, 1.039738, -248.863876, 569.073792)"/>
    <rect x="831.676" y="126.24" width="138.612" height="126.24" style="fill: url('#gradient-11-16');" transform="matrix(0.998219, 0.059652, 0.635123, 1.039738, -248.863876, 569.073792)"/>
    <rect x="1108.9" y="252.481" width="138.612" height="126.24" style="fill: url('#gradient-12-16');" transform="matrix(0.998219, 0.059652, 0.635123, 1.039738, -248.863876, 569.073792)"/>
    <rect x="1524.737" y="126.24" width="138.612" height="126.24" style="fill: url('#gradient-13-16');" transform="matrix(0.998219, 0.059652, 0.635123, 1.039738, -248.863876, 569.073792)"/>
    <rect x="1801.962" y="252.481" width="138.612" height="126.24" style="fill: url('#gradient-14-16');" transform="matrix(0.998219, 0.059652, 0.635123, 1.039738, -248.863876, 569.073792)"/>
    <rect x="138.612" y="126.24" width="138.612" height="126.24" style="fill: url('#gradient-9-17');" transform="matrix(0.998219, 0.059652, 0.635123, 1.039738, -132.115875, 630.520081)"/>
    <rect x="415.837" y="252.481" width="138.612" height="126.24" style="fill: url('#gradient-10-17');" transform="matrix(0.998219, 0.059652, 0.635123, 1.039738, -132.115875, 630.520081)"/>
    <rect x="831.676" y="126.24" width="138.612" height="126.24" style="fill: url('#gradient-11-17');" transform="matrix(0.998219, 0.059652, 0.635123, 1.039738, -132.115875, 630.520081)"/>
    <rect x="1108.9" y="252.481" width="138.612" height="126.24" style="fill: url('#gradient-12-17');" transform="matrix(0.998219, 0.059652, 0.635123, 1.039738, -132.115875, 630.520081)"/>
    <rect x="1524.737" y="126.24" width="138.612" height="126.24" style="fill: url('#gradient-13-17');" transform="matrix(0.998219, 0.059652, 0.635123, 1.039738, -132.115875, 630.520081)"/>
    <rect x="1801.962" y="252.481" width="138.612" height="126.24" style="fill: url('#gradient-14-17');" transform="matrix(0.998219, 0.059652, 0.635123, 1.039738, -132.115875, 630.520081)"/>
    <rect x="138.612" y="126.24" width="138.612" height="126.24" style="fill: url('#gradient-9-18');" transform="matrix(0.998219, 0.059652, 0.635123, 1.039738, -221.213028, 676.604736)"/>
    <rect x="415.837" y="252.481" width="138.612" height="126.24" style="fill: url('#gradient-10-18');" transform="matrix(0.998219, 0.059652, 0.635123, 1.039738, -221.213028, 676.604736)"/>
    <rect x="831.676" y="126.24" width="138.612" height="126.24" style="fill: url('#gradient-11-18');" transform="matrix(0.998219, 0.059652, 0.635123, 1.039738, -221.213028, 676.604736)"/>
    <rect x="1108.9" y="252.481" width="138.612" height="126.24" style="fill: url('#gradient-12-18');" transform="matrix(0.998219, 0.059652, 0.635123, 1.039738, -221.213028, 676.604736)"/>
    <rect x="1524.737" y="126.24" width="138.612" height="126.24" style="fill: url('#gradient-13-18');" transform="matrix(0.998219, 0.059652, 0.635123, 1.039738, -221.213028, 676.604736)"/>
    <rect x="1801.962" y="252.481" width="138.612" height="126.24" style="fill: url('#gradient-14-18');" transform="matrix(0.998219, 0.059652, 0.635123, 1.039738, -221.213028, 676.604736)"/>
    <rect x="138.612" y="126.24" width="138.612" height="126.24" style="fill: url('#gradient-9-19');" transform="matrix(0.998219, 0.059652, 0.635123, 1.039738, -119.826607, 771.846558)"/>
    <rect x="415.837" y="252.481" width="138.612" height="126.24" style="fill: url('#gradient-10-19');" transform="matrix(0.998219, 0.059652, 0.635123, 1.039738, -119.826607, 771.846558)"/>
    <rect x="831.676" y="126.24" width="138.612" height="126.24" style="fill: url('#gradient-11-19');" transform="matrix(0.998219, 0.059652, 0.635123, 1.039738, -119.826607, 771.846558)"/>
    <rect x="1108.9" y="252.481" width="138.612" height="126.24" style="fill: url('#gradient-12-19');" transform="matrix(0.998219, 0.059652, 0.635123, 1.039738, -119.826607, 771.846558)"/>
    <rect x="1524.737" y="126.24" width="138.612" height="126.24" style="fill: url('#gradient-13-19');" transform="matrix(0.998219, 0.059652, 0.635123, 1.039738, -119.826607, 771.846558)"/>
    <rect x="1801.962" y="252.481" width="138.612" height="126.24" style="fill: url('#gradient-14-19');" transform="matrix(0.998219, 0.059652, 0.635123, 1.039738, -119.826607, 771.846558)"/>
  </g>
  <path d="M 184.71 723.81 Q 182.95 724.4 181 724.4 Q 176.13 724.4 174.86 720.79 Q 173.6 717.19 173.6 712.71 L 173.6 596.74 L 132.67 596.74 Q 130.33 596.74 129.06 594.79 Q 127.8 592.84 127.8 590.11 Q 127.8 588.16 128.38 586.99 L 224.66 586.99 Q 229.14 586.99 229.14 594.01 Q 229.14 595.18 228.75 596.74 L 181 596.74 L 180.61 597.52 Q 183.34 601.42 183.34 608.63 L 183.34 702.96 Q 183.34 708.42 183.63 713.58 Q 183.93 718.75 184.71 723.81 Z M 237.29 724.4 Q 234.17 724.4 231.83 723.42 Q 229.49 722.45 229.49 719.92 L 229.49 594.21 Q 229.49 587.38 229.1 584.27 Q 228.71 581.15 227.35 577.25 Q 228.91 576.67 230.46 576.67 Q 233.78 576.67 236.51 580.08 Q 239.23 583.49 239.23 590.89 L 239.23 656.18 L 240.4 656.18 Q 245.86 645.27 252.59 636.89 Q 259.31 628.51 267.11 623.64 Q 274.9 618.76 283.09 618.76 Q 290.88 618.76 296.24 622.56 Q 301.6 626.36 304.53 632.5 Q 307.45 638.64 307.45 646.05 L 307.45 699.26 Q 307.45 706.08 308.03 711.63 Q 308.62 717.19 310.18 723.42 Q 309.4 723.62 308.72 723.72 Q 308.03 723.81 307.26 723.81 Q 304.72 723.81 302.48 721.67 Q 300.24 719.53 298.78 713.87 Q 297.32 708.22 297.32 698.09 Q 297.32 688.93 297.51 681.72 Q 297.7 674.51 298.39 666.51 Q 299.07 658.52 300.24 647.22 Q 297.9 638.06 293.81 633.28 Q 289.71 628.51 283.09 628.51 Q 274.71 628.51 266.52 634.94 Q 258.34 641.37 251.22 651.9 Q 244.11 662.42 239.23 674.51 L 239.23 724.4 Z M 394.51 618.96 Q 406.6 618.96 414.68 623.64 Q 422.77 628.31 426.77 636.4 Q 430.76 644.49 430.76 654.43 L 430.76 655.21 Q 430.76 660.08 430.18 664.86 Q 429.59 669.63 428.03 672.85 Q 426.48 676.06 423.55 676.06 L 362.35 676.06 Q 358.85 676.06 356.51 674.7 L 355.53 675.28 Q 355.53 676.06 355.53 677.23 L 355.53 680.55 Q 355.53 688.34 357.58 694.97 Q 359.62 701.6 363.91 706.66 Q 369.95 711.54 376.78 713.58 Q 383.6 715.63 393.73 715.63 Q 405.23 715.63 413.22 712.51 Q 421.21 709.39 428.62 701.99 L 429.79 701.99 Q 429.98 702.57 430.08 703.55 Q 430.18 704.52 430.18 706.08 Q 430.18 711.73 426.87 715.04 Q 422.19 719.72 413.32 722.55 Q 404.45 725.37 392.95 725.37 Q 380.09 725.37 369.37 720.4 Q 358.65 715.43 352.22 705.2 Q 345.79 694.97 345.79 679.38 L 345.79 675.87 Q 345.79 655.99 352.61 643.42 Q 359.43 630.85 370.54 624.9 Q 381.65 618.96 394.51 618.96 Z M 394.32 628.31 Q 378.72 628.31 368.49 638.16 Q 358.26 648 356.12 667.29 L 419.65 667.29 Q 420.24 664.37 420.63 661.35 Q 421.02 658.33 421.02 655.02 Q 421.02 646.24 418.87 640.98 Q 416.73 635.72 412.25 631.43 Q 408.54 629.68 404.45 629 Q 400.36 628.31 394.32 628.31 Z" style="fill: url('#gradient-15-0');"/>
  <path style="fill: url('#gradient-15-2');"/>
  <path d="M 570.79 723.42 Q 560.07 723.42 554.42 714.65 Q 548.77 705.88 548.77 693.02 L 548.77 612.33 Q 548.77 597.71 546.43 586.99 Q 554.03 585.05 563.97 585.05 Q 573.91 585.05 579.17 586.61 Q 584.44 588.16 586.39 592.65 Q 588.34 597.13 588.34 605.9 L 588.34 685.03 L 607.44 685.03 Q 607.44 681.52 607.53 677.82 Q 607.63 674.12 607.63 670.02 Q 613.48 668.07 622.44 668.07 Q 634.92 668.07 639.11 671.09 Q 643.3 674.12 643.3 683.08 Q 643.3 694 642.32 702.08 Q 641.35 710.17 639.5 716.8 Q 637.64 723.42 634.92 730.44 Q 614.26 730.44 608.21 723.42 Z M 735.25 655.02 L 735.25 689.51 Q 735.64 689.71 737 689.71 Q 740.31 689.71 743.24 687.17 L 744.41 687.17 Q 744.8 688.34 745.09 690.49 Q 745.38 692.63 745.38 695.36 Q 745.38 703.16 743.33 709.59 Q 741.29 716.02 738.36 719.14 Q 735.05 722.45 731.35 723.81 Q 727.64 725.18 723.55 725.18 Q 716.34 725.18 709.42 719.53 Q 702.5 713.87 699.19 705.69 L 697.83 705.69 Q 694.71 713.68 686.81 719.53 Q 678.92 725.37 666.84 725.37 Q 652.02 725.37 643.74 716.99 Q 635.46 708.61 635.46 694 L 635.46 692.24 Q 635.46 684.44 640.43 676.94 Q 645.4 669.44 653.19 664.57 Q 660.99 659.69 669.56 659.69 Q 678.53 659.69 685.55 660.76 Q 692.56 661.84 697.63 663.98 Q 698.02 660.86 698.8 657.55 Q 699.58 654.24 700.55 650.92 Q 695.49 648.97 689.83 648.19 Q 684.18 647.41 677.75 647.41 Q 668.79 647.41 660.99 648.68 Q 653.19 649.95 644.62 652.68 L 643.45 652.68 Q 642.28 646.83 642.28 640.4 Q 642.28 634.94 643.35 630.56 Q 644.42 626.17 647.54 623.05 Q 650.66 619.93 654.85 618.18 Q 659.04 616.42 666.64 615.55 Q 674.24 614.67 687.11 614.67 Q 697.24 614.67 706.01 618.08 Q 714.78 621.49 721.31 627.34 Q 727.84 633.19 731.54 640.3 Q 735.25 647.41 735.25 655.02 Z M 673.46 688.34 Q 673.46 691.85 674.83 693.02 Q 676.19 694.19 680.48 694.19 Q 685.16 694.19 689.05 693.22 Q 692.95 692.24 697.05 689.9 L 697.05 680.55 Q 690.42 679.57 683.99 679.57 Q 681.45 679.57 679.02 679.86 Q 676.58 680.16 674.44 680.55 Q 673.85 682.5 673.66 684.15 Q 673.46 685.81 673.46 687.95 Z M 797.17 723.42 Q 790.54 724.59 783.33 724.59 Q 769.3 724.59 764.03 720.11 Q 758.77 715.63 758.77 705.69 L 758.77 641.57 Q 758.77 626.75 755.26 616.81 Q 759.36 616.04 763.45 615.65 Q 767.54 615.26 771.44 615.26 Q 784.11 615.26 790.64 621.49 Q 797.17 627.73 797.17 641.76 L 797.17 643.13 L 798.34 643.13 Q 803.21 630.46 812.95 622.37 Q 822.7 614.28 833.42 614.28 Q 837.9 614.28 842.19 617.69 Q 846.48 621.1 849.98 626.66 Q 853.49 632.21 855.64 638.94 Q 857.78 645.66 857.78 652.29 L 857.78 694.97 Q 857.78 703.35 858.56 710.17 Q 859.34 716.99 861.29 723.42 Q 857 724.2 852.91 724.69 Q 848.81 725.18 843.75 725.18 Q 830.1 725.18 823.18 719.23 Q 816.27 713.29 816.27 699.65 Q 816.27 692.83 818.31 680.64 Q 820.36 668.46 823.48 653.85 Q 821.53 652.48 817.63 652.48 Q 812.17 652.48 806.72 656.57 Q 801.26 660.67 797.17 671.78 Z M 911.9 614.48 Q 920.67 614.48 927.4 619.06 Q 934.12 623.64 938.02 630.26 L 939.19 630.26 L 939.19 597.13 Q 939.19 591.87 938.51 586.9 Q 937.83 581.93 935.88 577.25 Q 938.99 576.67 942.7 576.08 Q 946.4 575.5 950.1 575.5 Q 958.87 575.5 965.11 578.61 Q 971.35 581.73 974.76 589.24 Q 978.17 596.74 978.17 609.99 L 978.17 701.79 Q 978.17 713.1 980.9 723.42 Q 977.58 724.01 974.47 724.5 Q 971.35 724.98 968.03 724.98 Q 954.39 724.98 947.38 718.16 Q 940.36 711.34 939.38 699.26 L 938.21 699.26 Q 936.46 706.47 931.88 712.41 Q 927.3 718.36 920.77 721.96 Q 914.24 725.57 906.45 725.57 Q 897.87 725.57 890.85 720.11 Q 883.84 714.65 879.74 705.69 Q 875.65 696.72 875.65 686.2 L 875.65 683.67 Q 875.65 657.35 880.43 642.25 Q 885.2 627.14 893.49 620.81 Q 901.77 614.48 911.9 614.48 Z M 916 688.15 Q 916.97 688.54 918.14 688.64 Q 919.31 688.73 920.28 688.73 Q 925.74 688.73 930.61 685.32 Q 935.49 681.91 939.19 673.14 L 939.19 648.78 Q 934.9 646.63 929.44 646.63 Q 923.21 646.63 919.31 651.99 Q 915.41 657.35 915.41 672.95 L 915.41 674.51 Q 915.41 678.79 915.61 682.11 Q 915.8 685.42 916 688.15 Z M 1008.71 700.62 L 1008.71 654.82 L 1007.54 654.82 Q 1006.18 656.57 1003.64 656.57 Q 999.94 656.57 997.31 650.14 Q 994.68 643.71 994.68 632.8 Q 994.68 622.66 996.63 616.04 Q 999.94 615.45 1004.13 615.16 Q 1008.32 614.87 1011.63 614.87 Q 1025.86 614.87 1033.56 616.91 Q 1041.26 618.96 1044.28 622.66 Q 1047.3 626.36 1047.3 631.43 L 1047.3 691.66 Q 1047.3 700.82 1047.98 708.52 Q 1048.66 716.21 1050.81 723.42 Q 1046.52 724.2 1042.62 724.69 Q 1038.72 725.18 1033.66 725.18 Q 1020.01 725.18 1014.36 719.33 Q 1008.71 713.49 1008.71 700.62 Z M 1000.91 572.96 Q 1011.63 570.43 1022.74 570.43 Q 1034.24 570.43 1041.94 573.64 Q 1049.64 576.86 1049.64 585.44 L 1049.64 600.25 Q 1044.77 602 1039.21 602.88 Q 1033.66 603.76 1028.59 603.76 Q 1016.7 603.76 1008.81 599.96 Q 1000.91 596.16 1000.91 587.77 Z M 1097.17 723.42 Q 1090.54 724.59 1083.33 724.59 Q 1069.29 724.59 1064.03 720.11 Q 1058.77 715.63 1058.77 705.69 L 1058.77 641.57 Q 1058.77 626.75 1055.26 616.81 Q 1059.36 616.04 1063.45 615.65 Q 1067.54 615.26 1071.44 615.26 Q 1084.11 615.26 1090.64 621.49 Q 1097.17 627.73 1097.17 641.76 L 1097.17 643.13 L 1098.34 643.13 Q 1103.21 630.46 1112.95 622.37 Q 1122.7 614.28 1133.42 614.28 Q 1137.9 614.28 1142.19 617.69 Q 1146.48 621.1 1149.98 626.66 Q 1153.49 632.21 1155.64 638.94 Q 1157.78 645.66 1157.78 652.29 L 1157.78 694.97 Q 1157.78 703.35 1158.56 710.17 Q 1159.34 716.99 1161.29 723.42 Q 1157 724.2 1152.91 724.69 Q 1148.81 725.18 1143.75 725.18 Q 1130.1 725.18 1123.18 719.23 Q 1116.27 713.29 1116.27 699.65 Q 1116.27 692.83 1118.31 680.64 Q 1120.36 668.46 1123.48 653.85 Q 1121.53 652.48 1117.63 652.48 Q 1112.17 652.48 1106.72 656.57 Q 1101.26 660.67 1097.17 671.78 Z M 1192.22 707.64 Q 1192.22 701.4 1196.02 697.21 Q 1199.82 693.02 1207.03 691.66 L 1207.03 690.49 Q 1191.44 687.37 1183.35 678.31 Q 1175.26 669.24 1175.26 654.63 L 1175.26 653.26 Q 1175.26 634.75 1189.88 624.12 Q 1204.5 613.5 1231.39 613.5 Q 1245.43 613.5 1257.7 614.28 Q 1269.98 615.06 1279.73 616.62 Q 1281.09 621.88 1281.09 629.29 Q 1281.09 646.83 1271.35 646.83 Q 1268.62 646.83 1264.82 646.24 Q 1261.02 645.66 1255.56 645.08 L 1255.56 646.44 Q 1261.8 648.97 1265.21 653.26 Q 1268.62 657.55 1268.62 663.01 L 1268.62 664.57 Q 1268.62 677.62 1257.12 684.93 Q 1245.62 692.24 1226.13 692.24 Q 1225.16 692.24 1224.38 692.24 Q 1223.4 694.38 1223.4 696.92 Q 1223.4 700.62 1231.2 701.21 L 1250.69 702.57 Q 1266.28 703.55 1274.27 709.49 Q 1282.26 715.43 1282.26 726.93 L 1282.26 729.08 Q 1282.26 746.62 1265.01 756.17 Q 1247.76 765.72 1217.56 765.72 L 1215.41 765.72 Q 1195.34 765.72 1183.74 759.48 Q 1172.14 753.24 1172.14 742.53 L 1172.14 739.99 Q 1172.14 722.26 1197.09 720.7 L 1197.09 719.53 Q 1192.22 714.46 1192.22 707.64 Z M 1211.71 663.79 Q 1214.24 664.57 1216.58 664.95 Q 1218.92 665.34 1222.62 665.34 Q 1237.24 665.34 1237.24 654.43 L 1237.24 652.87 Q 1237.24 650.34 1236.66 647.9 Q 1236.07 645.46 1234.9 643.52 Q 1231.39 643.32 1227.69 643.32 Q 1218.34 643.32 1214.24 646.15 Q 1210.15 648.97 1210.15 655.79 L 1210.15 657.16 Q 1210.15 660.47 1211.71 663.79 Z M 1221.45 743.3 L 1223.99 743.3 Q 1229.64 743.3 1234.51 742.91 Q 1239.38 742.53 1243.28 741.75 Q 1245.23 739.8 1245.23 736.48 L 1245.23 734.53 Q 1245.23 731.03 1240.36 730.64 L 1220.28 729.08 Q 1215.22 728.69 1210.73 727.52 Q 1209.17 729.66 1209.17 733.17 L 1209.17 735.31 Q 1209.17 739.6 1212.1 741.45 Q 1215.02 743.3 1221.45 743.3 Z" style="fill: url('#gradient-15-3');"/>
  <path style="fill: url('#gradient-15-4');"/>
  <path d="M 1380.6 723.81 Q 1378.85 724.4 1377.29 724.4 Q 1373 724.4 1371.24 721.57 Q 1369.49 718.75 1369.49 712.71 L 1369.49 596.16 Q 1365.98 596.74 1365.01 596.74 Q 1359.74 596.74 1359.74 588.94 L 1359.74 586.99 Q 1373.97 584.66 1384.5 583.88 Q 1395.02 583.1 1403.6 583.1 Q 1421.53 583.1 1432.25 588.07 Q 1442.97 593.04 1447.64 602.29 Q 1452.32 611.55 1452.32 624.61 L 1452.32 629.29 Q 1452.32 641.57 1447.06 652.09 Q 1441.8 662.62 1432.93 670.51 Q 1424.06 678.4 1412.95 682.89 Q 1401.84 687.37 1390.15 687.37 Q 1386.45 687.37 1384.2 686.49 Q 1381.96 685.61 1380.4 684.06 L 1379.23 684.44 L 1379.23 702.96 Q 1379.23 708.42 1379.53 713.58 Q 1379.82 718.75 1380.6 723.81 Z M 1379.23 607.07 L 1379.23 676.65 Q 1382.94 677.62 1388.78 677.62 Q 1399.31 677.62 1408.96 673.92 Q 1418.6 670.22 1426.21 663.59 Q 1433.81 656.96 1438.19 648 Q 1442.58 639.03 1442.58 628.51 L 1442.58 625.59 Q 1442.58 618.96 1441.31 612.92 Q 1440.04 606.87 1437.12 602 Q 1430.49 596.93 1423.28 594.89 Q 1416.07 592.84 1404.18 592.84 Q 1396.58 592.84 1389.47 593.62 Q 1382.35 594.4 1376.9 595.18 L 1376.51 595.96 Q 1378.26 598.1 1378.75 600.83 Q 1379.23 603.56 1379.23 607.07 Z M 1533.36 654.82 L 1533.36 703.93 Q 1533.36 707.05 1533.55 709.39 Q 1533.75 711.73 1534.33 714.46 Q 1536.67 715.63 1539.4 715.63 Q 1544.27 715.63 1547.78 713.68 L 1548.95 713.68 L 1548.95 715.04 Q 1548.95 720.31 1546.42 722.84 Q 1545.25 724.01 1543.69 724.69 Q 1542.13 725.37 1539.79 725.37 Q 1523.61 725.37 1523.61 704.91 L 1522.25 704.91 Q 1517.38 712.9 1508.31 719.14 Q 1499.25 725.37 1486.58 725.37 Q 1472.94 725.37 1465.34 718.26 Q 1457.74 711.15 1457.74 698.28 L 1457.74 697.31 Q 1457.74 683.28 1467.58 674.89 Q 1477.42 666.51 1494.96 666.51 Q 1503.54 666.51 1511.43 667.68 Q 1519.32 668.85 1523.61 670.22 Q 1523.61 656.57 1523.22 649.66 Q 1522.83 642.74 1521.27 637.08 Q 1513.67 628.7 1493.79 628.7 Q 1485.61 628.7 1477.91 630.17 Q 1470.21 631.63 1465.14 633.97 L 1463.97 633.97 Q 1463.39 632.41 1463.39 630.85 Q 1463.39 626.75 1465.53 624.61 Q 1467.29 622.86 1472.16 621.59 Q 1477.03 620.32 1483.27 619.64 Q 1489.5 618.96 1495.35 618.96 Q 1513.87 618.96 1523.61 628.41 Q 1533.36 637.86 1533.36 654.82 Z M 1467.48 698.09 Q 1467.48 715.43 1486.97 715.43 Q 1495.55 715.43 1505 710.66 Q 1514.45 705.88 1523.61 694.77 L 1523.61 678.4 Q 1516.6 677.04 1509.68 676.65 Q 1502.76 676.26 1495.55 676.26 Q 1486.58 676.26 1480.64 677.92 Q 1474.69 679.57 1470.79 682.5 Q 1469.43 685.22 1468.46 688.83 Q 1467.48 692.44 1467.48 697.5 Z M 1596.84 708.03 Q 1596.84 703.74 1598.88 699.45 Q 1600.93 695.16 1603.85 692.44 L 1603.85 691.46 Q 1589.23 689.32 1580.66 679.96 Q 1572.08 670.61 1572.08 655.6 L 1572.08 654.82 Q 1572.08 638.06 1584.07 628.02 Q 1596.06 617.98 1616.72 617.98 Q 1628.99 617.98 1640.1 618.76 Q 1651.21 619.54 1664.66 620.91 L 1664.66 622.86 Q 1664.66 625.97 1663.78 628.12 Q 1662.91 630.26 1660.37 630.26 Q 1657.06 630.26 1652.38 629.48 Q 1647.7 628.7 1639.71 628.12 L 1639.71 629.29 Q 1645.95 632.8 1650.34 639.72 Q 1654.72 646.63 1654.72 656.77 L 1654.72 657.55 Q 1654.72 667.88 1649.26 675.67 Q 1643.81 683.47 1634.45 687.76 Q 1625.1 692.05 1613.4 692.05 Q 1613.21 692.05 1612.82 692.05 Q 1609.7 695.36 1608.14 699.65 Q 1606.58 703.93 1606.58 707.44 Q 1606.58 710.76 1608.72 712.51 Q 1610.87 714.26 1616.33 714.65 L 1636.01 716.02 Q 1649.65 716.8 1656.18 724.11 Q 1662.71 731.42 1662.71 740.58 L 1662.71 741.16 Q 1662.71 746.42 1660.96 751.88 Q 1659.2 757.34 1654.14 761.92 Q 1649.07 766.5 1639.42 769.32 Q 1629.77 772.15 1613.99 772.15 L 1604.83 772.15 Q 1593.13 772.15 1585.24 768.35 Q 1577.35 764.55 1573.25 758.6 Q 1569.16 752.66 1569.16 746.42 L 1569.16 745.64 Q 1569.16 738.04 1573.06 731.71 Q 1576.96 725.37 1583.68 721.38 Q 1590.4 717.38 1598.78 716.8 L 1598.78 715.63 Q 1596.84 711.93 1596.84 708.03 Z M 1590.01 678.21 Q 1595.47 680.35 1600.93 681.42 Q 1606.39 682.5 1613.01 682.5 Q 1627.44 682.5 1636.21 675.97 Q 1644.98 669.44 1644.98 656.38 L 1644.98 655.6 Q 1644.98 651.9 1643.32 646.54 Q 1641.66 641.18 1637.18 636.01 Q 1632.7 630.85 1624.12 627.14 Q 1620.42 627.14 1616.33 627.14 Q 1600.15 627.14 1590.99 634.55 Q 1581.83 641.96 1581.83 656.96 L 1581.83 657.74 Q 1581.83 661.45 1583.49 667.1 Q 1585.14 672.75 1590.01 678.21 Z M 1607.36 762.99 L 1616.91 762.99 Q 1628.21 762.99 1635.33 761.53 Q 1642.44 760.07 1650.24 756.36 Q 1651.6 754.22 1652.29 750.81 Q 1652.97 747.4 1652.97 744.28 L 1652.97 743.89 Q 1652.97 737.07 1648.48 731.61 Q 1644 726.15 1634.26 725.76 L 1614.96 724.79 Q 1608.72 724.59 1604.24 721.48 Q 1591.38 723.81 1585.14 730.05 Q 1578.91 736.29 1578.91 744.86 L 1578.91 745.84 Q 1578.91 753.05 1586.31 758.02 Q 1593.72 762.99 1607.36 762.99 Z M 1744.51 618.96 Q 1756.6 618.96 1764.68 623.64 Q 1772.77 628.31 1776.77 636.4 Q 1780.76 644.49 1780.76 654.43 L 1780.76 655.21 Q 1780.76 660.08 1780.18 664.86 Q 1779.59 669.63 1778.03 672.85 Q 1776.48 676.06 1773.55 676.06 L 1712.35 676.06 Q 1708.85 676.06 1706.51 674.7 L 1705.53 675.28 Q 1705.53 676.06 1705.53 677.23 L 1705.53 680.55 Q 1705.53 688.34 1707.58 694.97 Q 1709.62 701.6 1713.91 706.66 Q 1719.95 711.54 1726.78 713.58 Q 1733.6 715.63 1743.73 715.63 Q 1755.23 715.63 1763.22 712.51 Q 1771.21 709.39 1778.62 701.99 L 1779.79 701.99 Q 1779.98 702.57 1780.08 703.55 Q 1780.18 704.52 1780.18 706.08 Q 1780.18 711.73 1776.87 715.04 Q 1772.19 719.72 1763.32 722.55 Q 1754.45 725.37 1742.95 725.37 Q 1730.09 725.37 1719.37 720.4 Q 1708.65 715.43 1702.22 705.2 Q 1695.79 694.97 1695.79 679.38 L 1695.79 675.87 Q 1695.79 655.99 1702.61 643.42 Q 1709.43 630.85 1720.54 624.9 Q 1731.65 618.96 1744.51 618.96 Z M 1744.32 628.31 Q 1728.72 628.31 1718.49 638.16 Q 1708.26 648 1706.12 667.29 L 1769.65 667.29 Q 1770.24 664.37 1770.63 661.35 Q 1771.02 658.33 1771.02 655.02 Q 1771.02 646.24 1768.87 640.98 Q 1766.73 635.72 1762.25 631.43 Q 1758.54 629.68 1754.45 629 Q 1750.36 628.31 1744.32 628.31 Z" style="fill: url('#gradient-15-5');"/>
</svg>