<?xml version="1.0" encoding="utf-8"?>
<svg viewBox="0 0 500 500" xmlns="http://www.w3.org/2000/svg">
  <ellipse style="fill: rgb(26, 197, 0);" cx="70.132" cy="282.589" rx="33.903" ry="33.903" transform="matrix(1, 0, 0, 1, 0, -1.4210854715202004e-14)"/>
  <ellipse style="fill: rgb(97, 116, 234);" cx="70.132" cy="353.018" rx="33.903" ry="33.903" transform="matrix(1, 0, 0, 1, 0, -1.4210854715202004e-14)"/>
  <ellipse style="fill: rgb(131, 74, 160);" cx="70.132" cy="423.104" rx="33.903" ry="33.903" transform="matrix(1, 0, 0, 1, 0, -1.4210854715202004e-14)"/>
  <ellipse style="fill: rgb(175, 0, 0);" cx="70.132" cy="71.705" rx="33.903" ry="33.903" transform="matrix(1, 0, 0, 1, 0, -1.4210854715202004e-14)"/>
  <ellipse style="fill: rgb(230, 73, 0);" cx="70.132" cy="142.133" rx="33.903" ry="33.903" transform="matrix(1, 0, 0, 1, 0, -1.4210854715202004e-14)"/>
  <ellipse style="fill: rgb(228, 224, 0);" cx="70.132" cy="212.221" rx="33.903" ry="33.903" transform="matrix(1, 0, 0, 1, 0, -1.4210854715202004e-14)"/>
  <ellipse style="fill: rgb(26, 197, 0);" cx="146.685" cy="361.376" rx="33.903" ry="33.903" transform="matrix(1, 0, 0, 1, 0, -1.4210854715202004e-14)"/>
  <ellipse style="fill: rgb(97, 116, 234);" cx="146.685" cy="431.805" rx="33.903" ry="33.903" transform="matrix(1, 0, 0, 1, 0, -1.4210854715202004e-14)"/>
  <ellipse style="fill: rgb(131, 74, 160);" cx="146.685" cy="501.891" rx="33.903" ry="33.903" transform="matrix(1, 0, 0, 1, 0, -1.4210854715202004e-14)"/>
  <ellipse style="fill: rgb(175, 0, 0);" cx="146.685" cy="150.492" rx="33.903" ry="33.903" transform="matrix(1, 0, 0, 1, 0, -1.4210854715202004e-14)"/>
  <ellipse style="fill: rgb(230, 73, 0);" cx="146.685" cy="220.92" rx="33.903" ry="33.903" transform="matrix(1, 0, 0, 1, 0, -1.4210854715202004e-14)"/>
  <ellipse style="fill: rgb(228, 224, 0);" cx="146.685" cy="291.008" rx="33.903" ry="33.903" transform="matrix(1, 0, 0, 1, 0, -1.4210854715202004e-14)"/>
  <ellipse style="fill: rgb(26, 197, 0);" cx="220.977" cy="216.329" rx="33.903" ry="33.903" transform="matrix(1, 0, 0, 1, 0, -1.4210854715202004e-14)"/>
  <ellipse style="fill: rgb(97, 116, 234);" cx="220.977" cy="286.758" rx="33.903" ry="33.903" transform="matrix(1, 0, 0, 1, 0, -1.4210854715202004e-14)"/>
  <ellipse style="fill: rgb(131, 74, 160);" cx="220.977" cy="356.844" rx="33.903" ry="33.903" transform="matrix(1, 0, 0, 1, 0, -1.4210854715202004e-14)"/>
  <ellipse style="fill: rgb(175, 0, 0);" cx="220.977" cy="5.445" rx="33.903" ry="33.903" transform="matrix(1, 0, 0, 1, 0, -1.4210854715202004e-14)"/>
  <ellipse style="fill: rgb(230, 73, 0);" cx="220.977" cy="75.873" rx="33.903" ry="33.903" transform="matrix(1, 0, 0, 1, 0, -1.4210854715202004e-14)"/>
  <ellipse style="fill: rgb(228, 224, 0);" cx="220.977" cy="145.961" rx="33.903" ry="33.903" transform="matrix(1, 0, 0, 1, 0, -1.4210854715202004e-14)"/>
  <ellipse style="fill: rgb(26, 197, 0);" cx="296.449" cy="428.593" rx="33.903" ry="33.903" transform="matrix(1, 0, 0, 1, 0, -1.4210854715202004e-14)"/>
  <ellipse style="fill: rgb(97, 116, 234);" cx="296.449" cy="499.022" rx="33.903" ry="33.903" transform="matrix(1, 0, 0, 1, 0, -1.4210854715202004e-14)"/>
  <ellipse style="fill: rgb(175, 0, 0);" cx="296.449" cy="217.709" rx="33.903" ry="33.903" transform="matrix(1, 0, 0, 1, 0, -1.4210854715202004e-14)"/>
  <ellipse style="fill: rgb(230, 73, 0);" cx="296.449" cy="288.137" rx="33.903" ry="33.903" transform="matrix(1, 0, 0, 1, 0, -1.4210854715202004e-14)"/>
  <ellipse style="fill: rgb(228, 224, 0);" cx="296.449" cy="358.225" rx="33.903" ry="33.903" transform="matrix(1, 0, 0, 1, 0, -1.4210854715202004e-14)"/>
  <ellipse style="fill: rgb(26, 197, 0);" cx="375.458" cy="285.315" rx="33.903" ry="33.903" transform="matrix(0.7071070075035095, -0.7071070075035095, 0.7071070075035095, 0.7071070075035095, -98.14971307143136, 220.2362703716198)"/>
  <ellipse style="fill: rgb(97, 116, 234);" cx="375.458" cy="355.744" rx="33.903" ry="33.903" transform="matrix(0.7071070075035095, -0.7071070075035095, 0.7071070075035095, 0.7071070075035095, -98.1496978126421, 220.23628563040916)"/>
  <ellipse style="fill: rgb(131, 74, 160);" cx="375.458" cy="425.83" rx="33.903" ry="33.903" transform="matrix(0.7071070075035095, -0.7071070075035095, 0.7071070075035095, 0.7071070075035095, -98.1496672950635, 220.23630088919845)"/>
  <ellipse style="fill: rgb(175, 0, 0);" cx="375.458" cy="74.431" rx="33.903" ry="33.903" transform="matrix(0.7071070075035095, -0.7071070075035095, 0.7071070075035095, 0.7071070075035095, -98.14976647719391, 220.236224595252)"/>
  <ellipse style="fill: rgb(230, 73, 0);" cx="375.458" cy="144.859" rx="33.903" ry="33.903" transform="matrix(0.7071070075035095, -0.7071070075035095, 0.7071070075035095, 0.7071070075035095, -98.14975121840459, 220.2362398540413)"/>
  <ellipse style="fill: rgb(228, 224, 0);" cx="375.458" cy="214.947" rx="33.903" ry="33.903" transform="matrix(0.7071070075035095, -0.7071070075035095, 0.7071070075035095, 0.7071070075035095, -98.14972833022068, 220.23625511283052)"/>
  <ellipse style="fill: rgb(26, 197, 0);" cx="375.458" cy="285.315" rx="33.903" ry="33.903" transform="matrix(0.7071070075035095, -0.7071070075035095, 0.7071070075035095, 0.7071070075035095, -19.729481037400376, 430.14206573578804)"/>
  <ellipse style="fill: rgb(97, 116, 234);" cx="375.458" cy="355.744" rx="33.903" ry="33.903" transform="matrix(0.7071070075035095, -0.7071070075035095, 0.7071070075035095, 0.7071070075035095, -19.729433353683817, 430.1420962533666)"/>
  <ellipse style="fill: rgb(131, 74, 160);" cx="375.458" cy="425.83" rx="33.903" ry="33.903" transform="matrix(0.7071070075035095, -0.7071070075035095, 0.7071070075035095, 0.7071070075035095, -19.729372318526714, 430.1421572885237)"/>
  <ellipse style="fill: rgb(175, 0, 0);" cx="375.458" cy="74.431" rx="33.903" ry="33.903" transform="matrix(0.7071070075035095, -0.7071070075035095, 0.7071070075035095, 0.7071070075035095, -19.729635532641908, 430.1419131478951)"/>
  <ellipse style="fill: rgb(230, 73, 0);" cx="375.458" cy="144.859" rx="33.903" ry="33.903" transform="matrix(0.7071070075035095, -0.7071070075035095, 0.7071070075035095, 0.7071070075035095, -19.729587848925405, 430.14197418305224)"/>
  <ellipse style="fill: rgb(228, 224, 0);" cx="375.458" cy="214.947" rx="33.903" ry="33.903" transform="matrix(0.7071070075035095, -0.7071070075035095, 0.7071070075035095, 0.7071070075035095, -19.729526813768246, 430.1420047006309)"/>
  <ellipse style="fill: rgb(26, 197, 0);" cx="375.458" cy="285.315" rx="33.903" ry="33.903" transform="matrix(0.7071070075035095, -0.7071070075035095, 0.7071070075035095, 0.7071070075035095, -171.85209911841295, 363.51474540702606)"/>
  <ellipse style="fill: rgb(97, 116, 234);" cx="375.458" cy="355.744" rx="33.903" ry="33.903" transform="matrix(0.7071070075035095, -0.7071070075035095, 0.7071070075035095, 0.7071070075035095, -171.85202282446653, 363.51477592460475)"/>
  <ellipse style="fill: rgb(131, 74, 160);" cx="375.458" cy="425.83" rx="33.903" ry="33.903" transform="matrix(0.7071070075035095, -0.7071070075035095, 0.7071070075035095, 0.7071070075035095, -171.8519312717308, 363.51489799491895)"/>
  <ellipse style="fill: rgb(175, 0, 0);" cx="375.458" cy="74.431" rx="33.903" ry="33.903" transform="matrix(0.7071070075035095, -0.7071070075035095, 0.7071070075035095, 0.7071070075035095, -171.85234325904162, 363.5144707488189)"/>
  <ellipse style="fill: rgb(230, 73, 0);" cx="375.458" cy="144.859" rx="33.903" ry="33.903" transform="matrix(0.7071070075035095, -0.7071070075035095, 0.7071070075035095, 0.7071070075035095, -171.85226696509517, 363.5145623015546)"/>
  <ellipse style="fill: rgb(228, 224, 0);" cx="375.458" cy="214.947" rx="33.903" ry="33.903" transform="matrix(0.7071070075035095, -0.7071070075035095, 0.7071070075035095, 0.7071070075035095, -171.85217541235943, 363.51462333671174)"/>
  <ellipse style="fill: rgb(26, 197, 0);" cx="375.458" cy="285.315" rx="33.903" ry="33.903" transform="matrix(0.7071070075035095, -0.7071070075035095, 0.7071070075035095, 0.7071070075035095, -246.73414979478935, 283.3260540265746)"/>
  <ellipse style="fill: rgb(97, 116, 234);" cx="375.458" cy="355.744" rx="33.903" ry="33.903" transform="matrix(0.7071070075035095, -0.7071070075035095, 0.7071070075035095, 0.7071070075035095, -246.73402772447503, 283.3261150617318)"/>
  <ellipse style="fill: rgb(131, 74, 160);" cx="375.458" cy="425.83" rx="33.903" ry="33.903" transform="matrix(0.7071070075035095, -0.7071070075035095, 0.7071070075035095, 0.7071070075035095, -246.73392091294997, 283.3262981672032)"/>
  <ellipse style="fill: rgb(175, 0, 0);" cx="375.458" cy="74.431" rx="33.903" ry="33.903" transform="matrix(0.7071070075035095, -0.7071070075035095, 0.7071070075035095, 0.7071070075035095, -246.73450074694298, 283.3256878156316)"/>
  <ellipse style="fill: rgb(230, 73, 0);" cx="375.458" cy="144.859" rx="33.903" ry="33.903" transform="matrix(0.7071070075035095, -0.7071070075035095, 0.7071070075035095, 0.7071070075035095, -246.73439393541798, 283.3257793683674)"/>
  <ellipse style="fill: rgb(228, 224, 0);" cx="375.458" cy="214.947" rx="33.903" ry="33.903" transform="matrix(0.7071070075035095, -0.7071070075035095, 0.7071070075035095, 0.7071070075035095, -246.73424134752509, 283.32590143868174)"/>
  <ellipse style="fill: rgb(26, 197, 0);" cx="375.458" cy="285.315" rx="33.903" ry="33.903" transform="matrix(0.6726449728012085, 0.73996502161026, -0.73996502161026, 0.6726449728012085, 76.27471274546849, -299.1283613909536)"/>
  <ellipse style="fill: rgb(97, 116, 234);" cx="375.458" cy="355.744" rx="33.903" ry="33.903" transform="matrix(0.6726449728012085, 0.73996502161026, -0.73996502161026, 0.6726449728012085, 76.27463645152204, -299.1282393206393)"/>
  <ellipse style="fill: rgb(131, 74, 160);" cx="375.458" cy="425.83" rx="33.903" ry="33.903" transform="matrix(0.6726449728012085, 0.73996502161026, -0.73996502161026, 0.6726449728012085, 76.27446860483985, -299.12817828548214)"/>
  <ellipse style="fill: rgb(175, 0, 0);" cx="375.458" cy="74.431" rx="33.903" ry="33.903" transform="matrix(0.6726449728012085, 0.73996502161026, -0.73996502161026, 0.6726449728012085, 76.275002662465, -299.12863604916083)"/>
  <ellipse style="fill: rgb(230, 73, 0);" cx="375.458" cy="144.859" rx="33.903" ry="33.903" transform="matrix(0.6726449728012085, 0.73996502161026, -0.73996502161026, 0.6726449728012085, 76.27492636851855, -299.1285444964251)"/>
  <ellipse style="fill: rgb(228, 224, 0);" cx="375.458" cy="214.947" rx="33.903" ry="33.903" transform="matrix(0.6726449728012085, 0.73996502161026, -0.73996502161026, 0.6726449728012085, 76.27481955699352, -299.1284224261108)"/>
  <ellipse style="fill: rgb(26, 197, 0);" cx="375.458" cy="285.315" rx="33.903" ry="33.903" transform="matrix(0.6726449728012085, 0.73996502161026, -0.73996502161026, 0.6726449728012085, 125.80291172568366, -318.5859422473004)"/>
  <ellipse style="fill: rgb(97, 116, 234);" cx="375.458" cy="355.744" rx="33.903" ry="33.903" transform="matrix(0.6726449728012085, 0.73996502161026, -0.73996502161026, 0.6726449728012085, 125.80286594931579, -318.5858201769861)"/>
  <ellipse style="fill: rgb(131, 74, 160);" cx="375.458" cy="425.83" rx="33.903" ry="33.903" transform="matrix(0.6726449728012085, 0.73996502161026, -0.73996502161026, 0.6726449728012085, 125.80272862021218, -318.5858201769861)"/>
  <ellipse style="fill: rgb(175, 0, 0);" cx="375.458" cy="74.431" rx="33.903" ry="33.903" transform="matrix(0.6726449728012085, 0.73996502161026, -0.73996502161026, 0.6726449728012085, 125.80312534873366, -318.5861253527719)"/>
  <ellipse style="fill: rgb(230, 73, 0);" cx="375.458" cy="144.859" rx="33.903" ry="33.903" transform="matrix(0.6726449728012085, 0.73996502161026, -0.73996502161026, 0.6726449728012085, 125.80307957236579, -318.5860643176147)"/>
  <ellipse style="fill: rgb(228, 224, 0);" cx="375.458" cy="214.947" rx="33.903" ry="33.903" transform="matrix(0.6726449728012085, 0.73996502161026, -0.73996502161026, 0.6726449728012085, 125.8030032784194, -318.585972764879)"/>
  <ellipse style="fill: rgb(26, 197, 0);" cx="375.458" cy="285.315" rx="33.903" ry="33.903" transform="matrix(0.6726449728012085, 0.73996502161026, -0.73996502161026, 0.6726449728012085, -25.730148698838775, -256.67557145171713)"/>
  <ellipse style="fill: rgb(97, 116, 234);" cx="375.458" cy="355.744" rx="33.903" ry="33.903" transform="matrix(0.6726449728012085, 0.73996502161026, -0.73996502161026, 0.6726449728012085, -25.730192567857983, -256.67544938140276)"/>
  <ellipse style="fill: rgb(175, 0, 0);" cx="375.458" cy="74.431" rx="33.903" ry="33.903" transform="matrix(0.6726449728012085, 0.73996502161026, -0.73996502161026, 0.6726449728012085, -25.729935075788717, -256.6757545571886)"/>
  <ellipse style="fill: rgb(230, 73, 0);" cx="375.458" cy="144.859" rx="33.903" ry="33.903" transform="matrix(0.6726449728012085, 0.73996502161026, -0.73996502161026, 0.6726449728012085, -25.729980852156586, -256.67569352203145)"/>
  <ellipse style="fill: rgb(228, 224, 0);" cx="375.458" cy="214.947" rx="33.903" ry="33.903" transform="matrix(0.6726449728012085, 0.73996502161026, -0.73996502161026, 0.6726449728012085, -25.730057146103007, -256.67557145171713)"/>
  <ellipse style="fill: rgb(26, 197, 0);" cx="375.458" cy="285.315" rx="33.903" ry="33.903" transform="matrix(0.6726449728012085, 0.73996502161026, -0.73996502161026, 0.6726449728012085, -78.79618189925225, -232.5010410621917)"/>
  <ellipse style="fill: rgb(175, 0, 0);" cx="375.458" cy="74.431" rx="33.903" ry="33.903" transform="matrix(0.6726449728012085, 0.73996502161026, -0.73996502161026, 0.6726449728012085, -78.7959759055968, -232.50125468524175)"/>
  <ellipse style="fill: rgb(230, 73, 0);" cx="375.458" cy="144.859" rx="33.903" ry="33.903" transform="matrix(0.6726449728012085, 0.73996502161026, -0.73996502161026, 0.6726449728012085, -78.7960216819647, -232.501163132506)"/>
  <ellipse style="fill: rgb(228, 224, 0);" cx="375.458" cy="214.947" rx="33.903" ry="33.903" transform="matrix(0.6726449728012085, 0.73996502161026, -0.73996502161026, 0.6726449728012085, -78.79609797591115, -232.50108683855956)"/>
  <ellipse style="fill: rgb(26, 197, 0);" cx="375.458" cy="285.315" rx="33.903" ry="33.903" transform="matrix(0.6726449728012085, 0.73996502161026, -0.73996502161026, 0.6726449728012085, 1.3925060241297729, -150.5434745333116)"/>
  <ellipse style="fill: rgb(97, 116, 234);" cx="375.458" cy="355.744" rx="33.903" ry="33.903" transform="matrix(0.6726449728012085, 0.73996502161026, -0.73996502161026, 0.6726449728012085, 1.392461082226987, -150.54338298057587)"/>
  <ellipse style="fill: rgb(175, 0, 0);" cx="375.458" cy="74.431" rx="33.903" ry="33.903" transform="matrix(0.6726449728012085, 0.73996502161026, -0.73996502161026, 0.6726449728012085, 1.3927120177851862, -150.54367289757238)"/>
  <ellipse style="fill: rgb(230, 73, 0);" cx="375.458" cy="144.859" rx="33.903" ry="33.903" transform="matrix(0.6726449728012085, 0.73996502161026, -0.73996502161026, 0.6726449728012085, 1.3926660029987659, -150.54359660362593)"/>
  <ellipse style="fill: rgb(228, 224, 0);" cx="375.458" cy="214.947" rx="33.903" ry="33.903" transform="matrix(0.6726449728012085, 0.73996502161026, -0.73996502161026, 0.6726449728012085, 1.3925900666801851, -150.5435050508902)"/>
  <ellipse style="fill: rgb(26, 197, 0);" cx="375.458" cy="285.315" rx="33.903" ry="33.903" transform="matrix(0.6726449728012085, 0.73996502161026, -0.73996502161026, 0.6726449728012085, 43.25571124636696, -172.94912977440845)"/>
  <ellipse style="fill: rgb(97, 116, 234);" cx="375.458" cy="355.744" rx="33.903" ry="33.903" transform="matrix(0.6726449728012085, 0.73996502161026, -0.73996502161026, 0.6726449728012085, 43.25566546999909, -172.9490382216727)"/>
  <ellipse style="fill: rgb(131, 74, 160);" cx="375.458" cy="425.83" rx="33.903" ry="33.903" transform="matrix(0.6726449728012085, 0.73996502161026, -0.73996502161026, 0.6726449728012085, 43.25552051150083, -172.94900770409413)"/>
  <ellipse style="fill: rgb(175, 0, 0);" cx="375.458" cy="74.431" rx="33.903" ry="33.903" transform="matrix(0.6726449728012085, 0.73996502161026, -0.73996502161026, 0.6726449728012085, 43.25591724002237, -172.94932813866922)"/>
  <ellipse style="fill: rgb(230, 73, 0);" cx="375.458" cy="144.859" rx="33.903" ry="33.903" transform="matrix(0.6726449728012085, 0.73996502161026, -0.73996502161026, 0.6726449728012085, 43.255863834259856, -172.94925184472277)"/>
  <ellipse style="fill: rgb(228, 224, 0);" cx="375.458" cy="214.947" rx="33.903" ry="33.903" transform="matrix(0.6726449728012085, 0.73996502161026, -0.73996502161026, 0.6726449728012085, 43.255787540313406, -172.94916029198703)"/>
  <ellipse style="fill: rgb(26, 197, 0);" cx="375.458" cy="285.315" rx="33.903" ry="33.903" transform="matrix(0.6726449728012085, 0.73996502161026, -0.73996502161026, 0.6726449728012085, 204.56663818011634, -107.4846283716653)"/>
  <ellipse style="fill: rgb(97, 116, 234);" cx="375.458" cy="355.744" rx="33.903" ry="33.903" transform="matrix(0.6726449728012085, 0.73996502161026, -0.73996502161026, 0.6726449728012085, 204.56659240374847, -107.48453681892954)"/>
  <ellipse style="fill: rgb(131, 74, 160);" cx="375.458" cy="425.83" rx="33.903" ry="33.903" transform="matrix(0.6726449728012085, 0.73996502161026, -0.73996502161026, 0.6726449728012085, 204.56645507464486, -107.48450630135098)"/>
  <ellipse style="fill: rgb(175, 0, 0);" cx="375.458" cy="74.431" rx="33.903" ry="33.903" transform="matrix(0.6726449728012085, 0.73996502161026, -0.73996502161026, 0.6726449728012085, 204.56685180316646, -107.48483436532071)"/>
  <ellipse style="fill: rgb(230, 73, 0);" cx="375.458" cy="144.859" rx="33.903" ry="33.903" transform="matrix(0.6726449728012085, 0.73996502161026, -0.73996502161026, 0.6726449728012085, 204.5668060267986, -107.48475807137424)"/>
  <ellipse style="fill: rgb(228, 224, 0);" cx="375.458" cy="214.947" rx="33.903" ry="33.903" transform="matrix(0.6726449728012085, 0.73996502161026, -0.73996502161026, 0.6726449728012085, 204.56672973285208, -107.48465888924386)"/>
  <ellipse style="fill: rgb(26, 197, 0);" cx="375.458" cy="285.315" rx="33.903" ry="33.903" transform="matrix(0.6726449728012085, 0.73996502161026, -0.73996502161026, 0.6726449728012085, 155.03831712958686, -101.58837279064016)"/>
  <ellipse style="fill: rgb(97, 116, 234);" cx="375.458" cy="355.744" rx="33.903" ry="33.903" transform="matrix(0.6726449728012085, 0.73996502161026, -0.73996502161026, 0.6726449728012085, 155.038271353219, -101.58828123790444)"/>
  <ellipse style="fill: rgb(131, 74, 160);" cx="375.458" cy="425.83" rx="33.903" ry="33.903" transform="matrix(0.6726449728012085, 0.73996502161026, -0.73996502161026, 0.6726449728012085, 155.03813402411538, -101.58825072032585)"/>
  <ellipse style="fill: rgb(175, 0, 0);" cx="375.458" cy="74.431" rx="33.903" ry="33.903" transform="matrix(0.6726449728012085, 0.73996502161026, -0.73996502161026, 0.6726449728012085, 155.03851549384763, -101.58857878429559)"/>
  <ellipse style="fill: rgb(230, 73, 0);" cx="375.458" cy="144.859" rx="33.903" ry="33.903" transform="matrix(0.6726449728012085, 0.73996502161026, -0.73996502161026, 0.6726449728012085, 155.03846971747976, -101.58850249034913)"/>
  <ellipse style="fill: rgb(228, 224, 0);" cx="375.458" cy="214.947" rx="33.903" ry="33.903" transform="matrix(0.6726449728012085, 0.73996502161026, -0.73996502161026, 0.6726449728012085, 155.0383934235333, -101.58840330821876)"/>
  <ellipse style="fill: rgb(26, 197, 0);" cx="375.458" cy="285.315" rx="33.903" ry="33.903" transform="matrix(-0.998866081237793, -0.04760200157761574, 0.04760200157761574, -0.998866081237793, 762.5128897802961, 550.2957845672336)"/>
  <ellipse style="fill: rgb(97, 116, 234);" cx="375.458" cy="355.744" rx="33.903" ry="33.903" transform="matrix(-0.998866081237793, -0.04760200157761574, 0.04760200157761574, -0.998866081237793, 762.5128897802961, 550.2957235320764)"/>
  <ellipse style="fill: rgb(131, 74, 160);" cx="375.458" cy="425.83" rx="33.903" ry="33.903" transform="matrix(-0.998866081237793, -0.04760200157761574, 0.04760200157761574, -0.998866081237793, 762.5128897802961, 550.2956624969192)"/>
  <ellipse style="fill: rgb(175, 0, 0);" cx="375.458" cy="74.431" rx="33.903" ry="33.903" transform="matrix(-0.998866081237793, -0.04760200157761574, 0.04760200157761574, -0.998866081237793, 762.5128897802961, 550.2960897430194)"/>
  <ellipse style="fill: rgb(230, 73, 0);" cx="375.458" cy="144.859" rx="33.903" ry="33.903" transform="matrix(-0.998866081237793, -0.04760200157761574, 0.04760200157761574, -0.998866081237793, 762.5128287451389, 550.2960287078622)"/>
  <ellipse style="fill: rgb(228, 224, 0);" cx="375.458" cy="214.947" rx="33.903" ry="33.903" transform="matrix(-0.998866081237793, -0.04760200157761574, 0.04760200157761574, -0.998866081237793, 762.5128897802961, 550.2958456023907)"/>
  <ellipse style="fill: rgb(26, 197, 0);" cx="375.458" cy="285.315" rx="33.903" ry="33.903" transform="matrix(-0.998866081237793, -0.04760200157761574, 0.04760200157761574, -0.998866081237793, 683.5036722943732, 338.6211903485832)"/>
  <ellipse style="fill: rgb(97, 116, 234);" cx="375.458" cy="355.744" rx="33.903" ry="33.903" transform="matrix(-0.998866081237793, -0.04760200157761574, 0.04760200157761574, -0.998866081237793, 683.5036722943732, 338.6211293134261)"/>
  <ellipse style="fill: rgb(175, 0, 0);" cx="375.458" cy="74.431" rx="33.903" ry="33.903" transform="matrix(-0.998866081237793, -0.04760200157761574, 0.04760200157761574, -0.998866081237793, 683.5036722943732, 338.62137345405466)"/>
  <ellipse style="fill: rgb(230, 73, 0);" cx="375.458" cy="144.859" rx="33.903" ry="33.903" transform="matrix(-0.998866081237793, -0.04760200157761574, 0.04760200157761574, -0.998866081237793, 683.503611259216, 338.6213124188975)"/>
  <ellipse style="fill: rgb(228, 224, 0);" cx="375.458" cy="214.947" rx="33.903" ry="33.903" transform="matrix(-0.998866081237793, -0.04760200157761574, 0.04760200157761574, -0.998866081237793, 683.5036722943732, 338.6211598310046)"/>
  <ellipse style="fill: rgb(26, 197, 0);" cx="375.458" cy="285.315" rx="33.903" ry="33.903" transform="matrix(-0.998866081237793, -0.04760200157761574, 0.04760200157761574, -0.998866081237793, 660.5083716587478, 592.7485439888915)"/>
  <ellipse style="fill: rgb(97, 116, 234);" cx="375.458" cy="355.744" rx="33.903" ry="33.903" transform="matrix(-0.998866081237793, -0.04760200157761574, 0.04760200157761574, -0.998866081237793, 660.5083716587478, 592.7486050240487)"/>
  <ellipse style="fill: rgb(131, 74, 160);" cx="375.458" cy="425.83" rx="33.903" ry="33.903" transform="matrix(-0.998866081237793, -0.04760200157761574, 0.04760200157761574, -0.998866081237793, 660.5083716587478, 592.7485439888915)"/>
  <ellipse style="fill: rgb(175, 0, 0);" cx="375.458" cy="74.431" rx="33.903" ry="33.903" transform="matrix(-0.998866081237793, -0.04760200157761574, 0.04760200157761574, -0.998866081237793, 660.5083716587478, 592.7487881295201)"/>
  <ellipse style="fill: rgb(230, 73, 0);" cx="375.458" cy="144.859" rx="33.903" ry="33.903" transform="matrix(-0.998866081237793, -0.04760200157761574, 0.04760200157761574, -0.998866081237793, 660.5083106235907, 592.7487881295201)"/>
  <ellipse style="fill: rgb(228, 224, 0);" cx="375.458" cy="214.947" rx="33.903" ry="33.903" transform="matrix(-0.998866081237793, -0.04760200157761574, 0.04760200157761574, -0.998866081237793, 660.5083716587478, 592.7486050240487)"/>
  <ellipse style="fill: rgb(26, 197, 0);" cx="375.458" cy="285.315" rx="33.903" ry="33.903" transform="matrix(-0.998866081237793, -0.04760200157761574, 0.04760200157761574, -0.998866081237793, 662.8668311665481, 546.1684651697942)"/>
  <ellipse style="fill: rgb(97, 116, 234);" cx="375.458" cy="355.744" rx="33.903" ry="33.903" transform="matrix(-0.998866081237793, -0.04760200157761574, 0.04760200157761574, -0.998866081237793, 662.8668311665481, 546.1684651697942)"/>
  <ellipse style="fill: rgb(131, 74, 160);" cx="375.458" cy="425.83" rx="33.903" ry="33.903" transform="matrix(-0.998866081237793, -0.04760200157761574, 0.04760200157761574, -0.998866081237793, 662.8668311665481, 546.1684041346371)"/>
  <ellipse style="fill: rgb(175, 0, 0);" cx="375.458" cy="74.431" rx="33.903" ry="33.903" transform="matrix(-0.998866081237793, -0.04760200157761574, 0.04760200157761574, -0.998866081237793, 662.8668311665481, 546.1687093104229)"/>
  <ellipse style="fill: rgb(230, 73, 0);" cx="375.458" cy="144.859" rx="33.903" ry="33.903" transform="matrix(-0.998866081237793, -0.04760200157761574, 0.04760200157761574, -0.998866081237793, 662.8667701313907, 546.1686482752657)"/>
  <ellipse style="fill: rgb(228, 224, 0);" cx="375.458" cy="214.947" rx="33.903" ry="33.903" transform="matrix(-0.998866081237793, -0.04760200157761574, 0.04760200157761574, -0.998866081237793, 662.8668311665481, 546.1684651697942)"/>
  <ellipse style="fill: rgb(26, 197, 0);" cx="375.458" cy="285.315" rx="33.903" ry="33.903" transform="matrix(-0.998866081237793, -0.04760200157761574, 0.04760200157761574, -0.998866081237793, 606.263070557461, 483.66849475605017)"/>
  <ellipse style="fill: rgb(97, 116, 234);" cx="375.458" cy="355.744" rx="33.903" ry="33.903" transform="matrix(-0.998866081237793, -0.04760200157761574, 0.04760200157761574, -0.998866081237793, 606.263070557461, 483.668433720893)"/>
  <ellipse style="fill: rgb(131, 74, 160);" cx="375.458" cy="425.83" rx="33.903" ry="33.903" transform="matrix(-0.998866081237793, -0.04760200157761574, 0.04760200157761574, -0.998866081237793, 606.263070557461, 483.6684032033144)"/>
  <ellipse style="fill: rgb(175, 0, 0);" cx="375.458" cy="74.431" rx="33.903" ry="33.903" transform="matrix(-0.998866081237793, -0.04760200157761574, 0.04760200157761574, -0.998866081237793, 606.263070557461, 483.66867786152164)"/>
  <ellipse style="fill: rgb(230, 73, 0);" cx="375.458" cy="144.859" rx="33.903" ry="33.903" transform="matrix(-0.998866081237793, -0.04760200157761574, 0.04760200157761574, -0.998866081237793, 606.263009522304, 483.66864734394306)"/>
  <ellipse style="fill: rgb(228, 224, 0);" cx="375.458" cy="214.947" rx="33.903" ry="33.903" transform="matrix(-0.998866081237793, -0.04760200157761574, 0.04760200157761574, -0.998866081237793, 606.263070557461, 483.6684642384716)"/>
  <ellipse style="fill: rgb(26, 197, 0);" cx="375.458" cy="285.315" rx="33.903" ry="33.903" transform="matrix(-0.998866081237793, -0.04760200157761574, 0.04760200157761574, -0.998866081237793, 615.6969696238185, 553.8335043465122)"/>
  <ellipse style="fill: rgb(97, 116, 234);" cx="375.458" cy="355.744" rx="33.903" ry="33.903" transform="matrix(-0.998866081237793, -0.04760200157761574, 0.04760200157761574, -0.998866081237793, 615.6969696238185, 553.8335043465122)"/>
  <ellipse style="fill: rgb(131, 74, 160);" cx="375.458" cy="425.83" rx="33.903" ry="33.903" transform="matrix(-0.998866081237793, -0.04760200157761574, 0.04760200157761574, -0.998866081237793, 615.6969696238185, 553.8335043465122)"/>
  <ellipse style="fill: rgb(175, 0, 0);" cx="375.458" cy="74.431" rx="33.903" ry="33.903" transform="matrix(-0.998866081237793, -0.04760200157761574, 0.04760200157761574, -0.998866081237793, 615.6969696238185, 553.8337484871408)"/>
  <ellipse style="fill: rgb(230, 73, 0);" cx="375.458" cy="144.859" rx="33.903" ry="33.903" transform="matrix(-0.998866081237793, -0.04760200157761574, 0.04760200157761574, -0.998866081237793, 615.6969085886611, 553.8336874519837)"/>
  <ellipse style="fill: rgb(228, 224, 0);" cx="375.458" cy="214.947" rx="33.903" ry="33.903" transform="matrix(-0.998866081237793, -0.04760200157761574, 0.04760200157761574, -0.998866081237793, 615.6969696238185, 553.8335653816694)"/>
  <ellipse style="fill: rgb(26, 197, 0);" cx="375.458" cy="285.315" rx="33.903" ry="33.903" transform="matrix(-0.998866081237793, -0.04760200157761574, 0.04760200157761574, -0.998866081237793, 580.9093104140356, 329.7769214179652)"/>
  <ellipse style="fill: rgb(175, 0, 0);" cx="375.458" cy="74.431" rx="33.903" ry="33.903" transform="matrix(-0.998866081237793, -0.04760200157761574, 0.04760200157761574, -0.998866081237793, 580.9093104140356, 329.77710452343666)"/>
  <ellipse style="fill: rgb(230, 73, 0);" cx="375.458" cy="144.859" rx="33.903" ry="33.903" transform="matrix(-0.998866081237793, -0.04760200157761574, 0.04760200157761574, -0.998866081237793, 580.9092493788784, 329.7770434882795)"/>
  <ellipse style="fill: rgb(228, 224, 0);" cx="375.458" cy="214.947" rx="33.903" ry="33.903" transform="matrix(-0.998866081237793, -0.04760200157761574, 0.04760200157761574, -0.998866081237793, 580.9093104140356, 329.7768909003866)"/>
  <ellipse style="fill: rgb(26, 197, 0);" cx="375.458" cy="285.315" rx="33.903" ry="33.903" transform="matrix(-0.998866081237793, -0.04760200157761574, 0.04760200157761574, -0.998866081237793, 539.6357502286991, 333.3146411972438)"/>
  <ellipse style="fill: rgb(175, 0, 0);" cx="375.458" cy="74.431" rx="33.903" ry="33.903" transform="matrix(-0.998866081237793, -0.04760200157761574, 0.04760200157761574, -0.998866081237793, 539.6357502286991, 333.3148548202939)"/>
  <ellipse style="fill: rgb(230, 73, 0);" cx="375.458" cy="144.859" rx="33.903" ry="33.903" transform="matrix(-0.998866081237793, -0.04760200157761574, 0.04760200157761574, -0.998866081237793, 539.635689193542, 333.3148243027153)"/>
  <ellipse style="fill: rgb(228, 224, 0);" cx="375.458" cy="214.947" rx="33.903" ry="33.903" transform="matrix(-0.998866081237793, -0.04760200157761574, 0.04760200157761574, -0.998866081237793, 539.6357502286991, 333.3146411972438)"/>
  <ellipse style="fill: rgb(26, 197, 0);" cx="375.458" cy="285.315" rx="33.903" ry="33.903" transform="matrix(-0.998866081237793, -0.04760200157761574, 0.04760200157761574, -0.998866081237793, 511.92343902473795, 525.5315630068117)"/>
  <ellipse style="fill: rgb(97, 116, 234);" cx="375.458" cy="355.744" rx="33.903" ry="33.903" transform="matrix(-0.998866081237793, -0.04760200157761574, 0.04760200157761574, -0.998866081237793, 511.92343902473795, 525.5316240419688)"/>
  <ellipse style="fill: rgb(131, 74, 160);" cx="375.458" cy="425.83" rx="33.903" ry="33.903" transform="matrix(-0.998866081237793, -0.04760200157761574, 0.04760200157761574, -0.998866081237793, 511.92343902473795, 525.5315630068117)"/>
  <ellipse style="fill: rgb(175, 0, 0);" cx="375.458" cy="74.431" rx="33.903" ry="33.903" transform="matrix(-0.998866081237793, -0.04760200157761574, 0.04760200157761574, -0.998866081237793, 511.92343902473795, 525.5317461122831)"/>
  <ellipse style="fill: rgb(230, 73, 0);" cx="375.458" cy="144.859" rx="33.903" ry="33.903" transform="matrix(-0.998866081237793, -0.04760200157761574, 0.04760200157761574, -0.998866081237793, 511.9233779895808, 525.5318071474403)"/>
  <ellipse style="fill: rgb(228, 224, 0);" cx="375.458" cy="214.947" rx="33.903" ry="33.903" transform="matrix(-0.998866081237793, -0.04760200157761574, 0.04760200157761574, -0.998866081237793, 511.92343902473795, 525.5316240419688)"/>
  <ellipse style="fill: rgb(26, 197, 0);" cx="375.458" cy="285.315" rx="33.903" ry="33.903" transform="matrix(-0.998866081237793, -0.04760200157761574, 0.04760200157761574, -0.998866081237793, 501.3101881341663, 483.0787730675751)"/>
  <ellipse style="fill: rgb(97, 116, 234);" cx="375.458" cy="355.744" rx="33.903" ry="33.903" transform="matrix(-0.998866081237793, -0.04760200157761574, 0.04760200157761574, -0.998866081237793, 501.3101881341663, 483.07871203241797)"/>
  <ellipse style="fill: rgb(131, 74, 160);" cx="375.458" cy="425.83" rx="33.903" ry="33.903" transform="matrix(-0.998866081237793, -0.04760200157761574, 0.04760200157761574, -0.998866081237793, 501.3101881341663, 483.0786815148394)"/>
  <ellipse style="fill: rgb(175, 0, 0);" cx="375.458" cy="74.431" rx="33.903" ry="33.903" transform="matrix(-0.998866081237793, -0.04760200157761574, 0.04760200157761574, -0.998866081237793, 501.3101881341663, 483.0789561730466)"/>
  <ellipse style="fill: rgb(230, 73, 0);" cx="375.458" cy="144.859" rx="33.903" ry="33.903" transform="matrix(-0.998866081237793, -0.04760200157761574, 0.04760200157761574, -0.998866081237793, 501.31012709900915, 483.078925655468)"/>
  <ellipse style="fill: rgb(228, 224, 0);" cx="375.458" cy="214.947" rx="33.903" ry="33.903" transform="matrix(-0.998866081237793, -0.04760200157761574, 0.04760200157761574, -0.998866081237793, 501.3101881341663, 483.07874254999666)"/>
  <ellipse style="fill: rgb(26, 197, 0);" cx="375.458" cy="285.315" rx="33.903" ry="33.903" transform="matrix(-0.998866081237793, -0.04760200157761574, 0.04760200157761574, -0.998866081237793, 459.4470588482476, 503.71555316024336)"/>
  <ellipse style="fill: rgb(97, 116, 234);" cx="375.458" cy="355.744" rx="33.903" ry="33.903" transform="matrix(-0.998866081237793, -0.04760200157761574, 0.04760200157761574, -0.998866081237793, 459.4470588482476, 503.7155226426648)"/>
  <ellipse style="fill: rgb(131, 74, 160);" cx="375.458" cy="425.83" rx="33.903" ry="33.903" transform="matrix(-0.998866081237793, -0.04760200157761574, 0.04760200157761574, -0.998866081237793, 459.4470588482476, 503.7155226426648)"/>
  <ellipse style="fill: rgb(175, 0, 0);" cx="375.458" cy="74.431" rx="33.903" ry="33.903" transform="matrix(-0.998866081237793, -0.04760200157761574, 0.04760200157761574, -0.998866081237793, 459.4470588482476, 503.71573626571484)"/>
  <ellipse style="fill: rgb(230, 73, 0);" cx="375.458" cy="144.859" rx="33.903" ry="33.903" transform="matrix(-0.998866081237793, -0.04760200157761574, 0.04760200157761574, -0.998866081237793, 459.44699781309066, 503.71573626571484)"/>
  <ellipse style="fill: rgb(228, 224, 0);" cx="375.458" cy="214.947" rx="33.903" ry="33.903" transform="matrix(-0.998866081237793, -0.04760200157761574, 0.04760200157761574, -0.998866081237793, 459.4470588482476, 503.71558367782194)"/>
  <ellipse style="fill: rgb(26, 197, 0);" cx="375.458" cy="285.315" rx="33.903" ry="33.903" transform="matrix(-0.998866081237793, -0.04760200157761574, 0.04760200157761574, -0.998866081237793, 431.1451175085472, 399.35239242542366)"/>
  <ellipse style="fill: rgb(97, 116, 234);" cx="375.458" cy="355.744" rx="33.903" ry="33.903" transform="matrix(-0.998866081237793, -0.04760200157761574, 0.04760200157761574, -0.998866081237793, 431.1451175085472, 399.3523313902665)"/>
  <ellipse style="fill: rgb(175, 0, 0);" cx="375.458" cy="74.431" rx="33.903" ry="33.903" transform="matrix(-0.998866081237793, -0.04760200157761574, 0.04760200157761574, -0.998866081237793, 431.1451175085472, 399.35257553089514)"/>
  <ellipse style="fill: rgb(230, 73, 0);" cx="375.458" cy="144.859" rx="33.903" ry="33.903" transform="matrix(-0.998866081237793, -0.04760200157761574, 0.04760200157761574, -0.998866081237793, 431.14505647339, 399.352514495738)"/>
  <ellipse style="fill: rgb(228, 224, 0);" cx="375.458" cy="214.947" rx="33.903" ry="33.903" transform="matrix(-0.998866081237793, -0.04760200157761574, 0.04760200157761574, -0.998866081237793, 431.1451175085472, 399.352361907845)"/>
  <ellipse style="fill: rgb(26, 197, 0);" cx="375.458" cy="285.315" rx="33.903" ry="33.903" transform="matrix(-0.998866081237793, -0.04760200157761574, 0.04760200157761574, -0.998866081237793, 379.25833695021765, 421.1684022719919)"/>
  <ellipse style="fill: rgb(97, 116, 234);" cx="375.458" cy="355.744" rx="33.903" ry="33.903" transform="matrix(-0.998866081237793, -0.04760200157761574, 0.04760200157761574, -0.998866081237793, 379.25833695021765, 421.1683717544133)"/>
  <ellipse style="fill: rgb(131, 74, 160);" cx="375.458" cy="425.83" rx="33.903" ry="33.903" transform="matrix(-0.998866081237793, -0.04760200157761574, 0.04760200157761574, -0.998866081237793, 379.25833695021765, 421.1683717544133)"/>
  <ellipse style="fill: rgb(175, 0, 0);" cx="375.458" cy="74.431" rx="33.903" ry="33.903" transform="matrix(-0.998866081237793, -0.04760200157761574, 0.04760200157761574, -0.998866081237793, 379.25833695021765, 421.16858537746333)"/>
  <ellipse style="fill: rgb(230, 73, 0);" cx="375.458" cy="144.859" rx="33.903" ry="33.903" transform="matrix(-0.998866081237793, -0.04760200157761574, 0.04760200157761574, -0.998866081237793, 379.2582759150605, 421.16858537746333)"/>
  <ellipse style="fill: rgb(228, 224, 0);" cx="375.458" cy="214.947" rx="33.903" ry="33.903" transform="matrix(-0.998866081237793, -0.04760200157761574, 0.04760200157761574, -0.998866081237793, 379.25833695021765, 421.1684327895705)"/>
  <ellipse style="fill: rgb(26, 197, 0);" cx="375.458" cy="285.315" rx="33.903" ry="33.903" transform="matrix(-0.8389090299606323, -0.5442720055580139, 0.5442720055580139, -0.8389090299606323, 527.9583208554732, 679.6648660848268)"/>
  <ellipse style="fill: rgb(97, 116, 234);" cx="375.458" cy="355.744" rx="33.903" ry="33.903" transform="matrix(-0.8389090299606323, -0.5442720055580139, 0.5442720055580139, -0.8389090299606323, 527.958259820316, 679.664927119984)"/>
  <ellipse style="fill: rgb(131, 74, 160);" cx="375.458" cy="425.83" rx="33.903" ry="33.903" transform="matrix(-0.8389090299606323, -0.5442720055580139, 0.5442720055580139, -0.8389090299606323, 527.9583208554732, 679.6648660848268)"/>
  <ellipse style="fill: rgb(175, 0, 0);" cx="375.458" cy="74.431" rx="33.903" ry="33.903" transform="matrix(-0.8389090299606323, -0.5442720055580139, 0.5442720055580139, -0.8389090299606323, 527.9581377500018, 679.6650491902983)"/>
  <ellipse style="fill: rgb(230, 73, 0);" cx="375.458" cy="144.859" rx="33.903" ry="33.903" transform="matrix(-0.8389090299606323, -0.5442720055580139, 0.5442720055580139, -0.8389090299606323, 527.9580767148445, 679.6650491902983)"/>
  <ellipse style="fill: rgb(228, 224, 0);" cx="375.458" cy="214.947" rx="33.903" ry="33.903" transform="matrix(-0.8389090299606323, -0.5442720055580139, 0.5442720055580139, -0.8389090299606323, 527.958259820316, 679.664927119984)"/>
  <ellipse style="fill: rgb(26, 197, 0);" cx="375.458" cy="285.315" rx="33.903" ry="33.903" transform="matrix(-0.8389090299606323, -0.5442720055580139, 0.5442720055580139, -0.8389090299606323, 617.9409882119444, 920.1653579498133)"/>
  <ellipse style="fill: rgb(97, 116, 234);" cx="375.458" cy="355.744" rx="33.903" ry="33.903" transform="matrix(-0.8389090299606323, -0.5442720055580139, 0.5442720055580139, -0.8389090299606323, 617.9409271767871, 920.1654189849705)"/>
  <ellipse style="fill: rgb(131, 74, 160);" cx="375.458" cy="425.83" rx="33.903" ry="33.903" transform="matrix(-0.8389090299606323, -0.5442720055580139, 0.5442720055580139, -0.8389090299606323, 617.9410492471015, 920.1652969146564)"/>
  <ellipse style="fill: rgb(228, 224, 0);" cx="375.458" cy="214.947" rx="33.903" ry="33.903" transform="matrix(-0.8389090299606323, -0.5442720055580139, 0.5442720055580139, -0.8389090299606323, 617.9409271767871, 920.1654189849705)"/>
  <ellipse style="fill: rgb(26, 197, 0);" cx="375.458" cy="285.315" rx="33.903" ry="33.903" transform="matrix(-0.8389090299606323, -0.5442720055580139, 0.5442720055580139, -0.8389090299606323, 467.5871956882952, 854.127637239212)"/>
  <ellipse style="fill: rgb(97, 116, 234);" cx="375.458" cy="355.744" rx="33.903" ry="33.903" transform="matrix(-0.8389090299606323, -0.5442720055580139, 0.5442720055580139, -0.8389090299606323, 467.58713465313804, 854.1276982743693)"/>
  <ellipse style="fill: rgb(131, 74, 160);" cx="375.458" cy="425.83" rx="33.903" ry="33.903" transform="matrix(-0.8389090299606323, -0.5442720055580139, 0.5442720055580139, -0.8389090299606323, 467.5872262058738, 854.1275151688978)"/>
  <ellipse style="fill: rgb(230, 73, 0);" cx="375.458" cy="144.859" rx="33.903" ry="33.903" transform="matrix(-0.8389090299606323, -0.5442720055580139, 0.5442720055580139, -0.8389090299606323, 467.5868905125094, 854.1278203446835)"/>
  <ellipse style="fill: rgb(228, 224, 0);" cx="375.458" cy="214.947" rx="33.903" ry="33.903" transform="matrix(-0.8389090299606323, -0.5442720055580139, 0.5442720055580139, -0.8389090299606323, 467.58713465313804, 854.1276982743693)"/>
  <ellipse style="fill: rgb(26, 197, 0);" cx="375.458" cy="285.315" rx="33.903" ry="33.903" transform="matrix(-0.8389090299606323, -0.5442720055580139, 0.5442720055580139, -0.8389090299606323, 426.9033266738552, 676.6512552000769)"/>
  <ellipse style="fill: rgb(97, 116, 234);" cx="375.458" cy="355.744" rx="33.903" ry="33.903" transform="matrix(-0.8389090299606323, -0.5442720055580139, 0.5442720055580139, -0.8389090299606323, 426.90326563869803, 676.6513162352339)"/>
  <ellipse style="fill: rgb(131, 74, 160);" cx="375.458" cy="425.83" rx="33.903" ry="33.903" transform="matrix(-0.8389090299606323, -0.5442720055580139, 0.5442720055580139, -0.8389090299606323, 426.90335719143377, 676.6511331297625)"/>
  <ellipse style="fill: rgb(175, 0, 0);" cx="375.458" cy="74.431" rx="33.903" ry="33.903" transform="matrix(-0.8389090299606323, -0.5442720055580139, 0.5442720055580139, -0.8389090299606323, 426.90308253322655, 676.6514383055483)"/>
  <ellipse style="fill: rgb(230, 73, 0);" cx="375.458" cy="144.859" rx="33.903" ry="33.903" transform="matrix(-0.8389090299606323, -0.5442720055580139, 0.5442720055580139, -0.8389090299606323, 426.9030214980694, 676.6514383055483)"/>
  <ellipse style="fill: rgb(228, 224, 0);" cx="375.458" cy="214.947" rx="33.903" ry="33.903" transform="matrix(-0.8389090299606323, -0.5442720055580139, 0.5442720055580139, -0.8389090299606323, 426.90326563869803, 676.6513162352339)"/>
  <ellipse style="fill: rgb(26, 197, 0);" cx="375.458" cy="285.315" rx="33.903" ry="33.903" transform="matrix(-0.8389090299606323, -0.5442720055580139, 0.5442720055580139, -0.8389090299606323, 377.96457472390784, 677.8304544363982)"/>
  <ellipse style="fill: rgb(97, 116, 234);" cx="375.458" cy="355.744" rx="33.903" ry="33.903" transform="matrix(-0.8389090299606323, -0.5442720055580139, 0.5442720055580139, -0.8389090299606323, 377.9645136887507, 677.8305154715554)"/>
  <ellipse style="fill: rgb(131, 74, 160);" cx="375.458" cy="425.83" rx="33.903" ry="33.903" transform="matrix(-0.8389090299606323, -0.5442720055580139, 0.5442720055580139, -0.8389090299606323, 377.964635759065, 677.8303323660839)"/>
  <ellipse style="fill: rgb(175, 0, 0);" cx="375.458" cy="74.431" rx="33.903" ry="33.903" transform="matrix(-0.8389090299606323, -0.5442720055580139, 0.5442720055580139, -0.8389090299606323, 377.9643611008578, 677.8306375418697)"/>
  <ellipse style="fill: rgb(230, 73, 0);" cx="375.458" cy="144.859" rx="33.903" ry="33.903" transform="matrix(-0.8389090299606323, -0.5442720055580139, 0.5442720055580139, -0.8389090299606323, 377.9643305832792, 677.8306375418697)"/>
  <ellipse style="fill: rgb(228, 224, 0);" cx="375.458" cy="214.947" rx="33.903" ry="33.903" transform="matrix(-0.8389090299606323, -0.5442720055580139, 0.5442720055580139, -0.8389090299606323, 377.9645136887507, 677.8305154715554)"/>
  <ellipse style="fill: rgb(26, 197, 0);" cx="375.458" cy="285.315" rx="33.903" ry="33.903" transform="matrix(-0.8389090299606323, -0.5442720055580139, 0.5442720055580139, -0.8389090299606323, 428.06607693532214, 722.6582138934463)"/>
  <ellipse style="fill: rgb(97, 116, 234);" cx="375.458" cy="355.744" rx="33.903" ry="33.903" transform="matrix(-0.8389090299606323, -0.5442720055580139, 0.5442720055580139, -0.8389090299606323, 428.066015900165, 722.6582749286036)"/>
  <ellipse style="fill: rgb(131, 74, 160);" cx="375.458" cy="425.83" rx="33.903" ry="33.903" transform="matrix(-0.8389090299606323, -0.5442720055580139, 0.5442720055580139, -0.8389090299606323, 428.0661379704793, 722.6580918231322)"/>
  <ellipse style="fill: rgb(175, 0, 0);" cx="375.458" cy="74.431" rx="33.903" ry="33.903" transform="matrix(-0.8389090299606323, -0.5442720055580139, 0.5442720055580139, -0.8389090299606323, 428.06589382985067, 722.6583969989179)"/>
  <ellipse style="fill: rgb(230, 73, 0);" cx="375.458" cy="144.859" rx="33.903" ry="33.903" transform="matrix(-0.8389090299606323, -0.5442720055580139, 0.5442720055580139, -0.8389090299606323, 428.0658327946935, 722.6583969989179)"/>
  <ellipse style="fill: rgb(228, 224, 0);" cx="375.458" cy="214.947" rx="33.903" ry="33.903" transform="matrix(-0.8389090299606323, -0.5442720055580139, 0.5442720055580139, -0.8389090299606323, 428.066015900165, 722.6582749286036)"/>
  <ellipse style="fill: rgb(26, 197, 0);" cx="375.458" cy="285.315" rx="33.903" ry="33.903" transform="matrix(-0.8389090299606323, -0.5442720055580139, 0.5442720055580139, -0.8389090299606323, 317.2169847073701, 911.9270155418964)"/>
  <ellipse style="fill: rgb(97, 116, 234);" cx="375.458" cy="355.744" rx="33.903" ry="33.903" transform="matrix(-0.8389090299606323, -0.5442720055580139, 0.5442720055580139, -0.8389090299606323, 317.21692367221294, 911.9270765770532)"/>
  <ellipse style="fill: rgb(131, 74, 160);" cx="375.458" cy="425.83" rx="33.903" ry="33.903" transform="matrix(-0.8389090299606323, -0.5442720055580139, 0.5442720055580139, -0.8389090299606323, 317.21707626010584, 911.9268324364249)"/>
  <ellipse style="fill: rgb(228, 224, 0);" cx="375.458" cy="214.947" rx="33.903" ry="33.903" transform="matrix(-0.8389090299606323, -0.5442720055580139, 0.5442720055580139, -0.8389090299606323, 317.21692367221294, 911.9270765770532)"/>
  <ellipse style="fill: rgb(26, 197, 0);" cx="375.458" cy="285.315" rx="33.903" ry="33.903" transform="matrix(-0.8389090299606323, -0.5442720055580139, 0.5442720055580139, -0.8389090299606323, 192.21705913867135, 857.092175857606)"/>
  <ellipse style="fill: rgb(97, 116, 234);" cx="375.458" cy="355.744" rx="33.903" ry="33.903" transform="matrix(-0.8389090299606323, -0.5442720055580139, 0.5442720055580139, -0.8389090299606323, 192.21701336230348, 857.092236892763)"/>
  <ellipse style="fill: rgb(131, 74, 160);" cx="375.458" cy="425.83" rx="33.903" ry="33.903" transform="matrix(-0.8389090299606323, -0.5442720055580139, 0.5442720055580139, -0.8389090299606323, 192.21710491503927, 857.0920537872917)"/>
  <ellipse style="fill: rgb(230, 73, 0);" cx="375.458" cy="144.859" rx="33.903" ry="33.903" transform="matrix(-0.8389090299606323, -0.5442720055580139, 0.5442720055580139, -0.8389090299606323, 192.21679973925353, 857.0923589630777)"/>
  <ellipse style="fill: rgb(228, 224, 0);" cx="375.458" cy="214.947" rx="33.903" ry="33.903" transform="matrix(-0.8389090299606323, -0.5442720055580139, 0.5442720055580139, -0.8389090299606323, 192.2169981035143, 857.092236892763)"/>
  <ellipse style="fill: rgb(26, 197, 0);" cx="375.458" cy="285.315" rx="33.903" ry="33.903" transform="matrix(-0.8389090299606323, -0.5442720055580139, 0.5442720055580139, -0.8389090299606323, 151.533113830285, 848.2478764094094)"/>
  <ellipse style="fill: rgb(97, 116, 234);" cx="375.458" cy="355.744" rx="33.903" ry="33.903" transform="matrix(-0.8389090299606323, -0.5442720055580139, 0.5442720055580139, -0.8389090299606323, 151.53308331270637, 848.2479374445667)"/>
  <ellipse style="fill: rgb(131, 74, 160);" cx="375.458" cy="425.83" rx="33.903" ry="33.903" transform="matrix(-0.8389090299606323, -0.5442720055580139, 0.5442720055580139, -0.8389090299606323, 151.53314434786353, 848.2477543390952)"/>
  <ellipse style="fill: rgb(228, 224, 0);" cx="375.458" cy="214.947" rx="33.903" ry="33.903" transform="matrix(-0.8389090299606323, -0.5442720055580139, 0.5442720055580139, -0.8389090299606323, 151.5330527951278, 848.2479374445667)"/>
  <ellipse style="fill: rgb(26, 197, 0);" cx="375.458" cy="285.315" rx="33.903" ry="33.903" transform="matrix(-0.8389090299606323, -0.5442720055580139, 0.5442720055580139, -0.8389090299606323, 275.9434855571908, 657.210153836163)"/>
  <ellipse style="fill: rgb(97, 116, 234);" cx="375.458" cy="355.744" rx="33.903" ry="33.903" transform="matrix(-0.8389090299606323, -0.5442720055580139, 0.5442720055580139, -0.8389090299606323, 275.9434550396122, 657.2102148713202)"/>
  <ellipse style="fill: rgb(131, 74, 160);" cx="375.458" cy="425.83" rx="33.903" ry="33.903" transform="matrix(-0.8389090299606323, -0.5442720055580139, 0.5442720055580139, -0.8389090299606323, 275.94354659234796, 657.2100317658487)"/>
  <ellipse style="fill: rgb(175, 0, 0);" cx="375.458" cy="74.431" rx="33.903" ry="33.903" transform="matrix(-0.8389090299606323, -0.5442720055580139, 0.5442720055580139, -0.8389090299606323, 275.94327193414085, 657.2102759064774)"/>
  <ellipse style="fill: rgb(230, 73, 0);" cx="375.458" cy="144.859" rx="33.903" ry="33.903" transform="matrix(-0.8389090299606323, -0.5442720055580139, 0.5442720055580139, -0.8389090299606323, 275.94324141656216, 657.2102759064774)"/>
  <ellipse style="fill: rgb(228, 224, 0);" cx="375.458" cy="214.947" rx="33.903" ry="33.903" transform="matrix(-0.8389090299606323, -0.5442720055580139, 0.5442720055580139, -0.8389090299606323, 275.94342452203364, 657.2102148713202)"/>
  <ellipse style="fill: rgb(26, 197, 0);" cx="375.458" cy="285.315" rx="33.903" ry="33.903" transform="matrix(-0.8389090299606323, -0.5442720055580139, 0.5442720055580139, -0.8389090299606323, 264.1510354302977, 610.0402312582764)"/>
  <ellipse style="fill: rgb(97, 116, 234);" cx="375.458" cy="355.744" rx="33.903" ry="33.903" transform="matrix(-0.8389090299606323, -0.5442720055580139, 0.5442720055580139, -0.8389090299606323, 264.1509743951405, 610.0402922934336)"/>
  <ellipse style="fill: rgb(131, 74, 160);" cx="375.458" cy="425.83" rx="33.903" ry="33.903" transform="matrix(-0.8389090299606323, -0.5442720055580139, 0.5442720055580139, -0.8389090299606323, 264.15109646545494, 610.0401091879621)"/>
  <ellipse style="fill: rgb(175, 0, 0);" cx="375.458" cy="74.431" rx="33.903" ry="33.903" transform="matrix(-0.8389090299606323, -0.5442720055580139, 0.5442720055580139, -0.8389090299606323, 264.1507912896691, 610.040414363748)"/>
  <ellipse style="fill: rgb(230, 73, 0);" cx="375.458" cy="144.859" rx="33.903" ry="33.903" transform="matrix(-0.8389090299606323, -0.5442720055580139, 0.5442720055580139, -0.8389090299606323, 264.1507912896691, 610.040414363748)"/>
  <ellipse style="fill: rgb(228, 224, 0);" cx="375.458" cy="214.947" rx="33.903" ry="33.903" transform="matrix(-0.8389090299606323, -0.5442720055580139, 0.5442720055580139, -0.8389090299606323, 264.1509743951405, 610.0402922934336)"/>
  <ellipse style="fill: rgb(26, 197, 0);" cx="375.458" cy="285.315" rx="33.903" ry="33.903" transform="matrix(-0.8389090299606323, -0.5442720055580139, 0.5442720055580139, -0.8389090299606323, 227.00480990118984, 631.8563326575804)"/>
  <ellipse style="fill: rgb(97, 116, 234);" cx="375.458" cy="355.744" rx="33.903" ry="33.903" transform="matrix(-0.8389090299606323, -0.5442720055580139, 0.5442720055580139, -0.8389090299606323, 227.00476412482197, 631.8563936927376)"/>
  <ellipse style="fill: rgb(131, 74, 160);" cx="375.458" cy="425.83" rx="33.903" ry="33.903" transform="matrix(-0.8389090299606323, -0.5442720055580139, 0.5442720055580139, -0.8389090299606323, 227.00485567755777, 631.8562105872661)"/>
  <ellipse style="fill: rgb(230, 73, 0);" cx="375.458" cy="144.859" rx="33.903" ry="33.903" transform="matrix(-0.8389090299606323, -0.5442720055580139, 0.5442720055580139, -0.8389090299606323, 227.00455050177192, 631.856515763052)"/>
  <ellipse style="fill: rgb(228, 224, 0);" cx="375.458" cy="214.947" rx="33.903" ry="33.903" transform="matrix(-0.8389090299606323, -0.5442720055580139, 0.5442720055580139, -0.8389090299606323, 227.00474886603274, 631.8563936927376)"/>
  <ellipse style="fill: rgb(26, 197, 0);" cx="375.458" cy="285.315" rx="33.903" ry="33.903" transform="matrix(-0.8389090299606323, -0.5442720055580139, 0.5442720055580139, -0.8389090299606323, 142.6887838645098, 550.4555746086771)"/>
  <ellipse style="fill: rgb(97, 116, 234);" cx="375.458" cy="355.744" rx="33.903" ry="33.903" transform="matrix(-0.8389090299606323, -0.5442720055580139, 0.5442720055580139, -0.8389090299606323, 142.6887533469312, 550.4556356438343)"/>
  <ellipse style="fill: rgb(131, 74, 160);" cx="375.458" cy="425.83" rx="33.903" ry="33.903" transform="matrix(-0.8389090299606323, -0.5442720055580139, 0.5442720055580139, -0.8389090299606323, 142.68881438208837, 550.45551357352)"/>
  <ellipse style="fill: rgb(26, 197, 0);" cx="375.458" cy="285.315" rx="33.903" ry="33.903" transform="matrix(-0.8389090299606323, -0.5442720055580139, 0.5442720055580139, -0.8389090299606323, 193.98594954588924, 529.8187334808517)"/>
  <ellipse style="fill: rgb(97, 116, 234);" cx="375.458" cy="355.744" rx="33.903" ry="33.903" transform="matrix(-0.8389090299606323, -0.5442720055580139, 0.5442720055580139, -0.8389090299606323, 193.98591902831072, 529.8187945160089)"/>
  <ellipse style="fill: rgb(131, 74, 160);" cx="375.458" cy="425.83" rx="33.903" ry="33.903" transform="matrix(-0.8389090299606323, -0.5442720055580139, 0.5442720055580139, -0.8389090299606323, 193.98598006346788, 529.8186724456946)"/>
  <ellipse style="fill: rgb(230, 73, 0);" cx="375.458" cy="144.859" rx="33.903" ry="33.903" transform="matrix(-0.8389090299606323, -0.5442720055580139, 0.5442720055580139, -0.8389090299606323, 193.98567488768202, 529.8189776214805)"/>
  <ellipse style="fill: rgb(228, 224, 0);" cx="375.458" cy="214.947" rx="33.903" ry="33.903" transform="matrix(-0.8389090299606323, -0.5442720055580139, 0.5442720055580139, -0.8389090299606323, 193.98588851073214, 529.8188555511662)"/>
  <ellipse style="fill: rgb(26, 197, 0);" cx="375.458" cy="285.315" rx="33.903" ry="33.903" transform="matrix(-0.8389090299606323, -0.5442720055580139, 0.5442720055580139, -0.8389090299606323, 301.29727621819484, 467.3187630671077)"/>
  <ellipse style="fill: rgb(97, 116, 234);" cx="375.458" cy="355.744" rx="33.903" ry="33.903" transform="matrix(-0.8389090299606323, -0.5442720055580139, 0.5442720055580139, -0.8389090299606323, 301.2972151830377, 467.31879358468626)"/>
  <ellipse style="fill: rgb(175, 0, 0);" cx="375.458" cy="74.431" rx="33.903" ry="33.903" transform="matrix(-0.8389090299606323, -0.5442720055580139, 0.5442720055580139, -0.8389090299606323, 301.2970320775662, 467.3190377253149)"/>
  <ellipse style="fill: rgb(230, 73, 0);" cx="375.458" cy="144.859" rx="33.903" ry="33.903" transform="matrix(-0.8389090299606323, -0.5442720055580139, 0.5442720055580139, -0.8389090299606323, 301.2970320775662, 467.31897669015774)"/>
  <ellipse style="fill: rgb(228, 224, 0);" cx="375.458" cy="214.947" rx="33.903" ry="33.903" transform="matrix(-0.8389090299606323, -0.5442720055580139, 0.5442720055580139, -0.8389090299606323, 301.2972151830377, 467.3188546198434)"/>
  <ellipse style="fill: rgb(26, 197, 0);" cx="375.458" cy="285.315" rx="33.903" ry="33.903" transform="matrix(-0.8389090299606323, -0.5442720055580139, 0.5442720055580139, -0.8389090299606323, 346.69815580097065, 459.06403271949324)"/>
  <ellipse style="fill: rgb(97, 116, 234);" cx="375.458" cy="355.744" rx="33.903" ry="33.903" transform="matrix(-0.8389090299606323, -0.5442720055580139, 0.5442720055580139, -0.8389090299606323, 346.6980947658135, 459.0640937546504)"/>
  <ellipse style="fill: rgb(175, 0, 0);" cx="375.458" cy="74.431" rx="33.903" ry="33.903" transform="matrix(-0.8389090299606323, -0.5442720055580139, 0.5442720055580139, -0.8389090299606323, 346.697911660342, 459.06433789527904)"/>
  <ellipse style="fill: rgb(230, 73, 0);" cx="375.458" cy="144.859" rx="33.903" ry="33.903" transform="matrix(-0.8389090299606323, -0.5442720055580139, 0.5442720055580139, -0.8389090299606323, 346.697911660342, 459.0642768601219)"/>
  <ellipse style="fill: rgb(228, 224, 0);" cx="375.458" cy="214.947" rx="33.903" ry="33.903" transform="matrix(-0.8389090299606323, -0.5442720055580139, 0.5442720055580139, -0.8389090299606323, 346.6980947658135, 459.06415478980756)"/>
  <ellipse style="fill: rgb(26, 197, 0);" cx="375.458" cy="285.315" rx="33.903" ry="33.903" transform="matrix(-0.838909, -0.544272, 0.544272, -0.838909, 446.343644, 467.319468)"/>
  <ellipse style="fill: rgb(97, 116, 234);" cx="375.458" cy="355.744" rx="33.903" ry="33.903" transform="matrix(-0.838909, -0.544272, 0.544272, -0.838909, 446.343568, 467.318309)"/>
  <ellipse style="fill: rgb(175, 0, 0);" cx="375.458" cy="74.431" rx="33.903" ry="33.903" transform="matrix(-0.838909, -0.544272, 0.544272, -0.838909, 446.344018, 467.317454)"/>
  <ellipse style="fill: rgb(230, 73, 0);" cx="375.458" cy="144.859" rx="33.903" ry="33.903" transform="matrix(-0.838909, -0.544272, 0.544272, -0.838909, 446.344087, 467.316996)"/>
  <ellipse style="fill: rgb(228, 224, 0);" cx="375.458" cy="214.947" rx="33.903" ry="33.903" transform="matrix(-0.838909, -0.544272, 0.544272, -0.838909, 446.344064, 467.318339)"/>
  <ellipse style="fill: rgb(26, 197, 0);" cx="375.458" cy="285.315" rx="33.903" ry="33.903" transform="matrix(0.02244500070810318, 0.9997479915618896, -0.9997479915618896, 0.02244500070810318, 616.4427582091502, -337.3462879858357)"/>
  <ellipse style="fill: rgb(97, 116, 234);" cx="375.458" cy="355.744" rx="33.903" ry="33.903" transform="matrix(0.02244500070810318, 0.9997479915618896, -0.9997479915618896, 0.02244500070810318, 616.4428192443075, -337.3462879858357)"/>
  <ellipse style="fill: rgb(131, 74, 160);" cx="375.458" cy="425.83" rx="33.903" ry="33.903" transform="matrix(0.02244500070810318, 0.9997479915618896, -0.9997479915618896, 0.02244500070810318, 616.4426971739931, -337.3462879858357)"/>
  <ellipse style="fill: rgb(230, 73, 0);" cx="375.458" cy="144.859" rx="33.903" ry="33.903" transform="matrix(0.02244500070810318, 0.9997479915618896, -0.9997479915618896, 0.02244500070810318, 616.4430633849361, -337.3461964331)"/>
  <ellipse style="fill: rgb(228, 224, 0);" cx="375.458" cy="214.947" rx="33.903" ry="33.903" transform="matrix(0.02244500070810318, 0.9997479915618896, -0.9997479915618896, 0.02244500070810318, 616.4428192443075, -337.3462879858357)"/>
  <ellipse style="fill: rgb(26, 197, 0);" cx="375.458" cy="285.315" rx="33.903" ry="33.903" transform="matrix(0.02244500070810318, 0.9997479915618896, -0.9997479915618896, 0.02244500070810318, 612.2170501383698, -287.08096741260533)"/>
  <ellipse style="fill: rgb(97, 116, 234);" cx="375.458" cy="355.744" rx="33.903" ry="33.903" transform="matrix(0.02244500070810318, 0.9997479915618896, -0.9997479915618896, 0.02244500070810318, 612.2171111735271, -287.08096741260533)"/>
  <ellipse style="fill: rgb(131, 74, 160);" cx="375.458" cy="425.83" rx="33.903" ry="33.903" transform="matrix(0.02244500070810318, 0.9997479915618896, -0.9997479915618896, 0.02244500070810318, 612.2169891032127, -287.08096741260533)"/>
  <ellipse style="fill: rgb(230, 73, 0);" cx="375.458" cy="144.859" rx="33.903" ry="33.903" transform="matrix(0.02244500070810318, 0.9997479915618896, -0.9997479915618896, 0.02244500070810318, 612.2172332438414, -287.0808758598696)"/>
  <ellipse style="fill: rgb(228, 224, 0);" cx="375.458" cy="214.947" rx="33.903" ry="33.903" transform="matrix(0.02244500070810318, 0.9997479915618896, -0.9997479915618896, 0.02244500070810318, 612.2169891032127, -287.08096741260533)"/>
  <ellipse style="fill: rgb(26, 197, 0);" cx="375.458" cy="285.315" rx="33.903" ry="33.903" transform="matrix(0.02244500070810318, 0.9997479915618896, -0.9997479915618896, 0.02244500070810318, 725.4245103213862, -286.4913372768661)"/>
  <ellipse style="fill: rgb(97, 116, 234);" cx="375.458" cy="355.744" rx="33.903" ry="33.903" transform="matrix(0.02244500070810318, 0.9997479915618896, -0.9997479915618896, 0.02244500070810318, 725.4245713565434, -286.4913372768661)"/>
  <ellipse style="fill: rgb(131, 74, 160);" cx="375.458" cy="425.83" rx="33.903" ry="33.903" transform="matrix(0.02244500070810318, 0.9997479915618896, -0.9997479915618896, 0.02244500070810318, 725.424449286229, -286.4913372768661)"/>
  <ellipse style="fill: rgb(228, 224, 0);" cx="375.458" cy="214.947" rx="33.903" ry="33.903" transform="matrix(0.02244500070810318, 0.9997479915618896, -0.9997479915618896, 0.02244500070810318, 725.424449286229, -286.4913372768661)"/>
  <ellipse style="fill: rgb(26, 197, 0);" cx="375.458" cy="285.315" rx="33.903" ry="33.903" transform="matrix(0.02244500070810318, 0.9997479915618896, -0.9997479915618896, 0.02244500070810318, 679.4340311204496, -264.0856972945585)"/>
  <ellipse style="fill: rgb(97, 116, 234);" cx="375.458" cy="355.744" rx="33.903" ry="33.903" transform="matrix(0.02244500070810318, 0.9997479915618896, -0.9997479915618896, 0.02244500070810318, 679.4340921556067, -264.0856972945585)"/>
  <ellipse style="fill: rgb(131, 74, 160);" cx="375.458" cy="425.83" rx="33.903" ry="33.903" transform="matrix(0.02244500070810318, 0.9997479915618896, -0.9997479915618896, 0.02244500070810318, 679.4339700852926, -264.0856972945585)"/>
  <ellipse style="fill: rgb(228, 224, 0);" cx="375.458" cy="214.947" rx="33.903" ry="33.903" transform="matrix(0.02244500070810318, 0.9997479915618896, -0.9997479915618896, 0.02244500070810318, 679.4339700852926, -264.0856972945585)"/>
  <ellipse style="fill: rgb(26, 197, 0);" cx="375.458" cy="285.315" rx="33.903" ry="33.903" transform="matrix(0.02244500070810318, 0.9997479915618896, -0.9997479915618896, 0.02244500070810318, 716.5802108731896, -267.0337869380978)"/>
  <ellipse style="fill: rgb(97, 116, 234);" cx="375.458" cy="355.744" rx="33.903" ry="33.903" transform="matrix(0.02244500070810318, 0.9997479915618896, -0.9997479915618896, 0.02244500070810318, 716.5802719083466, -267.0337869380978)"/>
  <ellipse style="fill: rgb(131, 74, 160);" cx="375.458" cy="425.83" rx="33.903" ry="33.903" transform="matrix(0.02244500070810318, 0.9997479915618896, -0.9997479915618896, 0.02244500070810318, 716.5801498380325, -267.0337869380978)"/>
  <ellipse style="fill: rgb(228, 224, 0);" cx="375.458" cy="214.947" rx="33.903" ry="33.903" transform="matrix(0.02244500070810318, 0.9997479915618896, -0.9997479915618896, 0.02244500070810318, 716.5801498380325, -267.0337869380978)"/>
  <ellipse style="fill: rgb(97, 116, 234);" cx="375.458" cy="355.744" rx="33.903" ry="33.903" transform="matrix(0.02244500070810318, 0.9997479915618896, -0.9997479915618896, 0.02244500070810318, 862.806653481821, -265.2648965308799)"/>
  <ellipse style="fill: rgb(131, 74, 160);" cx="375.458" cy="425.83" rx="33.903" ry="33.903" transform="matrix(0.02244500070810318, 0.9997479915618896, -0.9997479915618896, 0.02244500070810318, 862.8065314115064, -265.2648965308799)"/>
  <ellipse style="fill: rgb(26, 197, 0);" cx="375.458" cy="285.315" rx="33.903" ry="33.903" transform="matrix(0.02244500070810318, 0.9997479915618896, -0.9997479915618896, 0.02244500070810318, 762.5708121444403, -223.40170620980416)"/>
  <ellipse style="fill: rgb(97, 116, 234);" cx="375.458" cy="355.744" rx="33.903" ry="33.903" transform="matrix(0.02244500070810318, 0.9997479915618896, -0.9997479915618896, 0.02244500070810318, 762.5708731795976, -223.40170620980416)"/>
  <ellipse style="fill: rgb(131, 74, 160);" cx="375.458" cy="425.83" rx="33.903" ry="33.903" transform="matrix(0.02244500070810318, 0.9997479915618896, -0.9997479915618896, 0.02244500070810318, 762.5707511092833, -223.40170620980416)"/>
  <ellipse style="fill: rgb(26, 197, 0);" cx="375.458" cy="285.315" rx="33.903" ry="33.903" transform="matrix(0.02244500070810318, 0.9997479915618896, -0.9997479915618896, 0.02244500070810318, 528.490608461061, -90.14701214651781)"/>
  <ellipse style="fill: rgb(97, 116, 234);" cx="375.458" cy="355.744" rx="33.903" ry="33.903" transform="matrix(0.02244500070810318, 0.9997479915618896, -0.9997479915618896, 0.02244500070810318, 528.4906694962183, -90.14701214651781)"/>
  <ellipse style="fill: rgb(131, 74, 160);" cx="375.458" cy="425.83" rx="33.903" ry="33.903" transform="matrix(0.02244500070810318, 0.9997479915618896, -0.9997479915618896, 0.02244500070810318, 528.490547425904, -90.14701214651781)"/>
  <ellipse style="fill: rgb(175, 0, 0);" cx="375.458" cy="74.431" rx="33.903" ry="33.903" transform="matrix(0.02244500070810318, 0.9997479915618896, -0.9997479915618896, 0.02244500070810318, 528.4907305313754, -90.14698162893923)"/>
  <ellipse style="fill: rgb(230, 73, 0);" cx="375.458" cy="144.859" rx="33.903" ry="33.903" transform="matrix(0.02244500070810318, 0.9997479915618896, -0.9997479915618896, 0.02244500070810318, 528.4907915665326, -90.14692059378206)"/>
  <ellipse style="fill: rgb(228, 224, 0);" cx="375.458" cy="214.947" rx="33.903" ry="33.903" transform="matrix(0.02244500070810318, 0.9997479915618896, -0.9997479915618896, 0.02244500070810318, 528.490547425904, -90.14701214651781)"/>
  <ellipse style="fill: rgb(26, 197, 0);" cx="375.458" cy="285.315" rx="33.903" ry="33.903" transform="matrix(0.02244500070810318, 0.9997479915618896, -0.9997479915618896, 0.02244500070810318, 651.7216893989098, -34.132874043775715)"/>
  <ellipse style="fill: rgb(97, 116, 234);" cx="375.458" cy="355.744" rx="33.903" ry="33.903" transform="matrix(0.02244500070810318, 0.9997479915618896, -0.9997479915618896, 0.02244500070810318, 651.7217504340668, -34.132874043775715)"/>
  <ellipse style="fill: rgb(131, 74, 160);" cx="375.458" cy="425.83" rx="33.903" ry="33.903" transform="matrix(0.02244500070810318, 0.9997479915618896, -0.9997479915618896, 0.02244500070810318, 651.7216283637528, -34.132874043775715)"/>
  <ellipse style="fill: rgb(230, 73, 0);" cx="375.458" cy="144.859" rx="33.903" ry="33.903" transform="matrix(0.02244500070810318, 0.9997479915618896, -0.9997479915618896, 0.02244500070810318, 651.7219335395384, -34.13278249103997)"/>
  <ellipse style="fill: rgb(228, 224, 0);" cx="375.458" cy="214.947" rx="33.903" ry="33.903" transform="matrix(0.02244500070810318, 0.9997479915618896, -0.9997479915618896, 0.02244500070810318, 651.7216893989098, -34.132874043775715)"/>
  <ellipse style="fill: rgb(131, 74, 160);" cx="375.458" cy="425.83" rx="33.903" ry="33.903" transform="matrix(0.02244500070810318, 0.9997479915618896, -0.9997479915618896, 0.02244500070810318, 885.8018320471318, -126.70358465170239)"/>
  <ellipse style="fill: rgb(26, 197, 0);" cx="375.458" cy="285.315" rx="33.903" ry="33.903" transform="matrix(0.02244500070810318, 0.9997479915618896, -0.9997479915618896, 0.02244500070810318, 512.0777053844586, 76.417077249543)"/>
  <ellipse style="fill: rgb(97, 116, 234);" cx="375.458" cy="355.744" rx="33.903" ry="33.903" transform="matrix(0.02244500070810318, 0.9997479915618896, -0.9997479915618896, 0.02244500070810318, 512.0777664196157, 76.417077249543)"/>
  <ellipse style="fill: rgb(131, 74, 160);" cx="375.458" cy="425.83" rx="33.903" ry="33.903" transform="matrix(0.02244500070810318, 0.9997479915618896, -0.9997479915618896, 0.02244500070810318, 512.0776443493014, 76.417077249543)"/>
  <ellipse style="fill: rgb(175, 0, 0);" cx="375.458" cy="74.431" rx="33.903" ry="33.903" transform="matrix(0.02244500070810318, 0.9997479915618896, -0.9997479915618896, 0.02244500070810318, 512.0778274547729, 76.41710776712158)"/>
  <ellipse style="fill: rgb(230, 73, 0);" cx="375.458" cy="144.859" rx="33.903" ry="33.903" transform="matrix(0.02244500070810318, 0.9997479915618896, -0.9997479915618896, 0.02244500070810318, 512.07788848993, 76.41716880227874)"/>
  <ellipse style="fill: rgb(228, 224, 0);" cx="375.458" cy="214.947" rx="33.903" ry="33.903" transform="matrix(0.02244500070810318, 0.9997479915618896, -0.9997479915618896, 0.02244500070810318, 512.0776443493014, 76.417077249543)"/>
  <ellipse style="fill: rgb(26, 197, 0);" cx="375.458" cy="285.315" rx="33.903" ry="33.903" transform="matrix(0.02244500070810318, 0.9997479915618896, -0.9997479915618896, 0.02244500070810318, 354.6738028924732, 29.894920794590107)"/>
  <ellipse style="fill: rgb(97, 116, 234);" cx="375.458" cy="355.744" rx="33.903" ry="33.903" transform="matrix(0.02244500070810318, 0.9997479915618896, -0.9997479915618896, 0.02244500070810318, 354.6738639276306, 29.894920794590107)"/>
  <ellipse style="fill: rgb(175, 0, 0);" cx="375.458" cy="74.431" rx="33.903" ry="33.903" transform="matrix(0.02244500070810318, 0.9997479915618896, -0.9997479915618896, 0.02244500070810318, 354.6739859979448, 29.894951312168686)"/>
  <ellipse style="fill: rgb(230, 73, 0);" cx="375.458" cy="144.859" rx="33.903" ry="33.903" transform="matrix(0.02244500070810318, 0.9997479915618896, -0.9997479915618896, 0.02244500070810318, 354.6741080682591, 29.89501234732586)"/>
  <ellipse style="fill: rgb(228, 224, 0);" cx="375.458" cy="214.947" rx="33.903" ry="33.903" transform="matrix(0.02244500070810318, 0.9997479915618896, -0.9997479915618896, 0.02244500070810318, 354.6738639276306, 29.894920794590107)"/>
  <ellipse style="fill: rgb(26, 197, 0);" cx="375.458" cy="285.315" rx="33.903" ry="33.903" transform="matrix(0.02244500070810318, 0.9997479915618896, -0.9997479915618896, 0.02244500070810318, 327.8435717797811, -74.44473377532859)"/>
  <ellipse style="fill: rgb(97, 116, 234);" cx="375.458" cy="355.744" rx="33.903" ry="33.903" transform="matrix(0.02244500070810318, 0.9997479915618896, -0.9997479915618896, 0.02244500070810318, 327.84363281493825, -74.44473377532859)"/>
  <ellipse style="fill: rgb(175, 0, 0);" cx="375.458" cy="74.431" rx="33.903" ry="33.903" transform="matrix(0.02244500070810318, 0.9997479915618896, -0.9997479915618896, 0.02244500070810318, 327.84375488525245, -74.44469562835538)"/>
  <ellipse style="fill: rgb(230, 73, 0);" cx="375.458" cy="144.859" rx="33.903" ry="33.903" transform="matrix(0.02244500070810318, 0.9997479915618896, -0.9997479915618896, 0.02244500070810318, 327.8438769555669, -74.44463459319822)"/>
  <ellipse style="fill: rgb(228, 224, 0);" cx="375.458" cy="214.947" rx="33.903" ry="33.903" transform="matrix(0.02244500070810318, 0.9997479915618896, -0.9997479915618896, 0.02244500070810318, 327.84363281493825, -74.44473377532859)"/>
</svg>